<svg width="15" height="16" viewBox="0 0 15 16" fill="none" xmlns="http://www.w3.org/2000/svg">
<path d="M9.0625 3H5.9375L4.375 4.875H2.5C2.16848 4.875 1.85054 5.0067 1.61612 5.24112C1.3817 5.47554 1.25 5.79348 1.25 6.125V11.75C1.25 12.0815 1.3817 12.3995 1.61612 12.6339C1.85054 12.8683 2.16848 13 2.5 13H12.5C12.8315 13 13.1495 12.8683 13.3839 12.6339C13.6183 12.3995 13.75 12.0815 13.75 11.75V6.125C13.75 5.79348 13.6183 5.47554 13.3839 5.24112C13.1495 5.0067 12.8315 4.875 12.5 4.875H10.625L9.0625 3Z" stroke="#3B57FF" stroke-width="1.5" stroke-linecap="round" stroke-linejoin="round"/>
<path d="M7.5 10.5C8.53553 10.5 9.375 9.66053 9.375 8.625C9.375 7.58947 8.53553 6.75 7.5 6.75C6.46447 6.75 5.625 7.58947 5.625 8.625C5.625 9.66053 6.46447 10.5 7.5 10.5Z" stroke="#3B57FF" stroke-width="1.5" stroke-linecap="round" stroke-linejoin="round"/>
</svg>
