<svg width="17" height="17" viewBox="0 0 17 17" fill="none" xmlns="http://www.w3.org/2000/svg">
<path d="M6.22667 9.4815L10.78 12.0685M10.7733 4.9315L6.22667 7.5185M14.5 3.95C14.5 5.02696 13.6046 5.9 12.5 5.9C11.3954 5.9 10.5 5.02696 10.5 3.95C10.5 2.87304 11.3954 2 12.5 2C13.6046 2 14.5 2.87304 14.5 3.95ZM6.5 8.5C6.5 9.57696 5.60457 10.45 4.5 10.45C3.39543 10.45 2.5 9.57696 2.5 8.5C2.5 7.42304 3.39543 6.55 4.5 6.55C5.60457 6.55 6.5 7.42304 6.5 8.5ZM14.5 13.05C14.5 14.127 13.6046 15 12.5 15C11.3954 15 10.5 14.127 10.5 13.05C10.5 11.973 11.3954 11.1 12.5 11.1C13.6046 11.1 14.5 11.973 14.5 13.05Z" stroke="#F4F9FF" stroke-width="1.25" stroke-linecap="round" stroke-linejoin="round"/>
</svg>
