<svg width="14" height="15" viewBox="0 0 14 15" fill="none" xmlns="http://www.w3.org/2000/svg">
<g clip-path="url(#clip0_892_3312)">
<path d="M11.5 1.66724V4.00057M12.6673 2.83325H10.334M6.26131 2.14151C6.28631 2.0077 6.35731 1.88684 6.46204 1.79987C6.56676 1.71289 6.6986 1.66528 6.83473 1.66528C6.97086 1.66528 7.1027 1.71289 7.20742 1.79987C7.31215 1.88684 7.38315 2.0077 7.40815 2.14151L8.02123 5.38368C8.06477 5.61418 8.17679 5.82621 8.34266 5.99208C8.50854 6.15795 8.72056 6.26997 8.95106 6.31351L12.1932 6.9266C12.327 6.95159 12.4479 7.0226 12.5349 7.12732C12.6219 7.23204 12.6695 7.36388 12.6695 7.50001C12.6695 7.63614 12.6219 7.76798 12.5349 7.87271C12.4479 7.97743 12.327 8.04844 12.1932 8.07343L8.95106 8.68651C8.72056 8.73006 8.50854 8.84207 8.34266 9.00795C8.17679 9.17382 8.06477 9.38584 8.02123 9.61635L7.40815 12.8585C7.38315 12.9923 7.31215 13.1132 7.20742 13.2002C7.1027 13.2871 6.97086 13.3347 6.83473 13.3347C6.6986 13.3347 6.56676 13.2871 6.46204 13.2002C6.35731 13.1132 6.28631 12.9923 6.26131 12.8585L5.64823 9.61635C5.60469 9.38584 5.49267 9.17382 5.3268 9.00795C5.16092 8.84207 4.9489 8.73006 4.7184 8.68651L1.47623 8.07343C1.34242 8.04844 1.22156 7.97743 1.13458 7.87271C1.04761 7.76798 1 7.63614 1 7.50001C1 7.36388 1.04761 7.23204 1.13458 7.12732C1.22156 7.0226 1.34242 6.95159 1.47623 6.9266L4.7184 6.31351C4.9489 6.26997 5.16092 6.15795 5.3268 5.99208C5.49267 5.82621 5.60469 5.61418 5.64823 5.38368L6.26131 2.14151ZM3.33333 12.1669C3.33333 12.8112 2.811 13.3336 2.16667 13.3336C1.52233 13.3336 1 12.8112 1 12.1669C1 11.5226 1.52233 11.0002 2.16667 11.0002C2.811 11.0002 3.33333 11.5226 3.33333 12.1669Z" stroke="#FFF" stroke-width="1.5" stroke-linecap="round" stroke-linejoin="round"/>
</g>
<defs>
<clipPath id="clip0_892_3312">
<rect width="13.6695" height="13.6695" fill="none" transform="translate(0 0.665283)"/>
</clipPath>
</defs>
</svg>
