<svg width="26" height="19" viewBox="0 0 26 19" fill="none" xmlns="http://www.w3.org/2000/svg">
<path d="M21.2039 6.05825V2.27184C21.2039 1.93711 21.0709 1.61608 20.8342 1.37938C20.5975 1.14268 20.2765 1.00971 19.9417 1.00971H3.53398C2.8645 1.00971 2.22244 1.27566 1.74905 1.74905C1.27566 2.22244 1.00971 2.8645 1.00971 3.53398C1.00971 4.20346 1.27566 4.84552 1.74905 5.31891C2.22244 5.7923 2.8645 6.05825 3.53398 6.05825H22.466C22.8008 6.05825 23.1218 6.19123 23.3585 6.42792C23.5952 6.66462 23.7282 6.98565 23.7282 7.32039V12.3689M23.7282 12.3689H19.9417C19.2723 12.3689 18.6302 12.6349 18.1568 13.1083C17.6834 13.5817 17.4175 14.2237 17.4175 14.8932C17.4175 15.5627 17.6834 16.2047 18.1568 16.6781C18.6302 17.1515 19.2723 17.4175 19.9417 17.4175H23.7282C24.0629 17.4175 24.3839 17.2845 24.6206 17.0478C24.8573 16.8111 24.9903 16.4901 24.9903 16.1553V13.6311C24.9903 13.2963 24.8573 12.9753 24.6206 12.7386C24.3839 12.5019 24.0629 12.3689 23.7282 12.3689Z" stroke="#F3F9FF" stroke-linecap="round" stroke-linejoin="round"/>
</svg>
