<svg width="312" height="158" viewBox="0 0 312 158" fill="none"
  xmlns="http://www.w3.org/2000/svg">
  <path d="M9.75178 11.12C9.24778 11.12 8.80778 11.06 8.43178 10.94C8.05578 10.812 7.73978 10.644 7.48378 10.436C7.22778 10.228 7.03178 10 6.89578 9.752C6.76778 9.504 6.69978 9.248 6.69178 8.984C6.69178 8.912 6.71578 8.856 6.76378 8.816C6.81178 8.776 6.87178 8.756 6.94378 8.756H7.53178C7.60378 8.756 7.66778 8.772 7.72378 8.804C7.77978 8.836 7.82778 8.904 7.86778 9.008C7.94778 9.296 8.08378 9.52 8.27578 9.68C8.47578 9.84 8.70378 9.952 8.95978 10.016C9.22378 10.072 9.48778 10.1 9.75178 10.1C10.3038 10.1 10.7518 9.968 11.0958 9.704C11.4398 9.44 11.6118 9.052 11.6118 8.54C11.6118 8.02 11.4558 7.648 11.1438 7.424C10.8318 7.2 10.3998 7.088 9.84778 7.088H8.70778C8.62778 7.088 8.55978 7.064 8.50378 7.016C8.45578 6.968 8.43178 6.9 8.43178 6.812V6.488C8.43178 6.416 8.44378 6.356 8.46778 6.308C8.49978 6.252 8.53178 6.204 8.56378 6.164L10.8918 3.62H7.35178C7.27178 3.62 7.20378 3.596 7.14778 3.548C7.09978 3.5 7.07578 3.432 7.07578 3.344V2.888C7.07578 2.8 7.09978 2.732 7.14778 2.684C7.20378 2.628 7.27178 2.6 7.35178 2.6H12.1398C12.2278 2.6 12.2958 2.628 12.3438 2.684C12.3998 2.732 12.4278 2.8 12.4278 2.888V3.32C12.4278 3.376 12.4118 3.428 12.3798 3.476C12.3558 3.516 12.3278 3.556 12.2958 3.596L9.97978 6.176L10.1718 6.188C10.6998 6.204 11.1598 6.3 11.5518 6.476C11.9518 6.652 12.2598 6.916 12.4758 7.268C12.6998 7.612 12.8118 8.048 12.8118 8.576C12.8118 9.112 12.6798 9.572 12.4158 9.956C12.1518 10.332 11.7878 10.62 11.3238 10.82C10.8598 11.02 10.3358 11.12 9.75178 11.12ZM17.1868 11.12C16.6348 11.12 16.1668 11.036 15.7828 10.868C15.4068 10.692 15.0988 10.452 14.8588 10.148C14.6188 9.844 14.4428 9.496 14.3308 9.104C14.2268 8.712 14.1668 8.296 14.1508 7.856C14.1428 7.64 14.1348 7.412 14.1268 7.172C14.1268 6.932 14.1268 6.692 14.1268 6.452C14.1348 6.204 14.1428 5.968 14.1508 5.744C14.1588 5.304 14.2188 4.888 14.3308 4.496C14.4508 4.096 14.6268 3.748 14.8588 3.452C15.0988 3.148 15.4108 2.912 15.7948 2.744C16.1788 2.568 16.6428 2.48 17.1868 2.48C17.7388 2.48 18.2028 2.568 18.5788 2.744C18.9628 2.912 19.2748 3.148 19.5148 3.452C19.7548 3.748 19.9308 4.096 20.0428 4.496C20.1628 4.888 20.2268 5.304 20.2348 5.744C20.2428 5.968 20.2468 6.204 20.2468 6.452C20.2548 6.692 20.2548 6.932 20.2468 7.172C20.2468 7.412 20.2428 7.64 20.2348 7.856C20.2268 8.296 20.1628 8.712 20.0428 9.104C19.9308 9.496 19.7548 9.844 19.5148 10.148C19.2828 10.452 18.9748 10.692 18.5908 10.868C18.2148 11.036 17.7468 11.12 17.1868 11.12ZM17.1868 10.1C17.8108 10.1 18.2708 9.896 18.5668 9.488C18.8708 9.072 19.0268 8.508 19.0348 7.796C19.0508 7.564 19.0588 7.34 19.0588 7.124C19.0588 6.9 19.0588 6.68 19.0588 6.464C19.0588 6.24 19.0508 6.02 19.0348 5.804C19.0268 5.108 18.8708 4.552 18.5668 4.136C18.2708 3.712 17.8108 3.5 17.1868 3.5C16.5708 3.5 16.1108 3.712 15.8068 4.136C15.5108 4.552 15.3548 5.108 15.3388 5.804C15.3388 6.02 15.3348 6.24 15.3268 6.464C15.3268 6.68 15.3268 6.9 15.3268 7.124C15.3348 7.34 15.3388 7.564 15.3388 7.796C15.3548 8.508 15.5148 9.072 15.8188 9.488C16.1228 9.896 16.5788 10.1 17.1868 10.1Z" fill="#F4F9FF" fillOpacity="0.3"/>
  <path d="M7.20384 35C7.12384 35 7.05584 34.976 6.99984 34.928C6.95184 34.872 6.92784 34.804 6.92784 34.724V34.34C6.92784 34.268 6.94784 34.188 6.98784 34.1C7.02784 34.012 7.10784 33.916 7.22784 33.812L9.77184 31.268C10.1798 30.924 10.4998 30.632 10.7318 30.392C10.9718 30.144 11.1398 29.908 11.2358 29.684C11.3398 29.46 11.3918 29.228 11.3918 28.988C11.3918 28.532 11.2638 28.172 11.0078 27.908C10.7518 27.636 10.3718 27.5 9.86784 27.5C9.54784 27.5 9.27184 27.568 9.03984 27.704C8.80784 27.832 8.62784 28.012 8.49984 28.244C8.37184 28.468 8.28384 28.724 8.23584 29.012C8.21984 29.116 8.17584 29.188 8.10384 29.228C8.03984 29.268 7.97984 29.288 7.92384 29.288H7.29984C7.22784 29.288 7.16784 29.268 7.11984 29.228C7.07184 29.18 7.04784 29.124 7.04784 29.06C7.05584 28.756 7.11984 28.452 7.23984 28.148C7.35984 27.836 7.53584 27.556 7.76784 27.308C8.00784 27.052 8.29984 26.848 8.64384 26.696C8.99584 26.544 9.40384 26.468 9.86784 26.468C10.4998 26.468 11.0158 26.584 11.4158 26.816C11.8238 27.04 12.1238 27.34 12.3158 27.716C12.5078 28.092 12.6038 28.504 12.6038 28.952C12.6038 29.304 12.5438 29.628 12.4238 29.924C12.3038 30.212 12.1278 30.496 11.8958 30.776C11.6718 31.048 11.3918 31.328 11.0558 31.616L8.75184 33.956H12.4958C12.5838 33.956 12.6518 33.98 12.6998 34.028C12.7558 34.076 12.7838 34.144 12.7838 34.232V34.724C12.7838 34.804 12.7558 34.872 12.6998 34.928C12.6518 34.976 12.5838 35 12.4958 35H7.20384ZM17.1868 35.12C16.6348 35.12 16.1668 35.036 15.7828 34.868C15.4068 34.692 15.0988 34.452 14.8588 34.148C14.6188 33.844 14.4428 33.496 14.3308 33.104C14.2268 32.712 14.1668 32.296 14.1508 31.856C14.1428 31.64 14.1348 31.412 14.1268 31.172C14.1268 30.932 14.1268 30.688 14.1268 30.44C14.1348 30.192 14.1428 29.956 14.1508 29.732C14.1588 29.292 14.2188 28.876 14.3308 28.484C14.4508 28.092 14.6308 27.748 14.8708 27.452C15.1108 27.148 15.4188 26.912 15.7948 26.744C16.1788 26.568 16.6428 26.48 17.1868 26.48C17.7388 26.48 18.2028 26.568 18.5788 26.744C18.9628 26.912 19.2748 27.148 19.5148 27.452C19.7548 27.748 19.9308 28.092 20.0428 28.484C20.1628 28.876 20.2268 29.292 20.2348 29.732C20.2428 29.956 20.2468 30.192 20.2468 30.44C20.2548 30.688 20.2548 30.932 20.2468 31.172C20.2468 31.412 20.2428 31.64 20.2348 31.856C20.2268 32.296 20.1628 32.712 20.0428 33.104C19.9308 33.496 19.7548 33.844 19.5148 34.148C19.2828 34.452 18.9748 34.692 18.5908 34.868C18.2148 35.036 17.7468 35.12 17.1868 35.12ZM17.1868 34.088C17.8108 34.088 18.2708 33.884 18.5668 33.476C18.8708 33.068 19.0268 32.508 19.0348 31.796C19.0508 31.564 19.0588 31.34 19.0588 31.124C19.0588 30.9 19.0588 30.68 19.0588 30.464C19.0588 30.24 19.0508 30.02 19.0348 29.804C19.0268 29.108 18.8708 28.552 18.5668 28.136C18.2708 27.712 17.8108 27.5 17.1868 27.5C16.5708 27.5 16.1108 27.712 15.8068 28.136C15.5108 28.552 15.3548 29.108 15.3388 29.804C15.3388 30.02 15.3348 30.24 15.3268 30.464C15.3268 30.68 15.3268 30.9 15.3268 31.124C15.3348 31.34 15.3388 31.564 15.3388 31.796C15.3548 32.508 15.5148 33.068 15.8188 33.476C16.1228 33.884 16.5788 34.088 17.1868 34.088Z" fill="#F4F9FF" fillOpacity="0.3"/>
  <path d="M11.562 59C11.482 59 11.414 58.976 11.358 58.928C11.31 58.872 11.286 58.804 11.286 58.724V52.004L9.294 53.54C9.23 53.588 9.162 53.608 9.09 53.6C9.018 53.592 8.958 53.556 8.91 53.492L8.598 53.096C8.55 53.024 8.53 52.952 8.538 52.88C8.554 52.808 8.594 52.748 8.658 52.7L11.274 50.684C11.33 50.644 11.382 50.62 11.43 50.612C11.478 50.604 11.53 50.6 11.586 50.6H12.198C12.278 50.6 12.342 50.628 12.39 50.684C12.446 50.732 12.474 50.796 12.474 50.876V58.724C12.474 58.804 12.446 58.872 12.39 58.928C12.342 58.976 12.278 59 12.198 59H11.562ZM17.1868 59.12C16.6348 59.12 16.1668 59.036 15.7828 58.868C15.4068 58.692 15.0988 58.452 14.8588 58.148C14.6188 57.844 14.4428 57.496 14.3308 57.104C14.2268 56.712 14.1668 56.296 14.1508 55.856C14.1428 55.64 14.1348 55.412 14.1268 55.172C14.1268 54.932 14.1268 54.688 14.1268 54.44C14.1348 54.192 14.1428 53.956 14.1508 53.732C14.1588 53.292 14.2188 52.876 14.3308 52.484C14.4508 52.092 14.6308 51.748 14.8708 51.452C15.1108 51.148 15.4188 50.912 15.7948 50.744C16.1788 50.568 16.6428 50.48 17.1868 50.48C17.7388 50.48 18.2028 50.568 18.5788 50.744C18.9628 50.912 19.2748 51.148 19.5148 51.452C19.7548 51.748 19.9308 52.092 20.0428 52.484C20.1628 52.876 20.2268 53.292 20.2348 53.732C20.2428 53.956 20.2468 54.192 20.2468 54.44C20.2548 54.688 20.2548 54.932 20.2468 55.172C20.2468 55.412 20.2428 55.64 20.2348 55.856C20.2268 56.296 20.1628 56.712 20.0428 57.104C19.9308 57.496 19.7548 57.844 19.5148 58.148C19.2828 58.452 18.9748 58.692 18.5908 58.868C18.2148 59.036 17.7468 59.12 17.1868 59.12ZM17.1868 58.088C17.8108 58.088 18.2708 57.884 18.5668 57.476C18.8708 57.068 19.0268 56.508 19.0348 55.796C19.0508 55.564 19.0588 55.34 19.0588 55.124C19.0588 54.9 19.0588 54.68 19.0588 54.464C19.0588 54.24 19.0508 54.02 19.0348 53.804C19.0268 53.108 18.8708 52.552 18.5668 52.136C18.2708 51.712 17.8108 51.5 17.1868 51.5C16.5708 51.5 16.1108 51.712 15.8068 52.136C15.5108 52.552 15.3548 53.108 15.3388 53.804C15.3388 54.02 15.3348 54.24 15.3268 54.464C15.3268 54.68 15.3268 54.9 15.3268 55.124C15.3348 55.34 15.3388 55.564 15.3388 55.796C15.3548 56.508 15.5148 57.068 15.8188 57.476C16.1228 57.884 16.5788 58.088 17.1868 58.088Z" fill="#F4F9FF" fillOpacity="0.3"/>
  <path d="M17.1868 83.12C16.6348 83.12 16.1668 83.036 15.7828 82.868C15.4068 82.692 15.0988 82.452 14.8588 82.148C14.6188 81.844 14.4428 81.496 14.3308 81.104C14.2268 80.712 14.1668 80.296 14.1508 79.856C14.1428 79.64 14.1348 79.412 14.1268 79.172C14.1268 78.932 14.1268 78.688 14.1268 78.44C14.1348 78.192 14.1428 77.956 14.1508 77.732C14.1588 77.292 14.2188 76.876 14.3308 76.484C14.4508 76.092 14.6308 75.748 14.8708 75.452C15.1108 75.148 15.4188 74.912 15.7948 74.744C16.1788 74.568 16.6428 74.48 17.1868 74.48C17.7388 74.48 18.2028 74.568 18.5788 74.744C18.9628 74.912 19.2748 75.148 19.5148 75.452C19.7548 75.748 19.9308 76.092 20.0428 76.484C20.1628 76.876 20.2268 77.292 20.2348 77.732C20.2428 77.956 20.2468 78.192 20.2468 78.44C20.2548 78.688 20.2548 78.932 20.2468 79.172C20.2468 79.412 20.2428 79.64 20.2348 79.856C20.2268 80.296 20.1628 80.712 20.0428 81.104C19.9308 81.496 19.7548 81.844 19.5148 82.148C19.2828 82.452 18.9748 82.692 18.5908 82.868C18.2148 83.036 17.7468 83.12 17.1868 83.12ZM17.1868 82.088C17.8108 82.088 18.2708 81.884 18.5668 81.476C18.8708 81.068 19.0268 80.508 19.0348 79.796C19.0508 79.564 19.0588 79.34 19.0588 79.124C19.0588 78.9 19.0588 78.68 19.0588 78.464C19.0588 78.24 19.0508 78.02 19.0348 77.804C19.0268 77.108 18.8708 76.552 18.5668 76.136C18.2708 75.712 17.8108 75.5 17.1868 75.5C16.5708 75.5 16.1108 75.712 15.8068 76.136C15.5108 76.552 15.3548 77.108 15.3388 77.804C15.3388 78.02 15.3348 78.24 15.3268 78.464C15.3268 78.68 15.3268 78.9 15.3268 79.124C15.3348 79.34 15.3388 79.564 15.3388 79.796C15.3548 80.508 15.5148 81.068 15.8188 81.476C16.1228 81.884 16.5788 82.088 17.1868 82.088Z" fill="#F4F9FF" fillOpacity="0.3"/>
  <path d="M3.98681 103.904C3.90681 103.904 3.83881 103.88 3.78281 103.832C3.73481 103.776 3.71081 103.708 3.71081 103.628V103.172C3.71081 103.092 3.73481 103.028 3.78281 102.98C3.83881 102.924 3.90681 102.896 3.98681 102.896H7.58681C7.67481 102.896 7.74281 102.924 7.79081 102.98C7.83881 103.028 7.86281 103.092 7.86281 103.172V103.628C7.86281 103.708 7.83881 103.776 7.79081 103.832C7.74281 103.88 7.67481 103.904 7.58681 103.904H3.98681ZM11.562 107C11.482 107 11.414 106.976 11.358 106.928C11.31 106.872 11.286 106.804 11.286 106.724V100.004L9.294 101.54C9.23 101.588 9.162 101.608 9.09 101.6C9.018 101.592 8.958 101.556 8.91 101.492L8.598 101.096C8.55 101.024 8.53 100.952 8.538 100.88C8.554 100.808 8.594 100.748 8.658 100.7L11.274 98.684C11.33 98.644 11.382 98.62 11.43 98.612C11.478 98.604 11.53 98.6 11.586 98.6H12.198C12.278 98.6 12.342 98.628 12.39 98.684C12.446 98.732 12.474 98.796 12.474 98.876V106.724C12.474 106.804 12.446 106.872 12.39 106.928C12.342 106.976 12.278 107 12.198 107H11.562ZM17.1868 107.12C16.6348 107.12 16.1668 107.036 15.7828 106.868C15.4068 106.692 15.0988 106.452 14.8588 106.148C14.6188 105.844 14.4428 105.496 14.3308 105.104C14.2268 104.712 14.1668 104.296 14.1508 103.856C14.1428 103.64 14.1348 103.412 14.1268 103.172C14.1268 102.932 14.1268 102.688 14.1268 102.44C14.1348 102.192 14.1428 101.956 14.1508 101.732C14.1588 101.292 14.2188 100.876 14.3308 100.484C14.4508 100.092 14.6308 99.748 14.8708 99.452C15.1108 99.148 15.4188 98.912 15.7948 98.744C16.1788 98.568 16.6428 98.48 17.1868 98.48C17.7388 98.48 18.2028 98.568 18.5788 98.744C18.9628 98.912 19.2748 99.148 19.5148 99.452C19.7548 99.748 19.9308 100.092 20.0428 100.484C20.1628 100.876 20.2268 101.292 20.2348 101.732C20.2428 101.956 20.2468 102.192 20.2468 102.44C20.2548 102.688 20.2548 102.932 20.2468 103.172C20.2468 103.412 20.2428 103.64 20.2348 103.856C20.2268 104.296 20.1628 104.712 20.0428 105.104C19.9308 105.496 19.7548 105.844 19.5148 106.148C19.2828 106.452 18.9748 106.692 18.5908 106.868C18.2148 107.036 17.7468 107.12 17.1868 107.12ZM17.1868 106.088C17.8108 106.088 18.2708 105.884 18.5668 105.476C18.8708 105.068 19.0268 104.508 19.0348 103.796C19.0508 103.564 19.0588 103.34 19.0588 103.124C19.0588 102.9 19.0588 102.68 19.0588 102.464C19.0588 102.24 19.0508 102.02 19.0348 101.804C19.0268 101.108 18.8708 100.552 18.5668 100.136C18.2708 99.712 17.8108 99.5 17.1868 99.5C16.5708 99.5 16.1108 99.712 15.8068 100.136C15.5108 100.552 15.3548 101.108 15.3388 101.804C15.3388 102.02 15.3348 102.24 15.3268 102.464C15.3268 102.68 15.3268 102.9 15.3268 103.124C15.3348 103.34 15.3388 103.564 15.3388 103.796C15.3548 104.508 15.5148 105.068 15.8188 105.476C16.1228 105.884 16.5788 106.088 17.1868 106.088Z" fill="#F4F9FF" fillOpacity="0.3"/>
  <path d="M2.10009 127.904C2.02009 127.904 1.95209 127.88 1.89609 127.832C1.84809 127.776 1.82409 127.708 1.82409 127.628V127.172C1.82409 127.092 1.84809 127.028 1.89609 126.98C1.95209 126.924 2.02009 126.896 2.10009 126.896H5.70009C5.78809 126.896 5.85609 126.924 5.90409 126.98C5.95209 127.028 5.97609 127.092 5.97609 127.172V127.628C5.97609 127.708 5.95209 127.776 5.90409 127.832C5.85609 127.88 5.78809 127.904 5.70009 127.904H2.10009ZM7.20384 131C7.12384 131 7.05584 130.976 6.99984 130.928C6.95184 130.872 6.92784 130.804 6.92784 130.724V130.34C6.92784 130.268 6.94784 130.188 6.98784 130.1C7.02784 130.012 7.10784 129.916 7.22784 129.812L9.77184 127.268C10.1798 126.924 10.4998 126.632 10.7318 126.392C10.9718 126.144 11.1398 125.908 11.2358 125.684C11.3398 125.46 11.3918 125.228 11.3918 124.988C11.3918 124.532 11.2638 124.172 11.0078 123.908C10.7518 123.636 10.3718 123.5 9.86784 123.5C9.54784 123.5 9.27184 123.568 9.03984 123.704C8.80784 123.832 8.62784 124.012 8.49984 124.244C8.37184 124.468 8.28384 124.724 8.23584 125.012C8.21984 125.116 8.17584 125.188 8.10384 125.228C8.03984 125.268 7.97984 125.288 7.92384 125.288H7.29984C7.22784 125.288 7.16784 125.268 7.11984 125.228C7.07184 125.18 7.04784 125.124 7.04784 125.06C7.05584 124.756 7.11984 124.452 7.23984 124.148C7.35984 123.836 7.53584 123.556 7.76784 123.308C8.00784 123.052 8.29984 122.848 8.64384 122.696C8.99584 122.544 9.40384 122.468 9.86784 122.468C10.4998 122.468 11.0158 122.584 11.4158 122.816C11.8238 123.04 12.1238 123.34 12.3158 123.716C12.5078 124.092 12.6038 124.504 12.6038 124.952C12.6038 125.304 12.5438 125.628 12.4238 125.924C12.3038 126.212 12.1278 126.496 11.8958 126.776C11.6718 127.048 11.3918 127.328 11.0558 127.616L8.75184 129.956H12.4958C12.5838 129.956 12.6518 129.98 12.6998 130.028C12.7558 130.076 12.7838 130.144 12.7838 130.232V130.724C12.7838 130.804 12.7558 130.872 12.6998 130.928C12.6518 130.976 12.5838 131 12.4958 131H7.20384ZM17.1868 131.12C16.6348 131.12 16.1668 131.036 15.7828 130.868C15.4068 130.692 15.0988 130.452 14.8588 130.148C14.6188 129.844 14.4428 129.496 14.3308 129.104C14.2268 128.712 14.1668 128.296 14.1508 127.856C14.1428 127.64 14.1348 127.412 14.1268 127.172C14.1268 126.932 14.1268 126.688 14.1268 126.44C14.1348 126.192 14.1428 125.956 14.1508 125.732C14.1588 125.292 14.2188 124.876 14.3308 124.484C14.4508 124.092 14.6308 123.748 14.8708 123.452C15.1108 123.148 15.4188 122.912 15.7948 122.744C16.1788 122.568 16.6428 122.48 17.1868 122.48C17.7388 122.48 18.2028 122.568 18.5788 122.744C18.9628 122.912 19.2748 123.148 19.5148 123.452C19.7548 123.748 19.9308 124.092 20.0428 124.484C20.1628 124.876 20.2268 125.292 20.2348 125.732C20.2428 125.956 20.2468 126.192 20.2468 126.44C20.2548 126.688 20.2548 126.932 20.2468 127.172C20.2468 127.412 20.2428 127.64 20.2348 127.856C20.2268 128.296 20.1628 128.712 20.0428 129.104C19.9308 129.496 19.7548 129.844 19.5148 130.148C19.2828 130.452 18.9748 130.692 18.5908 130.868C18.2148 131.036 17.7468 131.12 17.1868 131.12ZM17.1868 130.088C17.8108 130.088 18.2708 129.884 18.5668 129.476C18.8708 129.068 19.0268 128.508 19.0348 127.796C19.0508 127.564 19.0588 127.34 19.0588 127.124C19.0588 126.9 19.0588 126.68 19.0588 126.464C19.0588 126.24 19.0508 126.02 19.0348 125.804C19.0268 125.108 18.8708 124.552 18.5668 124.136C18.2708 123.712 17.8108 123.5 17.1868 123.5C16.5708 123.5 16.1108 123.712 15.8068 124.136C15.5108 124.552 15.3548 125.108 15.3388 125.804C15.3388 126.02 15.3348 126.24 15.3268 126.464C15.3268 126.68 15.3268 126.9 15.3268 127.124C15.3348 127.34 15.3388 127.564 15.3388 127.796C15.3548 128.508 15.5148 129.068 15.8188 129.476C16.1228 129.884 16.5788 130.088 17.1868 130.088Z" fill="#F4F9FF" fillOpacity="0.3"/>
  <path d="M35.068 155.12C34.38 155.12 33.792 155.004 33.304 154.772C32.816 154.532 32.44 154.168 32.176 153.68C31.912 153.184 31.764 152.564 31.732 151.82C31.724 151.468 31.72 151.132 31.72 150.812C31.72 150.484 31.724 150.144 31.732 149.792C31.764 149.056 31.916 148.444 32.188 147.956C32.468 147.46 32.852 147.092 33.34 146.852C33.836 146.604 34.412 146.48 35.068 146.48C35.716 146.48 36.284 146.604 36.772 146.852C37.268 147.092 37.656 147.46 37.936 147.956C38.216 148.444 38.368 149.056 38.392 149.792C38.408 150.144 38.416 150.484 38.416 150.812C38.416 151.132 38.408 151.468 38.392 151.82C38.368 152.564 38.22 153.184 37.948 153.68C37.684 154.168 37.308 154.532 36.82 154.772C36.332 155.004 35.748 155.12 35.068 155.12ZM35.068 154.1C35.676 154.1 36.172 153.916 36.556 153.548C36.948 153.18 37.16 152.584 37.192 151.76C37.208 151.4 37.216 151.08 37.216 150.8C37.216 150.512 37.208 150.192 37.192 149.84C37.176 149.288 37.072 148.84 36.88 148.496C36.696 148.152 36.448 147.9 36.136 147.74C35.824 147.58 35.468 147.5 35.068 147.5C34.668 147.5 34.312 147.58 34 147.74C33.688 147.9 33.436 148.152 33.244 148.496C33.06 148.84 32.956 149.288 32.932 149.84C32.924 150.192 32.92 150.512 32.92 150.8C32.92 151.08 32.924 151.4 32.932 151.76C32.964 152.584 33.176 153.18 33.568 153.548C33.96 153.916 34.46 154.1 35.068 154.1ZM42.5291 155.12C41.9611 155.12 41.4691 155.012 41.0531 154.796C40.6451 154.572 40.3291 154.256 40.1051 153.848C39.8811 153.432 39.7611 152.936 39.7451 152.36C39.7371 152.24 39.7331 152.08 39.7331 151.88C39.7331 151.68 39.7371 151.52 39.7451 151.4C39.7611 150.824 39.8811 150.332 40.1051 149.924C40.3291 149.508 40.6451 149.192 41.0531 148.976C41.4691 148.752 41.9611 148.64 42.5291 148.64C42.9931 148.64 43.3891 148.704 43.7171 148.832C44.0531 148.96 44.3291 149.124 44.5451 149.324C44.7611 149.524 44.9211 149.74 45.0251 149.972C45.1371 150.204 45.1971 150.424 45.2051 150.632C45.2131 150.712 45.1891 150.776 45.1331 150.824C45.0771 150.872 45.0091 150.896 44.9291 150.896H44.3531C44.2731 150.896 44.2131 150.88 44.1731 150.848C44.1331 150.808 44.0931 150.744 44.0531 150.656C43.9091 150.264 43.7131 149.988 43.4651 149.828C43.2171 149.668 42.9091 149.588 42.5411 149.588C42.0611 149.588 41.6691 149.736 41.3651 150.032C41.0691 150.328 40.9091 150.804 40.8851 151.46C40.8771 151.748 40.8771 152.028 40.8851 152.3C40.9091 152.964 41.0691 153.444 41.3651 153.74C41.6691 154.028 42.0611 154.172 42.5411 154.172C42.9091 154.172 43.2171 154.092 43.4651 153.932C43.7131 153.772 43.9091 153.496 44.0531 153.104C44.0931 153.016 44.1331 152.952 44.1731 152.912C44.2131 152.872 44.2731 152.852 44.3531 152.852H44.9291C45.0091 152.852 45.0771 152.88 45.1331 152.936C45.1891 152.984 45.2131 153.048 45.2051 153.128C45.1971 153.296 45.1611 153.468 45.0971 153.644C45.0331 153.82 44.9291 154 44.7851 154.184C44.6491 154.36 44.4771 154.52 44.2691 154.664C44.0611 154.8 43.8131 154.912 43.5251 155C43.2371 155.08 42.9051 155.12 42.5291 155.12ZM49.0662 155C48.6182 155 48.2542 154.916 47.9742 154.748C47.6942 154.572 47.4902 154.328 47.3622 154.016C47.2342 153.696 47.1702 153.32 47.1702 152.888V149.72H46.2342C46.1542 149.72 46.0862 149.696 46.0302 149.648C45.9822 149.592 45.9582 149.524 45.9582 149.444V149.036C45.9582 148.956 45.9822 148.892 46.0302 148.844C46.0862 148.788 46.1542 148.76 46.2342 148.76H47.1702V146.756C47.1702 146.676 47.1942 146.612 47.2422 146.564C47.2982 146.508 47.3662 146.48 47.4462 146.48H48.0102C48.0902 146.48 48.1542 146.508 48.2022 146.564C48.2582 146.612 48.2862 146.676 48.2862 146.756V148.76H49.7742C49.8622 148.76 49.9302 148.788 49.9782 148.844C50.0262 148.892 50.0502 148.956 50.0502 149.036V149.444C50.0502 149.524 50.0262 149.592 49.9782 149.648C49.9302 149.696 49.8622 149.72 49.7742 149.72H48.2862V152.804C48.2862 153.18 48.3502 153.476 48.4782 153.692C48.6062 153.908 48.8342 154.016 49.1622 154.016H49.8942C49.9742 154.016 50.0382 154.044 50.0862 154.1C50.1422 154.148 50.1702 154.212 50.1702 154.292V154.724C50.1702 154.804 50.1422 154.872 50.0862 154.928C50.0382 154.976 49.9742 155 49.8942 155H49.0662ZM54.2351 155C54.1551 155 54.0871 154.976 54.0311 154.928C53.9831 154.872 53.9591 154.804 53.9591 154.724V154.34C53.9591 154.268 53.9791 154.188 54.0191 154.1C54.0591 154.012 54.1391 153.916 54.2591 153.812L56.8031 151.268C57.2111 150.924 57.5311 150.632 57.7631 150.392C58.0031 150.144 58.1711 149.908 58.2671 149.684C58.3711 149.46 58.4231 149.228 58.4231 148.988C58.4231 148.532 58.2951 148.172 58.0391 147.908C57.7831 147.636 57.4031 147.5 56.8991 147.5C56.5791 147.5 56.3031 147.568 56.0711 147.704C55.8391 147.832 55.6591 148.012 55.5311 148.244C55.4031 148.468 55.3151 148.724 55.2671 149.012C55.2511 149.116 55.2071 149.188 55.1351 149.228C55.0711 149.268 55.0111 149.288 54.9551 149.288H54.3311C54.2591 149.288 54.1991 149.268 54.1511 149.228C54.1031 149.18 54.0791 149.124 54.0791 149.06C54.0871 148.756 54.1511 148.452 54.2711 148.148C54.3911 147.836 54.5671 147.556 54.7991 147.308C55.0391 147.052 55.3311 146.848 55.6751 146.696C56.0271 146.544 56.4351 146.468 56.8991 146.468C57.5311 146.468 58.0471 146.584 58.4471 146.816C58.8551 147.04 59.1551 147.34 59.3471 147.716C59.5391 148.092 59.6351 148.504 59.6351 148.952C59.6351 149.304 59.5751 149.628 59.4551 149.924C59.3351 150.212 59.1591 150.496 58.9271 150.776C58.7031 151.048 58.4231 151.328 58.0871 151.616L55.7831 153.956H59.5271C59.6151 153.956 59.6831 153.98 59.7311 154.028C59.7871 154.076 59.8151 154.144 59.8151 154.232V154.724C59.8151 154.804 59.7871 154.872 59.7311 154.928C59.6831 154.976 59.6151 155 59.5271 155H54.2351ZM65.1089 155C65.0289 155 64.9609 154.976 64.9049 154.928C64.8569 154.872 64.8329 154.804 64.8329 154.724V152.996H60.9449C60.8649 152.996 60.7969 152.972 60.7409 152.924C60.6929 152.868 60.6689 152.8 60.6689 152.72V152.24C60.6689 152.208 60.6769 152.16 60.6929 152.096C60.7169 152.024 60.7529 151.952 60.8009 151.88L64.4009 146.804C64.4969 146.668 64.6449 146.6 64.8449 146.6H65.7089C65.7889 146.6 65.8529 146.628 65.9009 146.684C65.9569 146.732 65.9849 146.796 65.9849 146.876V151.952H67.0649C67.1529 151.952 67.2209 151.98 67.2689 152.036C67.3249 152.084 67.3529 152.148 67.3529 152.228V152.72C67.3529 152.8 67.3249 152.868 67.2689 152.924C67.2209 152.972 67.1569 152.996 67.0769 152.996H65.9849V154.724C65.9849 154.804 65.9569 154.872 65.9009 154.928C65.8529 154.976 65.7889 155 65.7089 155H65.1089ZM61.9529 151.976H64.8449V147.86L61.9529 151.976Z" fill="#F4F9FF" fillOpacity="0.3"/>
  <path d="M79.32 155C79.232 155 79.164 154.976 79.116 154.928C79.068 154.872 79.044 154.804 79.044 154.724V146.888C79.044 146.8 79.068 146.732 79.116 146.684C79.164 146.628 79.232 146.6 79.32 146.6H79.872C79.968 146.6 80.04 146.624 80.088 146.672C80.136 146.712 80.164 146.744 80.172 146.768L84.156 152.888V146.888C84.156 146.8 84.18 146.732 84.228 146.684C84.276 146.628 84.344 146.6 84.432 146.6H85.008C85.096 146.6 85.164 146.628 85.212 146.684C85.268 146.732 85.296 146.8 85.296 146.888V154.712C85.296 154.792 85.268 154.86 85.212 154.916C85.164 154.972 85.1 155 85.02 155H84.444C84.356 155 84.288 154.976 84.24 154.928C84.2 154.88 84.172 154.848 84.156 154.832L80.184 148.772V154.724C80.184 154.804 80.156 154.872 80.1 154.928C80.052 154.976 79.984 155 79.896 155H79.32ZM89.7878 155.12C89.1798 155.12 88.6718 155.004 88.2638 154.772C87.8558 154.54 87.5438 154.22 87.3278 153.812C87.1118 153.396 86.9918 152.924 86.9678 152.396C86.9598 152.26 86.9558 152.088 86.9558 151.88C86.9558 151.664 86.9598 151.492 86.9678 151.364C86.9918 150.828 87.1118 150.356 87.3278 149.948C87.5518 149.54 87.8678 149.22 88.2758 148.988C88.6838 148.756 89.1878 148.64 89.7878 148.64C90.3878 148.64 90.8918 148.756 91.2998 148.988C91.7078 149.22 92.0198 149.54 92.2358 149.948C92.4598 150.356 92.5838 150.828 92.6078 151.364C92.6158 151.492 92.6198 151.664 92.6198 151.88C92.6198 152.088 92.6158 152.26 92.6078 152.396C92.5838 152.924 92.4638 153.396 92.2478 153.812C92.0318 154.22 91.7198 154.54 91.3118 154.772C90.9038 155.004 90.3958 155.12 89.7878 155.12ZM89.7878 154.196C90.2838 154.196 90.6798 154.04 90.9758 153.728C91.2718 153.408 91.4318 152.944 91.4558 152.336C91.4638 152.216 91.4678 152.064 91.4678 151.88C91.4678 151.696 91.4638 151.544 91.4558 151.424C91.4318 150.816 91.2718 150.356 90.9758 150.044C90.6798 149.724 90.2838 149.564 89.7878 149.564C89.2918 149.564 88.8918 149.724 88.5878 150.044C88.2918 150.356 88.1358 150.816 88.1198 151.424C88.1118 151.544 88.1077 151.696 88.1077 151.88C88.1077 152.064 88.1118 152.216 88.1198 152.336C88.1358 152.944 88.2918 153.408 88.5878 153.728C88.8918 154.04 89.2918 154.196 89.7878 154.196ZM96.0717 155C95.9517 155 95.8557 154.972 95.7837 154.916C95.7197 154.86 95.6677 154.788 95.6277 154.7L93.4077 149.132C93.3917 149.092 93.3837 149.052 93.3837 149.012C93.3837 148.94 93.4077 148.88 93.4557 148.832C93.5037 148.784 93.5637 148.76 93.6357 148.76H94.2117C94.2997 148.76 94.3677 148.784 94.4157 148.832C94.4637 148.88 94.4957 148.924 94.5117 148.964L96.3357 153.692L98.1597 148.964C98.1757 148.924 98.2037 148.88 98.2437 148.832C98.2917 148.784 98.3597 148.76 98.4477 148.76H99.0357C99.0997 148.76 99.1557 148.784 99.2037 148.832C99.2597 148.88 99.2877 148.94 99.2877 149.012C99.2877 149.052 99.2797 149.092 99.2637 149.132L97.0317 154.7C96.9997 154.788 96.9477 154.86 96.8757 154.916C96.8117 154.972 96.7157 155 96.5877 155H96.0717ZM103.145 155C103.065 155 102.997 154.976 102.941 154.928C102.893 154.872 102.869 154.804 102.869 154.724V154.34C102.869 154.268 102.889 154.188 102.929 154.1C102.969 154.012 103.049 153.916 103.169 153.812L105.713 151.268C106.121 150.924 106.441 150.632 106.673 150.392C106.913 150.144 107.081 149.908 107.177 149.684C107.281 149.46 107.333 149.228 107.333 148.988C107.333 148.532 107.205 148.172 106.949 147.908C106.693 147.636 106.313 147.5 105.809 147.5C105.489 147.5 105.213 147.568 104.981 147.704C104.749 147.832 104.569 148.012 104.441 148.244C104.313 148.468 104.225 148.724 104.177 149.012C104.161 149.116 104.117 149.188 104.045 149.228C103.981 149.268 103.921 149.288 103.865 149.288H103.241C103.169 149.288 103.109 149.268 103.061 149.228C103.013 149.18 102.989 149.124 102.989 149.06C102.997 148.756 103.061 148.452 103.181 148.148C103.301 147.836 103.477 147.556 103.709 147.308C103.949 147.052 104.241 146.848 104.585 146.696C104.937 146.544 105.345 146.468 105.809 146.468C106.441 146.468 106.957 146.584 107.357 146.816C107.765 147.04 108.065 147.34 108.257 147.716C108.449 148.092 108.545 148.504 108.545 148.952C108.545 149.304 108.485 149.628 108.365 149.924C108.245 150.212 108.069 150.496 107.837 150.776C107.613 151.048 107.333 151.328 106.997 151.616L104.693 153.956H108.437C108.525 153.956 108.593 153.98 108.641 154.028C108.697 154.076 108.725 154.144 108.725 154.232V154.724C108.725 154.804 108.697 154.872 108.641 154.928C108.593 154.976 108.525 155 108.437 155H103.145ZM114.019 155C113.939 155 113.871 154.976 113.815 154.928C113.767 154.872 113.743 154.804 113.743 154.724V152.996H109.855C109.775 152.996 109.707 152.972 109.651 152.924C109.603 152.868 109.579 152.8 109.579 152.72V152.24C109.579 152.208 109.587 152.16 109.603 152.096C109.627 152.024 109.663 151.952 109.711 151.88L113.311 146.804C113.407 146.668 113.555 146.6 113.755 146.6H114.619C114.699 146.6 114.763 146.628 114.811 146.684C114.867 146.732 114.895 146.796 114.895 146.876V151.952H115.975C116.063 151.952 116.131 151.98 116.179 152.036C116.235 152.084 116.263 152.148 116.263 152.228V152.72C116.263 152.8 116.235 152.868 116.179 152.924C116.131 152.972 116.067 152.996 115.987 152.996H114.895V154.724C114.895 154.804 114.867 154.872 114.811 154.928C114.763 154.976 114.699 155 114.619 155H114.019ZM110.863 151.976H113.755V147.86L110.863 151.976Z" fill="#F4F9FF" fillOpacity="0.3"/>
  <path d="M128.32 155C128.232 155 128.164 154.976 128.116 154.928C128.068 154.872 128.044 154.804 128.044 154.724V146.888C128.044 146.8 128.068 146.732 128.116 146.684C128.164 146.628 128.232 146.6 128.32 146.6H131.044C131.868 146.6 132.532 146.724 133.036 146.972C133.54 147.22 133.908 147.588 134.14 148.076C134.372 148.556 134.492 149.148 134.5 149.852C134.508 150.212 134.512 150.528 134.512 150.8C134.512 151.072 134.508 151.384 134.5 151.736C134.484 152.472 134.36 153.084 134.128 153.572C133.904 154.052 133.544 154.412 133.048 154.652C132.56 154.884 131.912 155 131.104 155H128.32ZM129.22 153.98H131.044C131.596 153.98 132.036 153.904 132.364 153.752C132.692 153.6 132.928 153.356 133.072 153.02C133.224 152.684 133.304 152.24 133.312 151.688C133.328 151.448 133.336 151.24 133.336 151.064C133.336 150.88 133.336 150.7 133.336 150.524C133.336 150.34 133.328 150.132 133.312 149.9C133.296 149.124 133.112 148.552 132.76 148.184C132.408 147.808 131.816 147.62 130.984 147.62H129.22V153.98ZM138.657 155.12C137.825 155.12 137.165 154.868 136.677 154.364C136.189 153.852 135.921 153.156 135.873 152.276C135.865 152.172 135.861 152.04 135.861 151.88C135.861 151.712 135.865 151.576 135.873 151.472C135.905 150.904 136.037 150.408 136.269 149.984C136.501 149.552 136.817 149.22 137.217 148.988C137.625 148.756 138.101 148.64 138.645 148.64C139.253 148.64 139.761 148.768 140.169 149.024C140.585 149.28 140.901 149.644 141.117 150.116C141.333 150.588 141.441 151.14 141.441 151.772V151.976C141.441 152.064 141.413 152.132 141.357 152.18C141.309 152.228 141.245 152.252 141.165 152.252H137.013C137.013 152.26 137.013 152.276 137.013 152.3C137.013 152.324 137.013 152.344 137.013 152.36C137.029 152.688 137.101 152.996 137.229 153.284C137.357 153.564 137.541 153.792 137.781 153.968C138.029 154.144 138.317 154.232 138.645 154.232C138.933 154.232 139.173 154.188 139.365 154.1C139.557 154.012 139.713 153.916 139.833 153.812C139.953 153.7 140.033 153.612 140.073 153.548C140.145 153.452 140.201 153.396 140.241 153.38C140.281 153.356 140.345 153.344 140.433 153.344H141.021C141.093 153.344 141.153 153.368 141.201 153.416C141.257 153.456 141.281 153.516 141.273 153.596C141.265 153.716 141.201 153.864 141.081 154.04C140.961 154.208 140.789 154.376 140.565 154.544C140.349 154.712 140.077 154.852 139.749 154.964C139.429 155.068 139.065 155.12 138.657 155.12ZM137.013 151.424H140.301V151.388C140.301 151.028 140.233 150.708 140.097 150.428C139.969 150.148 139.781 149.928 139.533 149.768C139.285 149.6 138.989 149.516 138.645 149.516C138.301 149.516 138.005 149.6 137.757 149.768C137.517 149.928 137.333 150.148 137.205 150.428C137.077 150.708 137.013 151.028 137.013 151.388V151.424ZM145.396 155.12C144.828 155.12 144.336 155.012 143.92 154.796C143.512 154.572 143.196 154.256 142.972 153.848C142.748 153.432 142.628 152.936 142.612 152.36C142.604 152.24 142.6 152.08 142.6 151.88C142.6 151.68 142.604 151.52 142.612 151.4C142.628 150.824 142.748 150.332 142.972 149.924C143.196 149.508 143.512 149.192 143.92 148.976C144.336 148.752 144.828 148.64 145.396 148.64C145.86 148.64 146.256 148.704 146.584 148.832C146.92 148.96 147.196 149.124 147.412 149.324C147.628 149.524 147.788 149.74 147.892 149.972C148.004 150.204 148.064 150.424 148.072 150.632C148.08 150.712 148.056 150.776 148 150.824C147.944 150.872 147.876 150.896 147.796 150.896H147.22C147.14 150.896 147.08 150.88 147.04 150.848C147 150.808 146.96 150.744 146.92 150.656C146.776 150.264 146.58 149.988 146.332 149.828C146.084 149.668 145.776 149.588 145.408 149.588C144.928 149.588 144.536 149.736 144.232 150.032C143.936 150.328 143.776 150.804 143.752 151.46C143.744 151.748 143.744 152.028 143.752 152.3C143.776 152.964 143.936 153.444 144.232 153.74C144.536 154.028 144.928 154.172 145.408 154.172C145.776 154.172 146.084 154.092 146.332 153.932C146.58 153.772 146.776 153.496 146.92 153.104C146.96 153.016 147 152.952 147.04 152.912C147.08 152.872 147.14 152.852 147.22 152.852H147.796C147.876 152.852 147.944 152.88 148 152.936C148.056 152.984 148.08 153.048 148.072 153.128C148.064 153.296 148.028 153.468 147.964 153.644C147.9 153.82 147.796 154 147.652 154.184C147.516 154.36 147.344 154.52 147.136 154.664C146.928 154.8 146.68 154.912 146.392 155C146.104 155.08 145.772 155.12 145.396 155.12ZM152.415 155C152.335 155 152.267 154.976 152.211 154.928C152.163 154.872 152.139 154.804 152.139 154.724V154.34C152.139 154.268 152.159 154.188 152.199 154.1C152.239 154.012 152.319 153.916 152.439 153.812L154.983 151.268C155.391 150.924 155.711 150.632 155.943 150.392C156.183 150.144 156.351 149.908 156.447 149.684C156.551 149.46 156.603 149.228 156.603 148.988C156.603 148.532 156.475 148.172 156.219 147.908C155.963 147.636 155.583 147.5 155.079 147.5C154.759 147.5 154.483 147.568 154.251 147.704C154.019 147.832 153.839 148.012 153.711 148.244C153.583 148.468 153.495 148.724 153.447 149.012C153.431 149.116 153.387 149.188 153.315 149.228C153.251 149.268 153.191 149.288 153.135 149.288H152.511C152.439 149.288 152.379 149.268 152.331 149.228C152.283 149.18 152.259 149.124 152.259 149.06C152.267 148.756 152.331 148.452 152.451 148.148C152.571 147.836 152.747 147.556 152.979 147.308C153.219 147.052 153.511 146.848 153.855 146.696C154.207 146.544 154.615 146.468 155.079 146.468C155.711 146.468 156.227 146.584 156.627 146.816C157.035 147.04 157.335 147.34 157.527 147.716C157.719 148.092 157.815 148.504 157.815 148.952C157.815 149.304 157.755 149.628 157.635 149.924C157.515 150.212 157.339 150.496 157.107 150.776C156.883 151.048 156.603 151.328 156.267 151.616L153.963 153.956H157.707C157.795 153.956 157.863 153.98 157.911 154.028C157.967 154.076 157.995 154.144 157.995 154.232V154.724C157.995 154.804 157.967 154.872 157.911 154.928C157.863 154.976 157.795 155 157.707 155H152.415ZM163.289 155C163.209 155 163.141 154.976 163.085 154.928C163.037 154.872 163.013 154.804 163.013 154.724V152.996H159.125C159.045 152.996 158.977 152.972 158.921 152.924C158.873 152.868 158.849 152.8 158.849 152.72V152.24C158.849 152.208 158.857 152.16 158.873 152.096C158.897 152.024 158.933 151.952 158.981 151.88L162.581 146.804C162.677 146.668 162.825 146.6 163.025 146.6H163.889C163.969 146.6 164.033 146.628 164.081 146.684C164.137 146.732 164.165 146.796 164.165 146.876V151.952H165.245C165.333 151.952 165.401 151.98 165.449 152.036C165.505 152.084 165.533 152.148 165.533 152.228V152.72C165.533 152.8 165.505 152.868 165.449 152.924C165.401 152.972 165.337 152.996 165.257 152.996H164.165V154.724C164.165 154.804 164.137 154.872 164.081 154.928C164.033 154.976 163.969 155 163.889 155H163.289ZM160.133 151.976H163.025V147.86L160.133 151.976Z" fill="#F4F9FF" fillOpacity="0.3"/>
  <path d="M179.54 155.12C179.132 155.12 178.744 155.068 178.376 154.964C178.016 154.86 177.692 154.704 177.404 154.496C177.124 154.288 176.9 154.024 176.732 153.704C176.564 153.384 176.472 153.008 176.456 152.576C176.456 152.504 176.48 152.444 176.528 152.396C176.576 152.34 176.64 152.312 176.72 152.312H177.368C177.456 152.312 177.524 152.34 177.572 152.396C177.628 152.444 177.664 152.508 177.68 152.588C177.712 152.948 177.816 153.24 177.992 153.464C178.168 153.68 178.392 153.84 178.664 153.944C178.936 154.048 179.236 154.1 179.564 154.1C180.172 154.1 180.636 153.9 180.956 153.5C181.276 153.1 181.436 152.568 181.436 151.904V147.644H177.176C177.096 147.644 177.028 147.62 176.972 147.572C176.924 147.516 176.9 147.448 176.9 147.368V146.876C176.9 146.796 176.924 146.732 176.972 146.684C177.028 146.628 177.096 146.6 177.176 146.6H182.348C182.436 146.6 182.504 146.628 182.552 146.684C182.608 146.732 182.636 146.8 182.636 146.888V151.928C182.636 152.576 182.512 153.14 182.264 153.62C182.016 154.1 181.664 154.472 181.208 154.736C180.752 154.992 180.196 155.12 179.54 155.12ZM186.187 155.12C185.787 155.12 185.423 155.04 185.095 154.88C184.767 154.72 184.503 154.504 184.303 154.232C184.103 153.96 184.003 153.652 184.003 153.308C184.003 152.756 184.227 152.316 184.675 151.988C185.123 151.66 185.707 151.444 186.427 151.34L188.215 151.088V150.74C188.215 150.356 188.103 150.056 187.879 149.84C187.663 149.624 187.307 149.516 186.811 149.516C186.459 149.516 186.171 149.588 185.947 149.732C185.723 149.876 185.567 150.06 185.479 150.284C185.431 150.404 185.347 150.464 185.227 150.464H184.687C184.599 150.464 184.531 150.44 184.483 150.392C184.443 150.336 184.423 150.272 184.423 150.2C184.423 150.08 184.467 149.932 184.555 149.756C184.651 149.58 184.795 149.408 184.987 149.24C185.179 149.072 185.423 148.932 185.719 148.82C186.023 148.7 186.391 148.64 186.823 148.64C187.303 148.64 187.707 148.704 188.035 148.832C188.363 148.952 188.619 149.116 188.803 149.324C188.995 149.532 189.131 149.768 189.211 150.032C189.299 150.296 189.343 150.564 189.343 150.836V154.724C189.343 154.804 189.315 154.872 189.259 154.928C189.211 154.976 189.147 155 189.067 155H188.515C188.427 155 188.359 154.976 188.311 154.928C188.263 154.872 188.239 154.804 188.239 154.724V154.208C188.135 154.352 187.995 154.496 187.819 154.64C187.643 154.776 187.423 154.892 187.159 154.988C186.895 155.076 186.571 155.12 186.187 155.12ZM186.439 154.22C186.767 154.22 187.067 154.152 187.339 154.016C187.611 153.872 187.823 153.652 187.975 153.356C188.135 153.06 188.215 152.688 188.215 152.24V151.904L186.823 152.108C186.255 152.188 185.827 152.324 185.539 152.516C185.251 152.7 185.107 152.936 185.107 153.224C185.107 153.448 185.171 153.636 185.299 153.788C185.435 153.932 185.603 154.04 185.803 154.112C186.011 154.184 186.223 154.22 186.439 154.22ZM191.344 155C191.264 155 191.196 154.976 191.14 154.928C191.092 154.872 191.068 154.804 191.068 154.724V149.036C191.068 148.956 191.092 148.892 191.14 148.844C191.196 148.788 191.264 148.76 191.344 148.76H191.908C191.988 148.76 192.052 148.788 192.1 148.844C192.156 148.892 192.184 148.956 192.184 149.036V149.564C192.392 149.292 192.652 149.072 192.964 148.904C193.284 148.728 193.692 148.64 194.188 148.64C194.708 148.64 195.148 148.756 195.508 148.988C195.876 149.212 196.152 149.528 196.336 149.936C196.528 150.336 196.624 150.804 196.624 151.34V154.724C196.624 154.804 196.596 154.872 196.54 154.928C196.492 154.976 196.428 155 196.348 155H195.748C195.668 155 195.6 154.976 195.544 154.928C195.496 154.872 195.472 154.804 195.472 154.724V151.4C195.472 150.84 195.336 150.404 195.064 150.092C194.792 149.772 194.392 149.612 193.864 149.612C193.368 149.612 192.968 149.772 192.664 150.092C192.368 150.404 192.22 150.84 192.22 151.4V154.724C192.22 154.804 192.192 154.872 192.136 154.928C192.088 154.976 192.024 155 191.944 155H191.344ZM201.262 155C201.182 155 201.114 154.976 201.058 154.928C201.01 154.872 200.986 154.804 200.986 154.724V154.34C200.986 154.268 201.006 154.188 201.046 154.1C201.086 154.012 201.166 153.916 201.286 153.812L203.83 151.268C204.238 150.924 204.558 150.632 204.79 150.392C205.03 150.144 205.198 149.908 205.294 149.684C205.398 149.46 205.45 149.228 205.45 148.988C205.45 148.532 205.322 148.172 205.066 147.908C204.81 147.636 204.43 147.5 203.926 147.5C203.606 147.5 203.33 147.568 203.098 147.704C202.866 147.832 202.686 148.012 202.558 148.244C202.43 148.468 202.342 148.724 202.294 149.012C202.278 149.116 202.234 149.188 202.162 149.228C202.098 149.268 202.038 149.288 201.982 149.288H201.358C201.286 149.288 201.226 149.268 201.178 149.228C201.13 149.18 201.106 149.124 201.106 149.06C201.114 148.756 201.178 148.452 201.298 148.148C201.418 147.836 201.594 147.556 201.826 147.308C202.066 147.052 202.358 146.848 202.702 146.696C203.054 146.544 203.462 146.468 203.926 146.468C204.558 146.468 205.074 146.584 205.474 146.816C205.882 147.04 206.182 147.34 206.374 147.716C206.566 148.092 206.662 148.504 206.662 148.952C206.662 149.304 206.602 149.628 206.482 149.924C206.362 150.212 206.186 150.496 205.954 150.776C205.73 151.048 205.45 151.328 205.114 151.616L202.81 153.956H206.554C206.642 153.956 206.71 153.98 206.758 154.028C206.814 154.076 206.842 154.144 206.842 154.232V154.724C206.842 154.804 206.814 154.872 206.758 154.928C206.71 154.976 206.642 155 206.554 155H201.262ZM212.136 155C212.056 155 211.988 154.976 211.932 154.928C211.884 154.872 211.86 154.804 211.86 154.724V152.996H207.972C207.892 152.996 207.824 152.972 207.768 152.924C207.72 152.868 207.696 152.8 207.696 152.72V152.24C207.696 152.208 207.704 152.16 207.72 152.096C207.744 152.024 207.78 151.952 207.828 151.88L211.428 146.804C211.524 146.668 211.672 146.6 211.872 146.6H212.736C212.816 146.6 212.88 146.628 212.928 146.684C212.984 146.732 213.012 146.796 213.012 146.876V151.952H214.092C214.18 151.952 214.248 151.98 214.296 152.036C214.352 152.084 214.38 152.148 214.38 152.228V152.72C214.38 152.8 214.352 152.868 214.296 152.924C214.248 152.972 214.184 152.996 214.104 152.996H213.012V154.724C213.012 154.804 212.984 154.872 212.928 154.928C212.88 154.976 212.816 155 212.736 155H212.136ZM208.98 151.976H211.872V147.86L208.98 151.976Z" fill="#F4F9FF" fillOpacity="0.3"/>
  <path d="M226.32 155C226.232 155 226.164 154.976 226.116 154.928C226.068 154.872 226.044 154.804 226.044 154.724V146.888C226.044 146.8 226.068 146.732 226.116 146.684C226.164 146.628 226.232 146.6 226.32 146.6H231.216C231.304 146.6 231.372 146.628 231.42 146.684C231.476 146.732 231.504 146.8 231.504 146.888V147.368C231.504 147.456 231.476 147.524 231.42 147.572C231.372 147.62 231.304 147.644 231.216 147.644H227.208V150.44H230.976C231.064 150.44 231.132 150.468 231.18 150.524C231.236 150.572 231.264 150.64 231.264 150.728V151.208C231.264 151.288 231.236 151.356 231.18 151.412C231.132 151.46 231.064 151.484 230.976 151.484H227.208V154.724C227.208 154.804 227.18 154.872 227.124 154.928C227.076 154.976 227.008 155 226.92 155H226.32ZM235.263 155.12C234.431 155.12 233.771 154.868 233.283 154.364C232.795 153.852 232.527 153.156 232.479 152.276C232.471 152.172 232.467 152.04 232.467 151.88C232.467 151.712 232.471 151.576 232.479 151.472C232.511 150.904 232.643 150.408 232.875 149.984C233.107 149.552 233.423 149.22 233.823 148.988C234.231 148.756 234.707 148.64 235.251 148.64C235.859 148.64 236.367 148.768 236.775 149.024C237.191 149.28 237.507 149.644 237.723 150.116C237.939 150.588 238.047 151.14 238.047 151.772V151.976C238.047 152.064 238.019 152.132 237.963 152.18C237.915 152.228 237.851 152.252 237.771 152.252H233.619C233.619 152.26 233.619 152.276 233.619 152.3C233.619 152.324 233.619 152.344 233.619 152.36C233.635 152.688 233.707 152.996 233.835 153.284C233.963 153.564 234.147 153.792 234.387 153.968C234.635 154.144 234.923 154.232 235.251 154.232C235.539 154.232 235.779 154.188 235.971 154.1C236.163 154.012 236.319 153.916 236.439 153.812C236.559 153.7 236.639 153.612 236.679 153.548C236.751 153.452 236.807 153.396 236.847 153.38C236.887 153.356 236.951 153.344 237.039 153.344H237.627C237.699 153.344 237.759 153.368 237.807 153.416C237.863 153.456 237.887 153.516 237.879 153.596C237.871 153.716 237.807 153.864 237.687 154.04C237.567 154.208 237.395 154.376 237.171 154.544C236.955 154.712 236.683 154.852 236.355 154.964C236.035 155.068 235.671 155.12 235.263 155.12ZM233.619 151.424H236.907V151.388C236.907 151.028 236.839 150.708 236.703 150.428C236.575 150.148 236.387 149.928 236.139 149.768C235.891 149.6 235.595 149.516 235.251 149.516C234.907 149.516 234.611 149.6 234.363 149.768C234.123 149.928 233.939 150.148 233.811 150.428C233.683 150.708 233.619 151.028 233.619 151.388V151.424ZM242.566 155.12C242.086 155.12 241.686 155.036 241.366 154.868C241.046 154.692 240.79 154.476 240.598 154.22V154.724C240.598 154.804 240.57 154.872 240.514 154.928C240.466 154.976 240.402 155 240.322 155H239.77C239.69 155 239.622 154.976 239.566 154.928C239.518 154.872 239.494 154.804 239.494 154.724V146.756C239.494 146.676 239.518 146.612 239.566 146.564C239.622 146.508 239.69 146.48 239.77 146.48H240.358C240.438 146.48 240.502 146.508 240.55 146.564C240.598 146.612 240.622 146.676 240.622 146.756V149.516C240.822 149.268 241.078 149.06 241.39 148.892C241.71 148.724 242.102 148.64 242.566 148.64C243.014 148.64 243.394 148.72 243.706 148.88C244.026 149.032 244.286 149.244 244.486 149.516C244.694 149.788 244.85 150.096 244.954 150.44C245.058 150.784 245.118 151.144 245.134 151.52C245.142 151.648 245.146 151.768 245.146 151.88C245.146 151.992 245.142 152.112 245.134 152.24C245.118 152.624 245.058 152.988 244.954 153.332C244.85 153.676 244.694 153.984 244.486 154.256C244.286 154.52 244.026 154.732 243.706 154.892C243.394 155.044 243.014 155.12 242.566 155.12ZM242.314 154.148C242.73 154.148 243.054 154.06 243.286 153.884C243.526 153.7 243.698 153.464 243.802 153.176C243.906 152.88 243.966 152.564 243.982 152.228C243.99 151.996 243.99 151.764 243.982 151.532C243.966 151.196 243.906 150.884 243.802 150.596C243.698 150.3 243.526 150.064 243.286 149.888C243.054 149.704 242.73 149.612 242.314 149.612C241.938 149.612 241.626 149.7 241.378 149.876C241.13 150.052 240.942 150.276 240.814 150.548C240.694 150.82 240.63 151.096 240.622 151.376C240.614 151.504 240.61 151.66 240.61 151.844C240.61 152.02 240.614 152.172 240.622 152.3C240.638 152.596 240.702 152.888 240.814 153.176C240.934 153.456 241.114 153.688 241.354 153.872C241.602 154.056 241.922 154.148 242.314 154.148ZM249.536 155C249.456 155 249.388 154.976 249.332 154.928C249.284 154.872 249.26 154.804 249.26 154.724V154.34C249.26 154.268 249.28 154.188 249.32 154.1C249.36 154.012 249.44 153.916 249.56 153.812L252.104 151.268C252.512 150.924 252.832 150.632 253.064 150.392C253.304 150.144 253.472 149.908 253.568 149.684C253.672 149.46 253.724 149.228 253.724 148.988C253.724 148.532 253.596 148.172 253.34 147.908C253.084 147.636 252.704 147.5 252.2 147.5C251.88 147.5 251.604 147.568 251.372 147.704C251.14 147.832 250.96 148.012 250.832 148.244C250.704 148.468 250.616 148.724 250.568 149.012C250.552 149.116 250.508 149.188 250.436 149.228C250.372 149.268 250.312 149.288 250.256 149.288H249.632C249.56 149.288 249.5 149.268 249.452 149.228C249.404 149.18 249.38 149.124 249.38 149.06C249.388 148.756 249.452 148.452 249.572 148.148C249.692 147.836 249.868 147.556 250.1 147.308C250.34 147.052 250.632 146.848 250.976 146.696C251.328 146.544 251.736 146.468 252.2 146.468C252.832 146.468 253.348 146.584 253.748 146.816C254.156 147.04 254.456 147.34 254.648 147.716C254.84 148.092 254.936 148.504 254.936 148.952C254.936 149.304 254.876 149.628 254.756 149.924C254.636 150.212 254.46 150.496 254.228 150.776C254.004 151.048 253.724 151.328 253.388 151.616L251.084 153.956H254.828C254.916 153.956 254.984 153.98 255.032 154.028C255.088 154.076 255.116 154.144 255.116 154.232V154.724C255.116 154.804 255.088 154.872 255.032 154.928C254.984 154.976 254.916 155 254.828 155H249.536ZM260.41 155C260.33 155 260.262 154.976 260.206 154.928C260.158 154.872 260.134 154.804 260.134 154.724V152.996H256.246C256.166 152.996 256.098 152.972 256.042 152.924C255.994 152.868 255.97 152.8 255.97 152.72V152.24C255.97 152.208 255.978 152.16 255.994 152.096C256.018 152.024 256.054 151.952 256.102 151.88L259.702 146.804C259.798 146.668 259.946 146.6 260.146 146.6H261.01C261.09 146.6 261.154 146.628 261.202 146.684C261.258 146.732 261.286 146.796 261.286 146.876V151.952H262.366C262.454 151.952 262.522 151.98 262.57 152.036C262.626 152.084 262.654 152.148 262.654 152.228V152.72C262.654 152.8 262.626 152.868 262.57 152.924C262.522 152.972 262.458 152.996 262.378 152.996H261.286V154.724C261.286 154.804 261.258 154.872 261.202 154.928C261.154 154.976 261.09 155 261.01 155H260.41ZM257.254 151.976H260.146V147.86L257.254 151.976Z" fill="#F4F9FF" fillOpacity="0.3"/>
  <path d="M275.32 155C275.24 155 275.172 154.976 275.116 154.928C275.068 154.872 275.044 154.804 275.044 154.724V146.888C275.044 146.8 275.068 146.732 275.116 146.684C275.172 146.628 275.24 146.6 275.32 146.6H275.92C276.016 146.6 276.088 146.624 276.136 146.672C276.184 146.72 276.216 146.76 276.232 146.792L278.764 151.64L281.32 146.792C281.336 146.76 281.364 146.72 281.404 146.672C281.452 146.624 281.524 146.6 281.62 146.6H282.208C282.296 146.6 282.364 146.628 282.412 146.684C282.468 146.732 282.496 146.8 282.496 146.888V154.724C282.496 154.804 282.468 154.872 282.412 154.928C282.364 154.976 282.296 155 282.208 155H281.62C281.54 155 281.472 154.976 281.416 154.928C281.368 154.872 281.344 154.804 281.344 154.724V148.82L279.34 152.732C279.308 152.812 279.26 152.876 279.196 152.924C279.132 152.964 279.052 152.984 278.956 152.984H278.584C278.48 152.984 278.4 152.964 278.344 152.924C278.288 152.876 278.24 152.812 278.2 152.732L276.184 148.82V154.724C276.184 154.804 276.156 154.872 276.1 154.928C276.052 154.976 275.988 155 275.908 155H275.32ZM286.155 155.12C285.755 155.12 285.391 155.04 285.063 154.88C284.735 154.72 284.471 154.504 284.271 154.232C284.071 153.96 283.971 153.652 283.971 153.308C283.971 152.756 284.195 152.316 284.643 151.988C285.091 151.66 285.675 151.444 286.395 151.34L288.183 151.088V150.74C288.183 150.356 288.071 150.056 287.847 149.84C287.631 149.624 287.275 149.516 286.779 149.516C286.427 149.516 286.139 149.588 285.915 149.732C285.691 149.876 285.535 150.06 285.447 150.284C285.399 150.404 285.315 150.464 285.195 150.464H284.655C284.567 150.464 284.499 150.44 284.451 150.392C284.411 150.336 284.391 150.272 284.391 150.2C284.391 150.08 284.435 149.932 284.523 149.756C284.619 149.58 284.763 149.408 284.955 149.24C285.147 149.072 285.391 148.932 285.687 148.82C285.991 148.7 286.359 148.64 286.791 148.64C287.271 148.64 287.675 148.704 288.003 148.832C288.331 148.952 288.587 149.116 288.771 149.324C288.963 149.532 289.099 149.768 289.179 150.032C289.267 150.296 289.311 150.564 289.311 150.836V154.724C289.311 154.804 289.283 154.872 289.227 154.928C289.179 154.976 289.115 155 289.035 155H288.483C288.395 155 288.327 154.976 288.279 154.928C288.231 154.872 288.207 154.804 288.207 154.724V154.208C288.103 154.352 287.963 154.496 287.787 154.64C287.611 154.776 287.391 154.892 287.127 154.988C286.863 155.076 286.539 155.12 286.155 155.12ZM286.407 154.22C286.735 154.22 287.035 154.152 287.307 154.016C287.579 153.872 287.791 153.652 287.943 153.356C288.103 153.06 288.183 152.688 288.183 152.24V151.904L286.791 152.108C286.223 152.188 285.795 152.324 285.507 152.516C285.219 152.7 285.075 152.936 285.075 153.224C285.075 153.448 285.139 153.636 285.267 153.788C285.403 153.932 285.571 154.04 285.771 154.112C285.979 154.184 286.191 154.22 286.407 154.22ZM291.312 155C291.232 155 291.164 154.976 291.108 154.928C291.06 154.872 291.036 154.804 291.036 154.724V149.048C291.036 148.968 291.06 148.9 291.108 148.844C291.164 148.788 291.232 148.76 291.312 148.76H291.864C291.944 148.76 292.012 148.788 292.068 148.844C292.124 148.9 292.152 148.968 292.152 149.048V149.576C292.312 149.304 292.532 149.1 292.812 148.964C293.092 148.828 293.432 148.76 293.832 148.76H294.3C294.38 148.76 294.444 148.788 294.492 148.844C294.548 148.892 294.576 148.956 294.576 149.036V149.528C294.576 149.608 294.548 149.672 294.492 149.72C294.444 149.768 294.38 149.792 294.3 149.792H293.58C293.148 149.792 292.808 149.92 292.56 150.176C292.312 150.424 292.188 150.764 292.188 151.196V154.724C292.188 154.804 292.16 154.872 292.104 154.928C292.048 154.976 291.98 155 291.9 155H291.312ZM298.231 155C298.151 155 298.083 154.976 298.027 154.928C297.979 154.872 297.955 154.804 297.955 154.724V154.34C297.955 154.268 297.975 154.188 298.015 154.1C298.055 154.012 298.135 153.916 298.255 153.812L300.799 151.268C301.207 150.924 301.527 150.632 301.759 150.392C301.999 150.144 302.167 149.908 302.263 149.684C302.367 149.46 302.419 149.228 302.419 148.988C302.419 148.532 302.291 148.172 302.035 147.908C301.779 147.636 301.399 147.5 300.895 147.5C300.575 147.5 300.299 147.568 300.067 147.704C299.835 147.832 299.655 148.012 299.527 148.244C299.399 148.468 299.311 148.724 299.263 149.012C299.247 149.116 299.203 149.188 299.131 149.228C299.067 149.268 299.007 149.288 298.951 149.288H298.327C298.255 149.288 298.195 149.268 298.147 149.228C298.099 149.18 298.075 149.124 298.075 149.06C298.083 148.756 298.147 148.452 298.267 148.148C298.387 147.836 298.563 147.556 298.795 147.308C299.035 147.052 299.327 146.848 299.671 146.696C300.023 146.544 300.431 146.468 300.895 146.468C301.527 146.468 302.043 146.584 302.443 146.816C302.851 147.04 303.151 147.34 303.343 147.716C303.535 148.092 303.631 148.504 303.631 148.952C303.631 149.304 303.571 149.628 303.451 149.924C303.331 150.212 303.155 150.496 302.923 150.776C302.699 151.048 302.419 151.328 302.083 151.616L299.779 153.956H303.523C303.611 153.956 303.679 153.98 303.727 154.028C303.783 154.076 303.811 154.144 303.811 154.232V154.724C303.811 154.804 303.783 154.872 303.727 154.928C303.679 154.976 303.611 155 303.523 155H298.231ZM309.105 155C309.025 155 308.957 154.976 308.901 154.928C308.853 154.872 308.829 154.804 308.829 154.724V152.996H304.941C304.861 152.996 304.793 152.972 304.737 152.924C304.689 152.868 304.665 152.8 304.665 152.72V152.24C304.665 152.208 304.673 152.16 304.689 152.096C304.713 152.024 304.749 151.952 304.797 151.88L308.397 146.804C308.493 146.668 308.641 146.6 308.841 146.6H309.705C309.785 146.6 309.849 146.628 309.897 146.684C309.953 146.732 309.981 146.796 309.981 146.876V151.952H311.061C311.149 151.952 311.217 151.98 311.265 152.036C311.321 152.084 311.349 152.148 311.349 152.228V152.72C311.349 152.8 311.321 152.868 311.265 152.924C311.217 152.972 311.153 152.996 311.073 152.996H309.981V154.724C309.981 154.804 309.953 154.872 309.897 154.928C309.849 154.976 309.785 155 309.705 155H309.105ZM305.949 151.976H308.841V147.86L305.949 151.976Z" fill="#F4F9FF" fillOpacity="0.3"/>
  <path d="M48.7101 87.5L31 98.5V134H308.458V68.5H278.941L261.231 76.5L225.811 92L208.691 82L190.391 76.5L172.681 118L154.971 109.5L137.851 98.5H119.55L101.84 80H66.4202L48.7101 87.5Z" fill="url(#paint0_linear_238_23758)"/>
  <path d="M31 98.5L48.7101 87.5L66.4202 80H84.1303H101.84L119.55 98.5H137.851L154.971 109.5L172.681 118L190.391 76.5L208.691 82L225.811 92L261.231 76.5L278.941 68.5H296.651H308.458" stroke="#FF33A6" strokeWidth="2" stroke-miterlimit="1.58611" stroke-linecap="round" stroke-linejoin="round"/>
  <circle cx="308.162" cy="68.8379" r="2.8379" fill="#0F0F10" stroke="#FF33A6" strokeWidth="2"/>
  <defs>
    <linearGradient id="paint0_linear_238_23758" x1="169.729" y1="68.5" x2="169.729" y2="134" gradientUnits="userSpaceOnUse">
      <stop stop-color="#FF33A6" stop-opacity="0.2"/>
      <stop offset="1" stop-color="#FF33A6" stop-opacity="0"/>
    </linearGradient>
  </defs>
</svg>
