<svg width="12" height="12" viewBox="0 0 12 12" fill="none" xmlns="http://www.w3.org/2000/svg">
<path d="M5.44444 6.55556V8.77778M7.66667 2.11111V4.33333M1 1V9.88889C1 10.1836 1.11706 10.4662 1.32544 10.6746C1.53381 10.8829 1.81643 11 2.11111 11H11M3.77778 6.55556H7.66667C7.97349 6.55556 8.22222 6.80429 8.22222 7.11111V8.22222C8.22222 8.52905 7.97349 8.77778 7.66667 8.77778H3.77778C3.47095 8.77778 3.22222 8.52905 3.22222 8.22222V7.11111C3.22222 6.80429 3.47095 6.55556 3.77778 6.55556ZM3.77778 2.11111H9.33333C9.64016 2.11111 9.88889 2.35984 9.88889 2.66667V3.77778C9.88889 4.0846 9.64016 4.33333 9.33333 4.33333H3.77778C3.47095 4.33333 3.22222 4.0846 3.22222 3.77778V2.66667C3.22222 2.35984 3.47095 2.11111 3.77778 2.11111Z" stroke="#030303" stroke-linecap="round" stroke-linejoin="round"/>
</svg>
