<svg width="25" height="27" viewBox="0 0 25 27" fill="none" xmlns="http://www.w3.org/2000/svg">
<path d="M12.547 1H11.997C11.3339 1 10.698 1.26339 10.2292 1.73223C9.76037 2.20107 9.49697 2.83696 9.49697 3.5V3.725C9.49653 4.16341 9.3808 4.59399 9.1614 4.97355C8.942 5.35311 8.62665 5.6683 8.24697 5.8875L7.70948 6.2C7.32943 6.41942 6.89832 6.53494 6.45947 6.53494C6.02063 6.53494 5.58952 6.41942 5.20947 6.2L5.02197 6.1C4.44831 5.76908 3.76677 5.6793 3.12698 5.85039C2.48718 6.02147 1.94141 6.43942 1.60948 7.0125L1.33448 7.4875C1.00355 8.06117 0.91378 8.7427 1.08486 9.3825C1.25594 10.0223 1.67389 10.5681 2.24698 10.9L2.43448 11.025C2.81232 11.2431 3.1265 11.5564 3.34579 11.9335C3.56508 12.3107 3.68184 12.7387 3.68448 13.175V13.8125C3.68622 14.253 3.57154 14.6862 3.35203 15.0681C3.13252 15.4501 2.81599 15.7672 2.43448 15.9875L2.24698 16.1C1.67389 16.4319 1.25594 16.9777 1.08486 17.6175C0.91378 18.2573 1.00355 18.9388 1.33448 19.5125L1.60948 19.9875C1.94141 20.5606 2.48718 20.9785 3.12698 21.1496C3.76677 21.3207 4.44831 21.2309 5.02197 20.9L5.20947 20.8C5.58952 20.5806 6.02063 20.4651 6.45947 20.4651C6.89832 20.4651 7.32943 20.5806 7.70948 20.8L8.24697 21.1125C8.62665 21.3317 8.942 21.6469 9.1614 22.0265C9.3808 22.406 9.49653 22.8366 9.49697 23.275V23.5C9.49697 24.163 9.76037 24.7989 10.2292 25.2678C10.698 25.7366 11.3339 26 11.997 26H12.547C13.21 26 13.8459 25.7366 14.3147 25.2678C14.7836 24.7989 15.047 24.163 15.047 23.5V23.275C15.0474 22.8366 15.1632 22.406 15.3826 22.0265C15.602 21.6469 15.9173 21.3317 16.297 21.1125L16.8345 20.8C17.2145 20.5806 17.6456 20.4651 18.0845 20.4651C18.5233 20.4651 18.9544 20.5806 19.3345 20.8L19.522 20.9C20.0956 21.2309 20.7772 21.3207 21.417 21.1496C22.0568 20.9785 22.6025 20.5606 22.9345 19.9875L23.2095 19.5C23.5404 18.9263 23.6302 18.2448 23.4591 17.605C23.288 16.9652 22.8701 16.4194 22.297 16.0875L22.1095 15.9875C21.728 15.7672 21.4114 15.4501 21.1919 15.0681C20.9724 14.6862 20.8577 14.253 20.8595 13.8125V13.1875C20.8577 12.747 20.9724 12.3138 21.1919 11.9319C21.4114 11.5499 21.728 11.2328 22.1095 11.0125L22.297 10.9C22.8701 10.5681 23.288 10.0223 23.4591 9.3825C23.6302 8.7427 23.5404 8.06117 23.2095 7.4875L22.9345 7.0125C22.6025 6.43942 22.0568 6.02147 21.417 5.85039C20.7772 5.6793 20.0956 5.76908 19.522 6.1L19.3345 6.2C18.9544 6.41942 18.5233 6.53494 18.0845 6.53494C17.6456 6.53494 17.2145 6.41942 16.8345 6.2L16.297 5.8875C15.9173 5.6683 15.602 5.35311 15.3826 4.97355C15.1632 4.59399 15.0474 4.16341 15.047 3.725V3.5C15.047 2.83696 14.7836 2.20107 14.3147 1.73223C13.8459 1.26339 13.21 1 12.547 1Z" stroke="#F4F9FF" stroke-linecap="round" stroke-linejoin="round"/>
</svg>
