<svg width="27" height="27" viewBox="0 0 27 27" fill="none" xmlns="http://www.w3.org/2000/svg">
<path d="M10.9193 17.8753C10.8077 17.4427 10.5823 17.0479 10.2664 16.732C9.95046 16.4161 9.55568 16.1907 9.12309 16.0791L1.45434 14.1016C1.32351 14.0644 1.20836 13.9856 1.12636 13.8771C1.04436 13.7686 1 13.6363 1 13.5003C1 13.3643 1.04436 13.232 1.12636 13.1235C1.20836 13.015 1.32351 12.9362 1.45434 12.8991L9.12309 10.9203C9.55553 10.8088 9.95021 10.5835 10.2661 10.2679C10.582 9.95219 10.8076 9.55767 10.9193 9.12531L12.8968 1.45656C12.9336 1.32521 13.0123 1.20949 13.121 1.12705C13.2297 1.04462 13.3623 1 13.4987 1C13.6351 1 13.7678 1.04462 13.8764 1.12705C13.9851 1.20949 14.0638 1.32521 14.1006 1.45656L16.0768 9.12531C16.1884 9.5579 16.4139 9.95268 16.7298 10.2686C17.0457 10.5845 17.4405 10.81 17.8731 10.9216L25.5418 12.8978C25.6737 12.9342 25.79 13.0128 25.8729 13.1217C25.9558 13.2305 26.0007 13.3635 26.0007 13.5003C26.0007 13.6371 25.9558 13.7701 25.8729 13.879C25.79 13.9878 25.6737 14.0664 25.5418 14.1028L17.8731 16.0791C17.4405 16.1907 17.0457 16.4161 16.7298 16.732C16.4139 17.0479 16.1884 17.4427 16.0768 17.8753L14.0993 25.5441C14.0626 25.6754 13.9839 25.7911 13.8752 25.8736C13.7665 25.956 13.6339 26.0006 13.4975 26.0006C13.3611 26.0006 13.2284 25.956 13.1197 25.8736C13.0111 25.7911 12.9324 25.6754 12.8956 25.5441L10.9193 17.8753Z" stroke="#F3F9FF" stroke-linecap="round" stroke-linejoin="round"/>
</svg>
