<?xml version="1.0" encoding="UTF-8"?>
<svg version="1.1" xmlns="http://www.w3.org/2000/svg" width="131" height="158">
<path d="M0 0 C43.23 0 86.46 0 131 0 C131 52.14 131 104.28 131 158 C87.77 158 44.54 158 0 158 C0 105.86 0 53.72 0 0 Z " fill="#f4f9ff" transform="translate(0,0)"/>
<path d="M0 0 C43.23 0 86.46 0 131 0 C131 52.14 131 104.28 131 158 C87.77 158 44.54 158 0 158 C0 105.86 0 53.72 0 0 Z M55 6 C53.78306124 8.43387753 53.68040104 10.41838846 53.4375 13.125 C53.35371094 14.03507813 53.26992188 14.94515625 53.18359375 15.8828125 C53.09271484 16.93082031 53.09271484 16.93082031 53 18 C51.98292969 18.29390625 51.98292969 18.29390625 50.9453125 18.59375 C38.1792252 22.69587223 28.98710147 31.18233407 22.75 43 C18.88803873 51.61772604 17.65384274 58.46344569 18.015625 67.9453125 C18.0518335 70.26296659 18.08426554 72.5806822 18.11328125 74.8984375 C18.17055626 78.50823175 18.24945208 82.11132989 18.39404297 85.71875 C19.19442292 107.10912418 19.19442292 107.10912418 13.57617188 113.70605469 C10.45048395 116.86581659 7.06378267 119.57704615 3.3571167 122.02780151 C1.14968342 124.83669956 1.14968342 124.83669956 2 133 C44.24 133 86.48 133 130 133 C130.84971023 124.83624823 130.84971023 124.83624823 128.64089966 122.02284241 C127.70901321 121.40450783 127.70901321 121.40450783 126.75830078 120.77368164 C126.08612518 120.2638121 125.41394958 119.75394257 124.72140503 119.22862244 C124.01154449 118.69040359 123.30168396 118.15218475 122.5703125 117.59765625 C117.63937503 113.27767994 114.66428589 109.66890825 113.74902344 103.05419922 C113.30134327 96.17420137 113.56698362 89.31826462 113.875 82.4375 C114.01323303 77.76989524 114.10969957 73.10269911 114.1796875 68.43359375 C114.19881699 67.32725082 114.21794647 66.2209079 114.23765564 65.08103943 C114.29221674 50.55313255 109.07058442 39.39967621 98.98828125 28.90625 C93.09667994 23.44291833 86.66408824 20.29922647 79 18 C78.97421875 17.33613281 78.9484375 16.67226563 78.921875 15.98828125 C78.56936159 10.50028833 78.25618982 6.89137355 74 3 C66.80213749 -1.24025024 60.54495793 0.17779417 55 6 Z " fill="#040404" transform="translate(0,0)"/>
<path d="M0 0 C0.61101562 0.41378906 1.22203125 0.82757813 1.8515625 1.25390625 C2.48320313 1.67800781 3.11484375 2.10210937 3.765625 2.5390625 C11.50187927 8.44824395 15.49646266 17.82540183 16.8515625 27.25390625 C16.93283143 29.10130237 16.96951176 30.95111545 16.96508789 32.80029297 C16.96496704 33.87561279 16.96484619 34.95093262 16.96472168 36.05883789 C16.95960571 37.17250732 16.95448975 38.28617676 16.94921875 39.43359375 C16.94821167 40.46943604 16.94720459 41.50527832 16.94616699 42.57250977 C16.9409534 46.42465326 16.92699217 50.27678092 16.9140625 54.12890625 C16.8934375 62.75015625 16.8728125 71.37140625 16.8515625 80.25390625 C-4.2684375 80.25390625 -25.3884375 80.25390625 -47.1484375 80.25390625 C-47.2103125 71.55015625 -47.2721875 62.84640625 -47.3359375 53.87890625 C-47.36324951 51.1507666 -47.39056152 48.42262695 -47.41870117 45.61181641 C-47.42747226 43.42220501 -47.43511472 41.23258868 -47.44140625 39.04296875 C-47.45675415 37.92817139 -47.47210205 36.81337402 -47.48791504 35.66479492 C-47.49175904 24.05335818 -44.65484473 13.46561508 -36.70703125 4.65625 C-35.2734375 3.37890625 -35.2734375 3.37890625 -32.1484375 1.25390625 C-31.63410156 0.86332031 -31.11976562 0.47273438 -30.58984375 0.0703125 C-22.49581082 -5.13943253 -8.32934166 -4.61490551 0 0 Z " fill="#050505" transform="translate(81.1484375,36.74609375)"/>
<path d="M0 0 C64.845 0.495 64.845 0.495 131 1 C131 9.25 131 17.5 131 26 C87.77 26 44.54 26 0 26 C0 17.42 0 8.84 0 0 Z " fill="#050505" transform="translate(0,132)"/>
<path d="M0 0 C10.56 0 21.12 0 32 0 C30.96535307 7.24252851 30.10647717 9.39171572 25 14 C20.9622247 16.44391663 16.61937156 16.57287482 12 16 C6.86289047 14.18690252 4.0308577 11.50298859 1 7 C0.67 4.69 0.34 2.38 0 0 Z " fill="#7A7D80" transform="translate(50,141)"/>
<path d="M0 0 C0 0.99 0 1.98 0 3 C-0.66 3.66 -1.32 4.32 -2 5 C-2 5.99 -2 6.98 -2 8 C-2.97850195 9.02104551 -3.97980427 10.0206121 -5 11 C-5.33 11.99 -5.66 12.98 -6 14 C-6.99 14.495 -6.99 14.495 -8 15 C-8.99 15.66 -9.98 16.32 -11 17 C-9.69933317 13.47761996 -8.16259119 10.48505871 -6.0625 7.375 C-5.55847656 6.61960937 -5.05445313 5.86421875 -4.53515625 5.0859375 C-3.14371097 3.19527139 -1.70925077 1.60210371 0 0 Z " fill="#727578" transform="translate(33,29)"/>
<path d="M0 0 C4.95 0 9.9 0 15 0 C14.34 1.65 13.68 3.3 13 5 C12.154375 4.525625 11.30875 4.05125 10.4375 3.5625 C6.87412671 1.94278487 3.87438575 1.38743857 0 1 C0 0.67 0 0.34 0 0 Z " fill="#121314" transform="translate(63,0)"/>
<path d="M0 0 C0.66 0.99 1.32 1.98 2 3 C1 6 1 6 -1 7 C-1.99 7.66 -2.98 8.32 -4 9 C-2.80100302 5.9168649 -1.52299523 2.93720508 0 0 Z " fill="#6B6D6F" transform="translate(26,37)"/>
<path d="M0 0 C0.99 0.33 1.98 0.66 3 1 C1 4 1 4 -2.125 4.6875 C-3.07375 4.790625 -4.0225 4.89375 -5 5 C-3.35 3.35 -1.7 1.7 0 0 Z " fill="#717273" transform="translate(61,1)"/>
</svg>
