<svg width="20" height="20" viewBox="0 0 20 20" fill="none" xmlns="http://www.w3.org/2000/svg">
<path d="M8.46041 18.1347C8.61645 18.3978 8.84088 18.6162 9.11113 18.7681C9.38138 18.92 9.68794 19 10 19C10.3121 19 10.6186 18.92 10.8889 18.7681C11.1591 18.6162 11.3835 18.3978 11.5396 18.1347M2.23224 12.5322C2.11612 12.6561 2.03949 12.8102 2.01167 12.9757C1.98385 13.1412 2.00603 13.3111 2.07554 13.4645C2.14504 13.618 2.25885 13.7485 2.40314 13.8402C2.54743 13.9318 2.71597 13.9807 2.88826 13.9808H17.1108C17.283 13.9809 17.4516 13.9322 17.596 13.8407C17.7404 13.7492 17.8543 13.6189 17.924 13.4655C17.9937 13.3121 18.0161 13.1423 17.9885 12.9768C17.9609 12.8112 17.8845 12.6571 17.7686 12.533C16.5863 11.3466 15.333 10.0857 15.333 6.19233C15.333 4.81524 14.771 3.49455 13.7708 2.5208C12.7706 1.54705 11.414 1 9.99952 1C8.585 1 7.22842 1.54705 6.2282 2.5208C5.22799 3.49455 4.66607 4.81524 4.66607 6.19233C4.66607 10.0857 3.41182 11.3466 2.23224 12.5322Z" stroke="#F4F9FF" stroke-width="1.75" stroke-linecap="round" stroke-linejoin="round"/>
</svg>
