<svg width="16" height="16" viewBox="0 0 16 16" fill="none" xmlns="http://www.w3.org/2000/svg">
<path d="M8.15308 6.63634V9.5409H12.2718C12.091 10.475 11.5482 11.2659 10.7342 11.7977L13.218 13.6864C14.6651 12.3774 15.5 10.4546 15.5 8.17051C15.5 7.6387 15.4513 7.12729 15.3608 6.63643L8.15308 6.63634Z" fill="#101BC3"/>
<path d="M3.86392 9.42749L3.30374 9.84773L1.32086 11.3613C2.58014 13.8091 5.16112 15.5 8.15276 15.5C10.219 15.5 11.9517 14.8318 13.218 13.6864L10.7342 11.7977C10.0524 12.2477 9.1824 12.5205 8.15276 12.5205C6.16297 12.5205 4.47238 11.2046 3.86705 9.43182L3.86392 9.42749Z" fill="#34A853"/>
<path d="M1.32091 4.63866C0.799135 5.64771 0.5 6.78636 0.5 7.99998C0.5 9.2136 0.79909 10.3523 1.32086 11.3613C1.32086 11.3681 3.86734 9.42495 3.86734 9.42495C3.71428 8.97495 3.62381 8.4977 3.62381 7.99991C3.62381 7.50211 3.71428 7.02487 3.86734 6.57487L1.32091 4.63866Z" fill="#FBBC05"/>
<path d="M8.15292 3.48637C9.28002 3.48637 10.2819 3.86818 11.082 4.60456L13.2735 2.45685C11.9446 1.24323 10.2193 0.5 8.15292 0.5C5.16128 0.5 2.58018 2.18409 1.32091 4.63866L3.86734 6.57487C4.47259 4.80212 6.16313 3.48637 8.15292 3.48637Z" fill="#EA4335"/>
</svg>
