<svg width="33" height="33" viewBox="0 0 33 33" fill="none" xmlns="http://www.w3.org/2000/svg">
<path d="M9 29.493V27C9 26.2044 9.31607 25.4413 9.87868 24.8787C10.4413 24.3161 11.2044 24 12 24H21C21.7957 24 22.5587 24.3161 23.1213 24.8787C23.6839 25.4413 24 26.2044 24 27V29.493M31.5 16.5C31.5 24.7843 24.7843 31.5 16.5 31.5C8.21573 31.5 1.5 24.7843 1.5 16.5C1.5 8.21573 8.21573 1.5 16.5 1.5C24.7843 1.5 31.5 8.21573 31.5 16.5ZM21 13.5C21 15.9853 18.9853 18 16.5 18C14.0147 18 12 15.9853 12 13.5C12 11.0147 14.0147 9 16.5 9C18.9853 9 21 11.0147 21 13.5Z" stroke="#F4F9FF" stroke-opacity="0.4" stroke-width="1.5" stroke-linecap="round" stroke-linejoin="round"/>
</svg>
