<svg width="26" height="23" viewBox="0 0 26 23" fill="none" xmlns="http://www.w3.org/2000/svg">
<path d="M2.07659 18.4075C1.91329 18.5865 1.80553 18.8091 1.76641 19.0481C1.72728 19.2872 1.75849 19.5326 1.85622 19.7542C1.95395 19.9759 2.11401 20.1644 2.31691 20.2968C2.51981 20.4292 2.75681 20.4998 2.99909 20.5H22.9991C23.2413 20.5001 23.4784 20.4298 23.6814 20.2976C23.8844 20.1655 24.0447 19.9772 24.1427 19.7556C24.2407 19.5341 24.2722 19.2889 24.2334 19.0497C24.1946 18.8106 24.0871 18.5879 23.9241 18.4087C22.2616 16.695 20.4991 14.8738 20.4991 9.25C20.4991 7.26088 19.7089 5.35322 18.3024 3.9467C16.8959 2.54018 14.9882 1.75 12.9991 1.75C11.01 1.75 9.10231 2.54018 7.69579 3.9467C6.28926 5.35322 5.49909 7.26088 5.49909 9.25C5.49909 14.8738 3.73534 16.695 2.07659 18.4075Z" stroke="#F4F9FF" stroke-width="1.75" stroke-linecap="round" stroke-linejoin="round"/>
</svg>
