<svg width="28" height="26" viewBox="0 0 28 26" fill="none" xmlns="http://www.w3.org/2000/svg">
<path d="M14 17.75V24M19 15.25V24M24 10.25V24M26.5 1.5L15.6925 12.3075C15.6344 12.3657 15.5655 12.4119 15.4895 12.4434C15.4136 12.4749 15.3322 12.4911 15.25 12.4911C15.1678 12.4911 15.0864 12.4749 15.0105 12.4434C14.9345 12.4119 14.8656 12.3657 14.8075 12.3075L10.6925 8.1925C10.5753 8.07533 10.4164 8.00951 10.2506 8.00951C10.0849 8.00951 9.92595 8.07533 9.80875 8.1925L1.5 16.5M4 20.25V24M9 15.25V24" stroke="#F4F9FF" stroke-opacity="0.4" stroke-width="1.5" stroke-linecap="round" stroke-linejoin="round"/>
</svg>
