<svg width="26" height="27" viewBox="0 0 26 27" fill="none" xmlns="http://www.w3.org/2000/svg">
<path d="M16.6542 25.4853V15.3919C16.6542 15.0572 16.5213 14.7363 16.2847 14.4997C16.0481 14.2631 15.7271 14.1302 15.3925 14.1302H10.3458C10.0112 14.1302 9.69026 14.2631 9.45365 14.4997C9.21704 14.7363 9.08411 15.0572 9.08411 15.3919V25.4853M1.51402 11.6068C1.51393 11.2398 1.59393 10.8771 1.74842 10.5441C1.90292 10.2112 2.1282 9.91591 2.40855 9.67897L11.2403 2.11014C11.6958 1.72521 12.2728 1.51402 12.8692 1.51402C13.4655 1.51402 14.0425 1.72521 14.498 2.11014L23.3298 9.67897C23.6101 9.91591 23.8354 10.2112 23.9899 10.5441C24.1444 10.8771 24.2244 11.2398 24.2243 11.6068V22.962C24.2243 23.6312 23.9584 24.273 23.4852 24.7462C23.012 25.2195 22.3702 25.4853 21.7009 25.4853H4.03738C3.36815 25.4853 2.72632 25.2195 2.25309 24.7462C1.77987 24.273 1.51402 23.6312 1.51402 22.962V11.6068Z" stroke="#F4F9FF" stroke-width="1.5" stroke-linecap="round" stroke-linejoin="round"/>
</svg>
