<svg width="28" height="28" viewBox="0 0 28 28" fill="none" xmlns="http://www.w3.org/2000/svg">
<path d="M17.75 21.5H11.5M21.5 16.5H11.5M4 26.5H24C24.663 26.5 25.2989 26.2366 25.7678 25.7678C26.2366 25.2989 26.5 24.663 26.5 24V4C26.5 3.33696 26.2366 2.70107 25.7678 2.23223C25.2989 1.76339 24.663 1.5 24 1.5H9C8.33696 1.5 7.70107 1.76339 7.23223 2.23223C6.76339 2.70107 6.5 3.33696 6.5 4V24C6.5 24.663 6.23661 25.2989 5.76777 25.7678C5.29893 26.2366 4.66304 26.5 4 26.5ZM4 26.5C3.33696 26.5 2.70107 26.2366 2.23223 25.7678C1.76339 25.2989 1.5 24.663 1.5 24V12.75C1.5 12.087 1.76339 11.4511 2.23223 10.9822C2.70107 10.5134 3.33696 10.25 4 10.25H6.5M12.75 6.5H20.25C20.9404 6.5 21.5 7.05964 21.5 7.75V10.25C21.5 10.9404 20.9404 11.5 20.25 11.5H12.75C12.0596 11.5 11.5 10.9404 11.5 10.25V7.75C11.5 7.05964 12.0596 6.5 12.75 6.5Z" stroke="#F4F9FF" stroke-opacity="0.4" stroke-width="1.5" stroke-linecap="round" stroke-linejoin="round"/>
</svg>
