<svg width="28" height="26" viewBox="0 0 28 26" fill="none" xmlns="http://www.w3.org/2000/svg">
<path d="M19 24V21.5C19 20.1739 18.4732 18.9021 17.5355 17.9645C16.5979 17.0268 15.3261 16.5 14 16.5H6.5C5.17392 16.5 3.90215 17.0268 2.96447 17.9645C2.02678 18.9021 1.5 20.1739 1.5 21.5V24M26.5 24V21.5C26.4992 20.3922 26.1304 19.316 25.4517 18.4404C24.773 17.5648 23.8227 16.9395 22.75 16.6625M19 1.6625C20.0755 1.93788 21.0288 2.56338 21.7095 3.44039C22.3903 4.3174 22.7598 5.39604 22.7598 6.50625C22.7598 7.61646 22.3903 8.6951 21.7095 9.57211C21.0288 10.4491 20.0755 11.0746 19 11.35M15.25 6.5C15.25 9.26142 13.0114 11.5 10.25 11.5C7.48858 11.5 5.25 9.26142 5.25 6.5C5.25 3.73858 7.48858 1.5 10.25 1.5C13.0114 1.5 15.25 3.73858 15.25 6.5Z" stroke="#F4F9FF" stroke-opacity="0.4" stroke-width="1.5" stroke-linecap="round" stroke-linejoin="round"/>
</svg>
