<svg width="510" height="162" viewBox="0 0 510 162" fill="none" xmlns="http://www.w3.org/2000/svg">
<path d="M9.75178 11.87C9.24778 11.87 8.80778 11.81 8.43178 11.69C8.05578 11.562 7.73978 11.394 7.48378 11.186C7.22778 10.978 7.03178 10.75 6.89578 10.502C6.76778 10.254 6.69978 9.998 6.69178 9.734C6.69178 9.662 6.71578 9.606 6.76378 9.566C6.81178 9.526 6.87178 9.506 6.94378 9.506H7.53178C7.60378 9.506 7.66778 9.522 7.72378 9.554C7.77978 9.586 7.82778 9.654 7.86778 9.758C7.94778 10.046 8.08378 10.27 8.27578 10.43C8.47578 10.59 8.70378 10.702 8.95978 10.766C9.22378 10.822 9.48778 10.85 9.75178 10.85C10.3038 10.85 10.7518 10.718 11.0958 10.454C11.4398 10.19 11.6118 9.802 11.6118 9.29C11.6118 8.77 11.4558 8.398 11.1438 8.174C10.8318 7.95 10.3998 7.838 9.84778 7.838H8.70778C8.62778 7.838 8.55978 7.814 8.50378 7.766C8.45578 7.718 8.43178 7.65 8.43178 7.562V7.238C8.43178 7.166 8.44378 7.106 8.46778 7.058C8.49978 7.002 8.53178 6.954 8.56378 6.914L10.8918 4.37H7.35178C7.27178 4.37 7.20378 4.346 7.14778 4.298C7.09978 4.25 7.07578 4.182 7.07578 4.094V3.638C7.07578 3.55 7.09978 3.482 7.14778 3.434C7.20378 3.378 7.27178 3.35 7.35178 3.35H12.1398C12.2278 3.35 12.2958 3.378 12.3438 3.434C12.3998 3.482 12.4278 3.55 12.4278 3.638V4.07C12.4278 4.126 12.4118 4.178 12.3798 4.226C12.3558 4.266 12.3278 4.306 12.2958 4.346L9.97978 6.926L10.1718 6.938C10.6998 6.954 11.1598 7.05 11.5518 7.226C11.9518 7.402 12.2598 7.666 12.4758 8.018C12.6998 8.362 12.8118 8.798 12.8118 9.326C12.8118 9.862 12.6798 10.322 12.4158 10.706C12.1518 11.082 11.7878 11.37 11.3238 11.57C10.8598 11.77 10.3358 11.87 9.75178 11.87ZM17.1868 11.87C16.6348 11.87 16.1668 11.786 15.7828 11.618C15.4068 11.442 15.0988 11.202 14.8588 10.898C14.6188 10.594 14.4428 10.246 14.3308 9.854C14.2268 9.462 14.1668 9.046 14.1508 8.606C14.1428 8.39 14.1348 8.162 14.1268 7.922C14.1268 7.682 14.1268 7.442 14.1268 7.202C14.1348 6.954 14.1428 6.718 14.1508 6.494C14.1588 6.054 14.2188 5.638 14.3308 5.246C14.4508 4.846 14.6268 4.498 14.8588 4.202C15.0988 3.898 15.4108 3.662 15.7948 3.494C16.1788 3.318 16.6428 3.23 17.1868 3.23C17.7388 3.23 18.2028 3.318 18.5788 3.494C18.9628 3.662 19.2748 3.898 19.5148 4.202C19.7548 4.498 19.9308 4.846 20.0428 5.246C20.1628 5.638 20.2268 6.054 20.2348 6.494C20.2428 6.718 20.2468 6.954 20.2468 7.202C20.2548 7.442 20.2548 7.682 20.2468 7.922C20.2468 8.162 20.2428 8.39 20.2348 8.606C20.2268 9.046 20.1628 9.462 20.0428 9.854C19.9308 10.246 19.7548 10.594 19.5148 10.898C19.2828 11.202 18.9748 11.442 18.5908 11.618C18.2148 11.786 17.7468 11.87 17.1868 11.87ZM17.1868 10.85C17.8108 10.85 18.2708 10.646 18.5668 10.238C18.8708 9.822 19.0268 9.258 19.0348 8.546C19.0508 8.314 19.0588 8.09 19.0588 7.874C19.0588 7.65 19.0588 7.43 19.0588 7.214C19.0588 6.99 19.0508 6.77 19.0348 6.554C19.0268 5.858 18.8708 5.302 18.5668 4.886C18.2708 4.462 17.8108 4.25 17.1868 4.25C16.5708 4.25 16.1108 4.462 15.8068 4.886C15.5108 5.302 15.3548 5.858 15.3388 6.554C15.3388 6.77 15.3348 6.99 15.3268 7.214C15.3268 7.43 15.3268 7.65 15.3268 7.874C15.3348 8.09 15.3388 8.314 15.3388 8.546C15.3548 9.258 15.5148 9.822 15.8188 10.238C16.1228 10.646 16.5788 10.85 17.1868 10.85Z" fill="#F4F9FF" fill-opacity="0.3"/>
<path d="M7.20384 35.75C7.12384 35.75 7.05584 35.726 6.99984 35.678C6.95184 35.622 6.92784 35.554 6.92784 35.474V35.09C6.92784 35.018 6.94784 34.938 6.98784 34.85C7.02784 34.762 7.10784 34.666 7.22784 34.562L9.77184 32.018C10.1798 31.674 10.4998 31.382 10.7318 31.142C10.9718 30.894 11.1398 30.658 11.2358 30.434C11.3398 30.21 11.3918 29.978 11.3918 29.738C11.3918 29.282 11.2638 28.922 11.0078 28.658C10.7518 28.386 10.3718 28.25 9.86784 28.25C9.54784 28.25 9.27184 28.318 9.03984 28.454C8.80784 28.582 8.62384 28.762 8.48784 28.994C8.35984 29.218 8.27584 29.474 8.23584 29.762C8.21984 29.866 8.17584 29.938 8.10384 29.978C8.03984 30.018 7.97984 30.038 7.92384 30.038H7.29984C7.22784 30.038 7.16784 30.018 7.11984 29.978C7.07184 29.93 7.04784 29.874 7.04784 29.81C7.05584 29.506 7.11984 29.202 7.23984 28.898C7.35984 28.586 7.53584 28.306 7.76784 28.058C8.00784 27.81 8.29984 27.61 8.64384 27.458C8.99584 27.298 9.40384 27.218 9.86784 27.218C10.4998 27.218 11.0158 27.334 11.4158 27.566C11.8238 27.79 12.1238 28.09 12.3158 28.466C12.5078 28.842 12.6038 29.254 12.6038 29.702C12.6038 30.054 12.5438 30.378 12.4238 30.674C12.3038 30.962 12.1278 31.246 11.8958 31.526C11.6718 31.798 11.3918 32.078 11.0558 32.366L8.75184 34.706H12.4958C12.5838 34.706 12.6518 34.73 12.6998 34.778C12.7558 34.826 12.7838 34.894 12.7838 34.982V35.474C12.7838 35.554 12.7558 35.622 12.6998 35.678C12.6518 35.726 12.5838 35.75 12.4958 35.75H7.20384ZM17.1868 35.87C16.6348 35.87 16.1668 35.786 15.7828 35.618C15.4068 35.442 15.0988 35.202 14.8588 34.898C14.6188 34.594 14.4428 34.246 14.3308 33.854C14.2268 33.462 14.1668 33.046 14.1508 32.606C14.1428 32.39 14.1348 32.162 14.1268 31.922C14.1268 31.682 14.1268 31.442 14.1268 31.202C14.1348 30.954 14.1428 30.718 14.1508 30.494C14.1588 30.054 14.2188 29.638 14.3308 29.246C14.4508 28.846 14.6268 28.498 14.8588 28.202C15.0988 27.898 15.4108 27.662 15.7948 27.494C16.1788 27.318 16.6428 27.23 17.1868 27.23C17.7388 27.23 18.2028 27.318 18.5788 27.494C18.9628 27.662 19.2748 27.898 19.5148 28.202C19.7548 28.498 19.9308 28.846 20.0428 29.246C20.1628 29.638 20.2268 30.054 20.2348 30.494C20.2428 30.718 20.2468 30.954 20.2468 31.202C20.2548 31.442 20.2548 31.682 20.2468 31.922C20.2468 32.162 20.2428 32.39 20.2348 32.606C20.2268 33.046 20.1628 33.462 20.0428 33.854C19.9308 34.246 19.7548 34.594 19.5148 34.898C19.2828 35.202 18.9748 35.442 18.5908 35.618C18.2148 35.786 17.7468 35.87 17.1868 35.87ZM17.1868 34.85C17.8108 34.85 18.2708 34.646 18.5668 34.238C18.8708 33.822 19.0268 33.258 19.0348 32.546C19.0508 32.314 19.0588 32.09 19.0588 31.874C19.0588 31.65 19.0588 31.43 19.0588 31.214C19.0588 30.99 19.0508 30.77 19.0348 30.554C19.0268 29.858 18.8708 29.302 18.5668 28.886C18.2708 28.462 17.8108 28.25 17.1868 28.25C16.5708 28.25 16.1108 28.462 15.8068 28.886C15.5108 29.302 15.3548 29.858 15.3388 30.554C15.3388 30.77 15.3348 30.99 15.3268 31.214C15.3268 31.43 15.3268 31.65 15.3268 31.874C15.3348 32.09 15.3388 32.314 15.3388 32.546C15.3548 33.258 15.5148 33.822 15.8188 34.238C16.1228 34.646 16.5788 34.85 17.1868 34.85Z" fill="#F4F9FF" fill-opacity="0.3"/>
<path d="M11.562 59.75C11.482 59.75 11.414 59.726 11.358 59.678C11.31 59.622 11.286 59.554 11.286 59.474V52.754L9.294 54.29C9.23 54.338 9.162 54.358 9.09 54.35C9.018 54.342 8.958 54.306 8.91 54.242L8.598 53.846C8.55 53.774 8.53 53.702 8.538 53.63C8.554 53.558 8.594 53.498 8.658 53.45L11.274 51.434C11.33 51.394 11.382 51.37 11.43 51.362C11.478 51.354 11.53 51.35 11.586 51.35H12.198C12.278 51.35 12.342 51.378 12.39 51.434C12.438 51.482 12.462 51.546 12.462 51.626V59.474C12.462 59.554 12.438 59.622 12.39 59.678C12.342 59.726 12.278 59.75 12.198 59.75H11.562ZM17.1868 59.87C16.6348 59.87 16.1668 59.786 15.7828 59.618C15.4068 59.442 15.0988 59.202 14.8588 58.898C14.6188 58.594 14.4428 58.246 14.3308 57.854C14.2268 57.462 14.1668 57.046 14.1508 56.606C14.1428 56.39 14.1348 56.162 14.1268 55.922C14.1268 55.682 14.1268 55.442 14.1268 55.202C14.1348 54.954 14.1428 54.718 14.1508 54.494C14.1588 54.054 14.2188 53.638 14.3308 53.246C14.4508 52.846 14.6268 52.498 14.8588 52.202C15.0988 51.898 15.4108 51.662 15.7948 51.494C16.1788 51.318 16.6428 51.23 17.1868 51.23C17.7388 51.23 18.2028 51.318 18.5788 51.494C18.9628 51.662 19.2748 51.898 19.5148 52.202C19.7548 52.498 19.9308 52.846 20.0428 53.246C20.1628 53.638 20.2268 54.054 20.2348 54.494C20.2428 54.718 20.2468 54.954 20.2468 55.202C20.2548 55.442 20.2548 55.682 20.2468 55.922C20.2468 56.162 20.2428 56.39 20.2348 56.606C20.2268 57.046 20.1628 57.462 20.0428 57.854C19.9308 58.246 19.7548 58.594 19.5148 58.898C19.2828 59.202 18.9748 59.442 18.5908 59.618C18.2148 59.786 17.7468 59.87 17.1868 59.87ZM17.1868 58.85C17.8108 58.85 18.2708 58.646 18.5668 58.238C18.8708 57.822 19.0268 57.258 19.0348 56.546C19.0508 56.314 19.0588 56.09 19.0588 55.874C19.0588 55.65 19.0588 55.43 19.0588 55.214C19.0588 54.99 19.0508 54.77 19.0348 54.554C19.0268 53.858 18.8708 53.302 18.5668 52.886C18.2708 52.462 17.8108 52.25 17.1868 52.25C16.5708 52.25 16.1108 52.462 15.8068 52.886C15.5108 53.302 15.3548 53.858 15.3388 54.554C15.3388 54.77 15.3348 54.99 15.3268 55.214C15.3268 55.43 15.3268 55.65 15.3268 55.874C15.3348 56.09 15.3388 56.314 15.3388 56.546C15.3548 57.258 15.5148 57.822 15.8188 58.238C16.1228 58.646 16.5788 58.85 17.1868 58.85Z" fill="#F4F9FF" fill-opacity="0.3"/>
<path d="M17.1868 83.87C16.6348 83.87 16.1668 83.786 15.7828 83.618C15.4068 83.442 15.0988 83.202 14.8588 82.898C14.6188 82.594 14.4428 82.246 14.3308 81.854C14.2268 81.462 14.1668 81.046 14.1508 80.606C14.1428 80.39 14.1348 80.162 14.1268 79.922C14.1268 79.682 14.1268 79.442 14.1268 79.202C14.1348 78.954 14.1428 78.718 14.1508 78.494C14.1588 78.054 14.2188 77.638 14.3308 77.246C14.4508 76.846 14.6268 76.498 14.8588 76.202C15.0988 75.898 15.4108 75.662 15.7948 75.494C16.1788 75.318 16.6428 75.23 17.1868 75.23C17.7388 75.23 18.2028 75.318 18.5788 75.494C18.9628 75.662 19.2748 75.898 19.5148 76.202C19.7548 76.498 19.9308 76.846 20.0428 77.246C20.1628 77.638 20.2268 78.054 20.2348 78.494C20.2428 78.718 20.2468 78.954 20.2468 79.202C20.2548 79.442 20.2548 79.682 20.2468 79.922C20.2468 80.162 20.2428 80.39 20.2348 80.606C20.2268 81.046 20.1628 81.462 20.0428 81.854C19.9308 82.246 19.7548 82.594 19.5148 82.898C19.2828 83.202 18.9748 83.442 18.5908 83.618C18.2148 83.786 17.7468 83.87 17.1868 83.87ZM17.1868 82.85C17.8108 82.85 18.2708 82.646 18.5668 82.238C18.8708 81.822 19.0268 81.258 19.0348 80.546C19.0508 80.314 19.0588 80.09 19.0588 79.874C19.0588 79.65 19.0588 79.43 19.0588 79.214C19.0588 78.99 19.0508 78.77 19.0348 78.554C19.0268 77.858 18.8708 77.302 18.5668 76.886C18.2708 76.462 17.8108 76.25 17.1868 76.25C16.5708 76.25 16.1108 76.462 15.8068 76.886C15.5108 77.302 15.3548 77.858 15.3388 78.554C15.3388 78.77 15.3348 78.99 15.3268 79.214C15.3268 79.43 15.3268 79.65 15.3268 79.874C15.3348 80.09 15.3388 80.314 15.3388 80.546C15.3548 81.258 15.5148 81.822 15.8188 82.238C16.1228 82.646 16.5788 82.85 17.1868 82.85Z" fill="#F4F9FF" fill-opacity="0.3"/>
<path d="M3.98681 104.654C3.90681 104.654 3.83881 104.63 3.78281 104.582C3.73481 104.526 3.71081 104.458 3.71081 104.378V103.922C3.71081 103.842 3.73481 103.778 3.78281 103.73C3.83881 103.674 3.90681 103.646 3.98681 103.646H7.58681C7.66681 103.646 7.73081 103.674 7.77881 103.73C7.83481 103.778 7.86281 103.842 7.86281 103.922V104.378C7.86281 104.458 7.83481 104.526 7.77881 104.582C7.73081 104.63 7.66681 104.654 7.58681 104.654H3.98681ZM11.562 107.75C11.482 107.75 11.414 107.726 11.358 107.678C11.31 107.622 11.286 107.554 11.286 107.474V100.754L9.294 102.29C9.23 102.338 9.162 102.358 9.09 102.35C9.018 102.342 8.958 102.306 8.91 102.242L8.598 101.846C8.55 101.774 8.53 101.702 8.538 101.63C8.554 101.558 8.594 101.498 8.658 101.45L11.274 99.434C11.33 99.394 11.382 99.37 11.43 99.362C11.478 99.354 11.53 99.35 11.586 99.35H12.198C12.278 99.35 12.342 99.378 12.39 99.434C12.438 99.482 12.462 99.546 12.462 99.626V107.474C12.462 107.554 12.438 107.622 12.39 107.678C12.342 107.726 12.278 107.75 12.198 107.75H11.562ZM17.1868 107.87C16.6348 107.87 16.1668 107.786 15.7828 107.618C15.4068 107.442 15.0988 107.202 14.8588 106.898C14.6188 106.594 14.4428 106.246 14.3308 105.854C14.2268 105.462 14.1668 105.046 14.1508 104.606C14.1428 104.39 14.1348 104.162 14.1268 103.922C14.1268 103.682 14.1268 103.442 14.1268 103.202C14.1348 102.954 14.1428 102.718 14.1508 102.494C14.1588 102.054 14.2188 101.638 14.3308 101.246C14.4508 100.846 14.6268 100.498 14.8588 100.202C15.0988 99.898 15.4108 99.662 15.7948 99.494C16.1788 99.318 16.6428 99.23 17.1868 99.23C17.7388 99.23 18.2028 99.318 18.5788 99.494C18.9628 99.662 19.2748 99.898 19.5148 100.202C19.7548 100.498 19.9308 100.846 20.0428 101.246C20.1628 101.638 20.2268 102.054 20.2348 102.494C20.2428 102.718 20.2468 102.954 20.2468 103.202C20.2548 103.442 20.2548 103.682 20.2468 103.922C20.2468 104.162 20.2428 104.39 20.2348 104.606C20.2268 105.046 20.1628 105.462 20.0428 105.854C19.9308 106.246 19.7548 106.594 19.5148 106.898C19.2828 107.202 18.9748 107.442 18.5908 107.618C18.2148 107.786 17.7468 107.87 17.1868 107.87ZM17.1868 106.85C17.8108 106.85 18.2708 106.646 18.5668 106.238C18.8708 105.822 19.0268 105.258 19.0348 104.546C19.0508 104.314 19.0588 104.09 19.0588 103.874C19.0588 103.65 19.0588 103.43 19.0588 103.214C19.0588 102.99 19.0508 102.77 19.0348 102.554C19.0268 101.858 18.8708 101.302 18.5668 100.886C18.2708 100.462 17.8108 100.25 17.1868 100.25C16.5708 100.25 16.1108 100.462 15.8068 100.886C15.5108 101.302 15.3548 101.858 15.3388 102.554C15.3388 102.77 15.3348 102.99 15.3268 103.214C15.3268 103.43 15.3268 103.65 15.3268 103.874C15.3348 104.09 15.3388 104.314 15.3388 104.546C15.3548 105.258 15.5148 105.822 15.8188 106.238C16.1228 106.646 16.5788 106.85 17.1868 106.85Z" fill="#F4F9FF" fill-opacity="0.3"/>
<path d="M2.10009 128.654C2.02009 128.654 1.95209 128.63 1.89609 128.582C1.84809 128.526 1.82409 128.458 1.82409 128.378V127.922C1.82409 127.842 1.84809 127.778 1.89609 127.73C1.95209 127.674 2.02009 127.646 2.10009 127.646H5.70009C5.78009 127.646 5.84409 127.674 5.89209 127.73C5.94809 127.778 5.97609 127.842 5.97609 127.922V128.378C5.97609 128.458 5.94809 128.526 5.89209 128.582C5.84409 128.63 5.78009 128.654 5.70009 128.654H2.10009ZM7.20384 131.75C7.12384 131.75 7.05584 131.726 6.99984 131.678C6.95184 131.622 6.92784 131.554 6.92784 131.474V131.09C6.92784 131.018 6.94784 130.938 6.98784 130.85C7.02784 130.762 7.10784 130.666 7.22784 130.562L9.77184 128.018C10.1798 127.674 10.4998 127.382 10.7318 127.142C10.9718 126.894 11.1398 126.658 11.2358 126.434C11.3398 126.21 11.3918 125.978 11.3918 125.738C11.3918 125.282 11.2638 124.922 11.0078 124.658C10.7518 124.386 10.3718 124.25 9.86784 124.25C9.54784 124.25 9.27184 124.318 9.03984 124.454C8.80784 124.582 8.62384 124.762 8.48784 124.994C8.35984 125.218 8.27584 125.474 8.23584 125.762C8.21984 125.866 8.17584 125.938 8.10384 125.978C8.03984 126.018 7.97984 126.038 7.92384 126.038H7.29984C7.22784 126.038 7.16784 126.018 7.11984 125.978C7.07184 125.93 7.04784 125.874 7.04784 125.81C7.05584 125.506 7.11984 125.202 7.23984 124.898C7.35984 124.586 7.53584 124.306 7.76784 124.058C8.00784 123.81 8.29984 123.61 8.64384 123.458C8.99584 123.298 9.40384 123.218 9.86784 123.218C10.4998 123.218 11.0158 123.334 11.4158 123.566C11.8238 123.79 12.1238 124.09 12.3158 124.466C12.5078 124.842 12.6038 125.254 12.6038 125.702C12.6038 126.054 12.5438 126.378 12.4238 126.674C12.3038 126.962 12.1278 127.246 11.8958 127.526C11.6718 127.798 11.3918 128.078 11.0558 128.366L8.75184 130.706H12.4958C12.5838 130.706 12.6518 130.73 12.6998 130.778C12.7558 130.826 12.7838 130.894 12.7838 130.982V131.474C12.7838 131.554 12.7558 131.622 12.6998 131.678C12.6518 131.726 12.5838 131.75 12.4958 131.75H7.20384ZM17.1868 131.87C16.6348 131.87 16.1668 131.786 15.7828 131.618C15.4068 131.442 15.0988 131.202 14.8588 130.898C14.6188 130.594 14.4428 130.246 14.3308 129.854C14.2268 129.462 14.1668 129.046 14.1508 128.606C14.1428 128.39 14.1348 128.162 14.1268 127.922C14.1268 127.682 14.1268 127.442 14.1268 127.202C14.1348 126.954 14.1428 126.718 14.1508 126.494C14.1588 126.054 14.2188 125.638 14.3308 125.246C14.4508 124.846 14.6268 124.498 14.8588 124.202C15.0988 123.898 15.4108 123.662 15.7948 123.494C16.1788 123.318 16.6428 123.23 17.1868 123.23C17.7388 123.23 18.2028 123.318 18.5788 123.494C18.9628 123.662 19.2748 123.898 19.5148 124.202C19.7548 124.498 19.9308 124.846 20.0428 125.246C20.1628 125.638 20.2268 126.054 20.2348 126.494C20.2428 126.718 20.2468 126.954 20.2468 127.202C20.2548 127.442 20.2548 127.682 20.2468 127.922C20.2468 128.162 20.2428 128.39 20.2348 128.606C20.2268 129.046 20.1628 129.462 20.0428 129.854C19.9308 130.246 19.7548 130.594 19.5148 130.898C19.2828 131.202 18.9748 131.442 18.5908 131.618C18.2148 131.786 17.7468 131.87 17.1868 131.87ZM17.1868 130.85C17.8108 130.85 18.2708 130.646 18.5668 130.238C18.8708 129.822 19.0268 129.258 19.0348 128.546C19.0508 128.314 19.0588 128.09 19.0588 127.874C19.0588 127.65 19.0588 127.43 19.0588 127.214C19.0588 126.99 19.0508 126.77 19.0348 126.554C19.0268 125.858 18.8708 125.302 18.5668 124.886C18.2708 124.462 17.8108 124.25 17.1868 124.25C16.5708 124.25 16.1108 124.462 15.8068 124.886C15.5108 125.302 15.3548 125.858 15.3388 126.554C15.3388 126.77 15.3348 126.99 15.3268 127.214C15.3268 127.43 15.3268 127.65 15.3268 127.874C15.3348 128.09 15.3388 128.314 15.3388 128.546C15.3548 129.258 15.5148 129.822 15.8188 130.238C16.1228 130.646 16.5788 130.85 17.1868 130.85Z" fill="#F4F9FF" fill-opacity="0.3"/>
<path d="M35.056 158.37C34.376 158.37 33.792 158.254 33.304 158.022C32.816 157.782 32.44 157.418 32.176 156.93C31.912 156.434 31.764 155.814 31.732 155.07C31.724 154.718 31.72 154.382 31.72 154.062C31.72 153.734 31.724 153.394 31.732 153.042C31.764 152.306 31.916 151.694 32.188 151.206C32.468 150.71 32.852 150.342 33.34 150.102C33.836 149.854 34.408 149.73 35.056 149.73C35.712 149.73 36.284 149.854 36.772 150.102C37.268 150.342 37.656 150.71 37.936 151.206C38.216 151.694 38.368 152.306 38.392 153.042C38.408 153.394 38.416 153.734 38.416 154.062C38.416 154.382 38.408 154.718 38.392 155.07C38.368 155.814 38.22 156.434 37.948 156.93C37.684 157.418 37.308 157.782 36.82 158.022C36.332 158.254 35.744 158.37 35.056 158.37ZM35.056 157.35C35.672 157.35 36.172 157.166 36.556 156.798C36.948 156.43 37.16 155.834 37.192 155.01C37.208 154.65 37.216 154.33 37.216 154.05C37.216 153.762 37.208 153.442 37.192 153.09C37.176 152.538 37.072 152.09 36.88 151.746C36.696 151.402 36.448 151.15 36.136 150.99C35.824 150.83 35.464 150.75 35.056 150.75C34.664 150.75 34.312 150.83 34 150.99C33.688 151.15 33.436 151.402 33.244 151.746C33.06 152.09 32.956 152.538 32.932 153.09C32.924 153.442 32.92 153.762 32.92 154.05C32.92 154.33 32.924 154.65 32.932 155.01C32.964 155.834 33.176 156.43 33.568 156.798C33.96 157.166 34.456 157.35 35.056 157.35ZM42.5291 158.37C41.9611 158.37 41.4691 158.262 41.0531 158.046C40.6451 157.822 40.3291 157.506 40.1051 157.098C39.8811 156.682 39.7611 156.186 39.7451 155.61C39.7371 155.49 39.7331 155.33 39.7331 155.13C39.7331 154.93 39.7371 154.77 39.7451 154.65C39.7611 154.074 39.8811 153.582 40.1051 153.174C40.3291 152.758 40.6451 152.442 41.0531 152.226C41.4691 152.002 41.9611 151.89 42.5291 151.89C42.9931 151.89 43.3891 151.954 43.7171 152.082C44.0531 152.21 44.3291 152.374 44.5451 152.574C44.7611 152.774 44.9211 152.99 45.0251 153.222C45.1371 153.454 45.1971 153.674 45.2051 153.882C45.2131 153.962 45.1891 154.026 45.1331 154.074C45.0771 154.122 45.0091 154.146 44.9291 154.146H44.3531C44.2731 154.146 44.2131 154.13 44.1731 154.098C44.1331 154.058 44.0931 153.994 44.0531 153.906C43.9091 153.514 43.7131 153.238 43.4651 153.078C43.2171 152.918 42.9091 152.838 42.5411 152.838C42.0611 152.838 41.6691 152.986 41.3651 153.282C41.0691 153.578 40.9091 154.054 40.8851 154.71C40.8771 154.998 40.8771 155.278 40.8851 155.55C40.9091 156.214 41.0691 156.694 41.3651 156.99C41.6691 157.278 42.0611 157.422 42.5411 157.422C42.9091 157.422 43.2171 157.342 43.4651 157.182C43.7131 157.022 43.9091 156.746 44.0531 156.354C44.0931 156.266 44.1331 156.206 44.1731 156.174C44.2131 156.134 44.2731 156.114 44.3531 156.114H44.9291C45.0091 156.114 45.0771 156.138 45.1331 156.186C45.1891 156.234 45.2131 156.298 45.2051 156.378C45.1971 156.546 45.1611 156.718 45.0971 156.894C45.0331 157.07 44.9291 157.25 44.7851 157.434C44.6491 157.61 44.4771 157.77 44.2691 157.914C44.0611 158.05 43.8091 158.162 43.5131 158.25C43.2251 158.33 42.8971 158.37 42.5291 158.37ZM49.0662 158.25C48.6182 158.25 48.2542 158.166 47.9742 157.998C47.6942 157.822 47.4902 157.578 47.3622 157.266C47.2342 156.946 47.1702 156.57 47.1702 156.138V152.97H46.2342C46.1542 152.97 46.0862 152.946 46.0302 152.898C45.9822 152.842 45.9582 152.774 45.9582 152.694V152.286C45.9582 152.206 45.9822 152.142 46.0302 152.094C46.0862 152.038 46.1542 152.01 46.2342 152.01H47.1702V150.006C47.1702 149.926 47.1942 149.862 47.2422 149.814C47.2982 149.758 47.3662 149.73 47.4462 149.73H48.0102C48.0902 149.73 48.1542 149.758 48.2022 149.814C48.2582 149.862 48.2862 149.926 48.2862 150.006V152.01H49.7742C49.8542 152.01 49.9182 152.038 49.9662 152.094C50.0222 152.142 50.0502 152.206 50.0502 152.286V152.694C50.0502 152.774 50.0222 152.842 49.9662 152.898C49.9182 152.946 49.8542 152.97 49.7742 152.97H48.2862V156.054C48.2862 156.43 48.3502 156.726 48.4782 156.942C48.6062 157.158 48.8342 157.266 49.1622 157.266H49.8942C49.9742 157.266 50.0382 157.294 50.0862 157.35C50.1422 157.398 50.1702 157.462 50.1702 157.542V157.974C50.1702 158.054 50.1422 158.122 50.0862 158.178C50.0382 158.226 49.9742 158.25 49.8942 158.25H49.0662Z" fill="#F4F9FF" fill-opacity="0.3"/>
<path d="M120.32 158.25C120.232 158.25 120.164 158.226 120.116 158.178C120.068 158.122 120.044 158.054 120.044 157.974V150.138C120.044 150.05 120.068 149.982 120.116 149.934C120.164 149.878 120.232 149.85 120.32 149.85H120.872C120.968 149.85 121.04 149.874 121.088 149.922C121.136 149.962 121.164 149.994 121.172 150.018L125.156 156.138V150.138C125.156 150.05 125.18 149.982 125.228 149.934C125.276 149.878 125.344 149.85 125.432 149.85H126.008C126.096 149.85 126.164 149.878 126.212 149.934C126.268 149.982 126.296 150.05 126.296 150.138V157.962C126.296 158.042 126.268 158.11 126.212 158.166C126.164 158.222 126.1 158.25 126.02 158.25H125.444C125.356 158.25 125.288 158.226 125.24 158.178C125.2 158.13 125.172 158.098 125.156 158.082L121.184 152.022V157.974C121.184 158.054 121.156 158.122 121.1 158.178C121.052 158.226 120.984 158.25 120.896 158.25H120.32ZM130.776 158.37C130.168 158.37 129.66 158.254 129.252 158.022C128.844 157.79 128.532 157.47 128.316 157.062C128.1 156.646 127.98 156.174 127.956 155.646C127.948 155.51 127.944 155.338 127.944 155.13C127.944 154.914 127.948 154.742 127.956 154.614C127.98 154.078 128.1 153.606 128.316 153.198C128.54 152.79 128.856 152.47 129.264 152.238C129.672 152.006 130.176 151.89 130.776 151.89C131.376 151.89 131.88 152.006 132.288 152.238C132.696 152.47 133.008 152.79 133.224 153.198C133.448 153.606 133.572 154.078 133.596 154.614C133.604 154.742 133.608 154.914 133.608 155.13C133.608 155.338 133.604 155.51 133.596 155.646C133.572 156.174 133.452 156.646 133.236 157.062C133.02 157.47 132.708 157.79 132.3 158.022C131.892 158.254 131.384 158.37 130.776 158.37ZM130.776 157.446C131.272 157.446 131.668 157.29 131.964 156.978C132.26 156.658 132.42 156.194 132.444 155.586C132.452 155.466 132.456 155.314 132.456 155.13C132.456 154.946 132.452 154.794 132.444 154.674C132.42 154.066 132.26 153.606 131.964 153.294C131.668 152.974 131.272 152.814 130.776 152.814C130.28 152.814 129.88 152.974 129.576 153.294C129.28 153.606 129.124 154.066 129.108 154.674C129.1 154.794 129.096 154.946 129.096 155.13C129.096 155.314 129.1 155.466 129.108 155.586C129.124 156.194 129.28 156.658 129.576 156.978C129.88 157.29 130.28 157.446 130.776 157.446ZM137.06 158.25C136.94 158.25 136.844 158.222 136.772 158.166C136.708 158.11 136.656 158.038 136.616 157.95L134.396 152.382C134.38 152.342 134.372 152.302 134.372 152.262C134.372 152.19 134.396 152.13 134.444 152.082C134.492 152.034 134.552 152.01 134.624 152.01H135.2C135.288 152.01 135.356 152.034 135.404 152.082C135.452 152.13 135.48 152.174 135.488 152.214L137.324 156.942L139.148 152.214C139.164 152.174 139.192 152.13 139.232 152.082C139.28 152.034 139.348 152.01 139.436 152.01H140.024C140.088 152.01 140.144 152.034 140.192 152.082C140.248 152.13 140.276 152.19 140.276 152.262C140.276 152.302 140.268 152.342 140.252 152.382L138.02 157.95C137.988 158.038 137.936 158.11 137.864 158.166C137.8 158.222 137.704 158.25 137.576 158.25H137.06Z" fill="#F4F9FF" fill-opacity="0.3"/>
<path d="M210.32 158.25C210.232 158.25 210.164 158.226 210.116 158.178C210.068 158.122 210.044 158.054 210.044 157.974V150.138C210.044 150.05 210.068 149.982 210.116 149.934C210.164 149.878 210.232 149.85 210.32 149.85H213.044C213.868 149.85 214.532 149.974 215.036 150.222C215.54 150.47 215.908 150.838 216.14 151.326C216.372 151.806 216.492 152.398 216.5 153.102C216.508 153.462 216.512 153.778 216.512 154.05C216.512 154.322 216.508 154.634 216.5 154.986C216.484 155.722 216.36 156.334 216.128 156.822C215.904 157.302 215.544 157.662 215.048 157.902C214.56 158.134 213.912 158.25 213.104 158.25H210.32ZM211.22 157.23H213.044C213.596 157.23 214.036 157.154 214.364 157.002C214.692 156.85 214.928 156.606 215.072 156.27C215.224 155.934 215.304 155.49 215.312 154.938C215.328 154.698 215.336 154.49 215.336 154.314C215.336 154.13 215.336 153.95 215.336 153.774C215.336 153.59 215.328 153.382 215.312 153.15C215.296 152.374 215.112 151.802 214.76 151.434C214.408 151.058 213.816 150.87 212.984 150.87H211.22V157.23ZM220.645 158.37C219.821 158.37 219.165 158.118 218.677 157.614C218.189 157.102 217.921 156.406 217.873 155.526C217.865 155.422 217.861 155.29 217.861 155.13C217.861 154.962 217.865 154.826 217.873 154.722C217.905 154.154 218.037 153.658 218.269 153.234C218.501 152.802 218.817 152.47 219.217 152.238C219.625 152.006 220.101 151.89 220.645 151.89C221.253 151.89 221.761 152.018 222.169 152.274C222.585 152.53 222.901 152.894 223.117 153.366C223.333 153.838 223.441 154.39 223.441 155.022V155.226C223.441 155.314 223.413 155.382 223.357 155.43C223.309 155.478 223.245 155.502 223.165 155.502H219.013C219.013 155.51 219.013 155.526 219.013 155.55C219.013 155.574 219.013 155.594 219.013 155.61C219.029 155.938 219.101 156.246 219.229 156.534C219.357 156.814 219.541 157.042 219.781 157.218C220.021 157.394 220.309 157.482 220.645 157.482C220.933 157.482 221.173 157.438 221.365 157.35C221.557 157.262 221.713 157.166 221.833 157.062C221.953 156.95 222.033 156.866 222.073 156.81C222.145 156.706 222.201 156.646 222.241 156.63C222.281 156.606 222.345 156.594 222.433 156.594H223.009C223.089 156.594 223.153 156.618 223.201 156.666C223.257 156.706 223.281 156.766 223.273 156.846C223.265 156.966 223.201 157.114 223.081 157.29C222.961 157.458 222.789 157.626 222.565 157.794C222.341 157.962 222.069 158.102 221.749 158.214C221.429 158.318 221.061 158.37 220.645 158.37ZM219.013 154.674H222.301V154.638C222.301 154.278 222.233 153.958 222.097 153.678C221.969 153.398 221.781 153.178 221.533 153.018C221.285 152.85 220.989 152.766 220.645 152.766C220.301 152.766 220.005 152.85 219.757 153.018C219.517 153.178 219.333 153.398 219.205 153.678C219.077 153.958 219.013 154.278 219.013 154.638V154.674ZM227.396 158.37C226.828 158.37 226.336 158.262 225.92 158.046C225.512 157.822 225.196 157.506 224.972 157.098C224.748 156.682 224.628 156.186 224.612 155.61C224.604 155.49 224.6 155.33 224.6 155.13C224.6 154.93 224.604 154.77 224.612 154.65C224.628 154.074 224.748 153.582 224.972 153.174C225.196 152.758 225.512 152.442 225.92 152.226C226.336 152.002 226.828 151.89 227.396 151.89C227.86 151.89 228.256 151.954 228.584 152.082C228.92 152.21 229.196 152.374 229.412 152.574C229.628 152.774 229.788 152.99 229.892 153.222C230.004 153.454 230.064 153.674 230.072 153.882C230.08 153.962 230.056 154.026 230 154.074C229.944 154.122 229.876 154.146 229.796 154.146H229.22C229.14 154.146 229.08 154.13 229.04 154.098C229 154.058 228.96 153.994 228.92 153.906C228.776 153.514 228.58 153.238 228.332 153.078C228.084 152.918 227.776 152.838 227.408 152.838C226.928 152.838 226.536 152.986 226.232 153.282C225.936 153.578 225.776 154.054 225.752 154.71C225.744 154.998 225.744 155.278 225.752 155.55C225.776 156.214 225.936 156.694 226.232 156.99C226.536 157.278 226.928 157.422 227.408 157.422C227.776 157.422 228.084 157.342 228.332 157.182C228.58 157.022 228.776 156.746 228.92 156.354C228.96 156.266 229 156.206 229.04 156.174C229.08 156.134 229.14 156.114 229.22 156.114H229.796C229.876 156.114 229.944 156.138 230 156.186C230.056 156.234 230.08 156.298 230.072 156.378C230.064 156.546 230.028 156.718 229.964 156.894C229.9 157.07 229.796 157.25 229.652 157.434C229.516 157.61 229.344 157.77 229.136 157.914C228.928 158.05 228.676 158.162 228.38 158.25C228.092 158.33 227.764 158.37 227.396 158.37Z" fill="#F4F9FF" fill-opacity="0.3"/>
<path d="M302.54 158.37C302.132 158.37 301.744 158.322 301.376 158.226C301.016 158.122 300.692 157.966 300.404 157.758C300.124 157.542 299.9 157.274 299.732 156.954C299.564 156.634 299.472 156.258 299.456 155.826C299.456 155.754 299.48 155.694 299.528 155.646C299.576 155.59 299.64 155.562 299.72 155.562H300.368C300.456 155.562 300.524 155.59 300.572 155.646C300.628 155.694 300.664 155.758 300.68 155.838C300.712 156.198 300.816 156.49 300.992 156.714C301.168 156.93 301.392 157.09 301.664 157.194C301.936 157.298 302.236 157.35 302.564 157.35C303.172 157.35 303.636 157.15 303.956 156.75C304.276 156.35 304.436 155.818 304.436 155.154V150.894H300.176C300.096 150.894 300.028 150.87 299.972 150.822C299.924 150.766 299.9 150.698 299.9 150.618V150.126C299.9 150.046 299.924 149.982 299.972 149.934C300.028 149.878 300.096 149.85 300.176 149.85H305.348C305.436 149.85 305.504 149.878 305.552 149.934C305.608 149.982 305.636 150.05 305.636 150.138V155.178C305.636 155.826 305.512 156.39 305.264 156.87C305.016 157.35 304.664 157.722 304.208 157.986C303.752 158.242 303.196 158.37 302.54 158.37ZM309.187 158.37C308.787 158.37 308.423 158.29 308.095 158.13C307.767 157.97 307.503 157.754 307.303 157.482C307.103 157.21 307.003 156.902 307.003 156.558C307.003 156.006 307.227 155.566 307.675 155.238C308.123 154.91 308.707 154.694 309.427 154.59L311.215 154.338V153.99C311.215 153.606 311.103 153.306 310.879 153.09C310.663 152.874 310.307 152.766 309.811 152.766C309.451 152.766 309.159 152.838 308.935 152.982C308.719 153.126 308.567 153.31 308.479 153.534C308.431 153.654 308.347 153.714 308.227 153.714H307.687C307.599 153.714 307.531 153.69 307.483 153.642C307.443 153.586 307.423 153.522 307.423 153.45C307.423 153.33 307.467 153.182 307.555 153.006C307.651 152.83 307.795 152.658 307.987 152.49C308.179 152.322 308.423 152.182 308.719 152.07C309.023 151.95 309.391 151.89 309.823 151.89C310.303 151.89 310.707 151.954 311.035 152.082C311.363 152.202 311.619 152.366 311.803 152.574C311.995 152.782 312.131 153.018 312.211 153.282C312.299 153.546 312.343 153.814 312.343 154.086V157.974C312.343 158.054 312.315 158.122 312.259 158.178C312.211 158.226 312.147 158.25 312.067 158.25H311.515C311.427 158.25 311.359 158.226 311.311 158.178C311.263 158.122 311.239 158.054 311.239 157.974V157.458C311.135 157.602 310.995 157.746 310.819 157.89C310.643 158.026 310.423 158.142 310.159 158.238C309.895 158.326 309.571 158.37 309.187 158.37ZM309.439 157.47C309.767 157.47 310.067 157.402 310.339 157.266C310.611 157.122 310.823 156.902 310.975 156.606C311.135 156.31 311.215 155.938 311.215 155.49V155.154L309.823 155.358C309.255 155.438 308.827 155.574 308.539 155.766C308.251 155.95 308.107 156.186 308.107 156.474C308.107 156.698 308.171 156.886 308.299 157.038C308.435 157.182 308.603 157.29 308.803 157.362C309.011 157.434 309.223 157.47 309.439 157.47ZM314.344 158.25C314.264 158.25 314.196 158.226 314.14 158.178C314.092 158.122 314.068 158.054 314.068 157.974V152.286C314.068 152.206 314.092 152.142 314.14 152.094C314.196 152.038 314.264 152.01 314.344 152.01H314.908C314.988 152.01 315.052 152.038 315.1 152.094C315.156 152.142 315.184 152.206 315.184 152.286V152.814C315.392 152.542 315.652 152.322 315.964 152.154C316.284 151.978 316.692 151.89 317.188 151.89C317.708 151.89 318.148 152.006 318.508 152.238C318.876 152.462 319.152 152.778 319.336 153.186C319.52 153.586 319.612 154.054 319.612 154.59V157.974C319.612 158.054 319.588 158.122 319.54 158.178C319.492 158.226 319.428 158.25 319.348 158.25H318.748C318.668 158.25 318.6 158.226 318.544 158.178C318.496 158.122 318.472 158.054 318.472 157.974V154.65C318.472 154.09 318.336 153.654 318.064 153.342C317.792 153.022 317.392 152.862 316.864 152.862C316.368 152.862 315.968 153.022 315.664 153.342C315.368 153.654 315.22 154.09 315.22 154.65V157.974C315.22 158.054 315.192 158.122 315.136 158.178C315.088 158.226 315.024 158.25 314.944 158.25H314.344Z" fill="#F4F9FF" fill-opacity="0.3"/>
<path d="M390.32 158.25C390.232 158.25 390.164 158.226 390.116 158.178C390.068 158.122 390.044 158.054 390.044 157.974V150.138C390.044 150.05 390.068 149.982 390.116 149.934C390.164 149.878 390.232 149.85 390.32 149.85H395.216C395.304 149.85 395.372 149.878 395.42 149.934C395.468 149.982 395.492 150.05 395.492 150.138V150.618C395.492 150.706 395.468 150.774 395.42 150.822C395.372 150.87 395.304 150.894 395.216 150.894H391.208V153.69H394.976C395.064 153.69 395.132 153.718 395.18 153.774C395.228 153.822 395.252 153.89 395.252 153.978V154.458C395.252 154.538 395.228 154.606 395.18 154.662C395.132 154.71 395.064 154.734 394.976 154.734H391.208V157.974C391.208 158.054 391.18 158.122 391.124 158.178C391.076 158.226 391.008 158.25 390.92 158.25H390.32ZM399.251 158.37C398.427 158.37 397.771 158.118 397.283 157.614C396.795 157.102 396.527 156.406 396.479 155.526C396.471 155.422 396.467 155.29 396.467 155.13C396.467 154.962 396.471 154.826 396.479 154.722C396.511 154.154 396.643 153.658 396.875 153.234C397.107 152.802 397.423 152.47 397.823 152.238C398.231 152.006 398.707 151.89 399.251 151.89C399.859 151.89 400.367 152.018 400.775 152.274C401.191 152.53 401.507 152.894 401.723 153.366C401.939 153.838 402.047 154.39 402.047 155.022V155.226C402.047 155.314 402.019 155.382 401.963 155.43C401.915 155.478 401.851 155.502 401.771 155.502H397.619C397.619 155.51 397.619 155.526 397.619 155.55C397.619 155.574 397.619 155.594 397.619 155.61C397.635 155.938 397.707 156.246 397.835 156.534C397.963 156.814 398.147 157.042 398.387 157.218C398.627 157.394 398.915 157.482 399.251 157.482C399.539 157.482 399.779 157.438 399.971 157.35C400.163 157.262 400.319 157.166 400.439 157.062C400.559 156.95 400.639 156.866 400.679 156.81C400.751 156.706 400.807 156.646 400.847 156.63C400.887 156.606 400.951 156.594 401.039 156.594H401.615C401.695 156.594 401.759 156.618 401.807 156.666C401.863 156.706 401.887 156.766 401.879 156.846C401.871 156.966 401.807 157.114 401.687 157.29C401.567 157.458 401.395 157.626 401.171 157.794C400.947 157.962 400.675 158.102 400.355 158.214C400.035 158.318 399.667 158.37 399.251 158.37ZM397.619 154.674H400.907V154.638C400.907 154.278 400.839 153.958 400.703 153.678C400.575 153.398 400.387 153.178 400.139 153.018C399.891 152.85 399.595 152.766 399.251 152.766C398.907 152.766 398.611 152.85 398.363 153.018C398.123 153.178 397.939 153.398 397.811 153.678C397.683 153.958 397.619 154.278 397.619 154.638V154.674ZM406.566 158.37C406.086 158.37 405.686 158.286 405.366 158.118C405.046 157.942 404.79 157.726 404.598 157.47V157.974C404.598 158.054 404.57 158.122 404.514 158.178C404.466 158.226 404.402 158.25 404.322 158.25H403.77C403.69 158.25 403.622 158.226 403.566 158.178C403.518 158.122 403.494 158.054 403.494 157.974V150.006C403.494 149.926 403.518 149.862 403.566 149.814C403.622 149.758 403.69 149.73 403.77 149.73H404.346C404.434 149.73 404.502 149.758 404.55 149.814C404.598 149.862 404.622 149.926 404.622 150.006V152.766C404.822 152.518 405.078 152.31 405.39 152.142C405.71 151.974 406.102 151.89 406.566 151.89C407.014 151.89 407.394 151.97 407.706 152.13C408.026 152.282 408.286 152.494 408.486 152.766C408.694 153.038 408.85 153.346 408.954 153.69C409.058 154.034 409.114 154.394 409.122 154.77C409.13 154.898 409.134 155.018 409.134 155.13C409.134 155.242 409.13 155.362 409.122 155.49C409.114 155.874 409.058 156.238 408.954 156.582C408.85 156.926 408.694 157.234 408.486 157.506C408.286 157.77 408.026 157.982 407.706 158.142C407.394 158.294 407.014 158.37 406.566 158.37ZM406.314 157.398C406.73 157.398 407.054 157.31 407.286 157.134C407.526 156.95 407.698 156.714 407.802 156.426C407.906 156.13 407.966 155.814 407.982 155.478C407.99 155.246 407.99 155.014 407.982 154.782C407.966 154.446 407.906 154.134 407.802 153.846C407.698 153.55 407.526 153.314 407.286 153.138C407.054 152.954 406.73 152.862 406.314 152.862C405.938 152.862 405.626 152.95 405.378 153.126C405.13 153.302 404.942 153.526 404.814 153.798C404.694 154.07 404.63 154.346 404.622 154.626C404.614 154.754 404.61 154.91 404.61 155.094C404.61 155.27 404.614 155.422 404.622 155.55C404.638 155.846 404.702 156.138 404.814 156.426C404.934 156.706 405.114 156.938 405.354 157.122C405.602 157.306 405.922 157.398 406.314 157.398Z" fill="#F4F9FF" fill-opacity="0.3"/>
<path d="M479.32 158.25C479.24 158.25 479.172 158.226 479.116 158.178C479.068 158.122 479.044 158.054 479.044 157.974V150.138C479.044 150.05 479.068 149.982 479.116 149.934C479.172 149.878 479.24 149.85 479.32 149.85H479.92C480.016 149.85 480.088 149.874 480.136 149.922C480.184 149.97 480.212 150.01 480.22 150.042L482.764 154.89L485.32 150.042C485.336 150.01 485.364 149.97 485.404 149.922C485.452 149.874 485.524 149.85 485.62 149.85H486.208C486.296 149.85 486.364 149.878 486.412 149.934C486.468 149.982 486.496 150.05 486.496 150.138V157.974C486.496 158.054 486.468 158.122 486.412 158.178C486.364 158.226 486.296 158.25 486.208 158.25H485.62C485.54 158.25 485.472 158.226 485.416 158.178C485.368 158.122 485.344 158.054 485.344 157.974V152.07L483.34 155.982C483.308 156.062 483.26 156.126 483.196 156.174C483.132 156.214 483.052 156.234 482.956 156.234H482.584C482.48 156.234 482.396 156.214 482.332 156.174C482.276 156.126 482.228 156.062 482.188 155.982L480.184 152.07V157.974C480.184 158.054 480.156 158.122 480.1 158.178C480.052 158.226 479.988 158.25 479.908 158.25H479.32ZM490.155 158.37C489.755 158.37 489.391 158.29 489.063 158.13C488.735 157.97 488.471 157.754 488.271 157.482C488.071 157.21 487.971 156.902 487.971 156.558C487.971 156.006 488.195 155.566 488.643 155.238C489.091 154.91 489.675 154.694 490.395 154.59L492.183 154.338V153.99C492.183 153.606 492.071 153.306 491.847 153.09C491.631 152.874 491.275 152.766 490.779 152.766C490.419 152.766 490.127 152.838 489.903 152.982C489.687 153.126 489.535 153.31 489.447 153.534C489.399 153.654 489.315 153.714 489.195 153.714H488.655C488.567 153.714 488.499 153.69 488.451 153.642C488.411 153.586 488.391 153.522 488.391 153.45C488.391 153.33 488.435 153.182 488.523 153.006C488.619 152.83 488.763 152.658 488.955 152.49C489.147 152.322 489.391 152.182 489.687 152.07C489.991 151.95 490.359 151.89 490.791 151.89C491.271 151.89 491.675 151.954 492.003 152.082C492.331 152.202 492.587 152.366 492.771 152.574C492.963 152.782 493.099 153.018 493.179 153.282C493.267 153.546 493.311 153.814 493.311 154.086V157.974C493.311 158.054 493.283 158.122 493.227 158.178C493.179 158.226 493.115 158.25 493.035 158.25H492.483C492.395 158.25 492.327 158.226 492.279 158.178C492.231 158.122 492.207 158.054 492.207 157.974V157.458C492.103 157.602 491.963 157.746 491.787 157.89C491.611 158.026 491.391 158.142 491.127 158.238C490.863 158.326 490.539 158.37 490.155 158.37ZM490.407 157.47C490.735 157.47 491.035 157.402 491.307 157.266C491.579 157.122 491.791 156.902 491.943 156.606C492.103 156.31 492.183 155.938 492.183 155.49V155.154L490.791 155.358C490.223 155.438 489.795 155.574 489.507 155.766C489.219 155.95 489.075 156.186 489.075 156.474C489.075 156.698 489.139 156.886 489.267 157.038C489.403 157.182 489.571 157.29 489.771 157.362C489.979 157.434 490.191 157.47 490.407 157.47ZM495.312 158.25C495.232 158.25 495.164 158.226 495.108 158.178C495.06 158.122 495.036 158.054 495.036 157.974V152.298C495.036 152.218 495.06 152.15 495.108 152.094C495.164 152.038 495.232 152.01 495.312 152.01H495.864C495.944 152.01 496.012 152.038 496.068 152.094C496.124 152.15 496.152 152.218 496.152 152.298V152.826C496.312 152.554 496.532 152.35 496.812 152.214C497.092 152.078 497.428 152.01 497.82 152.01H498.3C498.38 152.01 498.444 152.038 498.492 152.094C498.54 152.142 498.564 152.206 498.564 152.286V152.778C498.564 152.858 498.54 152.922 498.492 152.97C498.444 153.018 498.38 153.042 498.3 153.042H497.58C497.148 153.042 496.808 153.17 496.56 153.426C496.312 153.674 496.188 154.014 496.188 154.446V157.974C496.188 158.054 496.16 158.122 496.104 158.178C496.048 158.226 495.98 158.25 495.9 158.25H495.312Z" fill="#F4F9FF" fill-opacity="0.3"/>
<path d="M61.564 69.25L31.6953 80.25V115.75H499.639V50.25H449.857L419.989 58.25L360.251 73.75L331.378 63.75L300.514 58.25L270.645 99.75L240.776 91.25L211.903 80.25H181.039L151.17 61.75H91.4327L61.564 69.25Z" fill="url(#paint0_linear_238_3200)"/>
<path d="M31.6953 80.25L61.564 69.25L91.4327 61.75H121.301H151.17L181.039 80.25H211.903L240.776 91.25L270.645 99.75L300.514 58.25L331.378 63.75L360.251 73.75L419.989 58.25L449.857 50.25H479.726H499.639" stroke="#3B57FF" stroke-width="2" stroke-miterlimit="1.58611" stroke-linecap="round" stroke-linejoin="round"/>
<circle cx="499.03" cy="50.25" r="2.5" fill="#F1F6FF" stroke="#3B57FF" stroke-width="2"/>
<path d="M60.8687 89.75L31 100.75V136.25H498.943V101.75L479.031 70.75H449.162L419.293 78.75L359.556 94.25L330.683 84.25L301.81 128.75L269.95 120.25L255.015 128.25L240.081 111.75L211.208 100.75H180.344L150.475 82.25H90.7374L60.8687 89.75Z" fill="url(#paint1_linear_238_3200)"/>
<path d="M31 100.75L60.8687 89.75L90.7374 82.25H120.606H150.475L180.344 100.75H211.208L240.081 111.75L255.015 128.75L269.95 120.25L301.719 128.75L330.683 84.25L359.556 94.25L419.293 78.75L449.162 70.75H479.031L498.943 102.25" stroke="#FF33A6" stroke-width="2" stroke-miterlimit="1.58611" stroke-linecap="round" stroke-linejoin="round"/>
<circle cx="498.561" cy="102.25" r="2.5" fill="#F1F6FF" stroke="#FF33A6" stroke-width="2"/>
<defs>
<linearGradient id="paint0_linear_238_3200" x1="308.479" y1="115.75" x2="307.976" y2="59.7366" gradientUnits="userSpaceOnUse">
<stop stop-color="#3B57FF" stop-opacity="0"/>
<stop offset="1" stop-color="#3B57FF" stop-opacity="0.2"/>
</linearGradient>
<linearGradient id="paint1_linear_238_3200" x1="307.783" y1="136.25" x2="307.281" y2="80.2366" gradientUnits="userSpaceOnUse">
<stop stop-color="#FF33A6" stop-opacity="0"/>
<stop offset="1" stop-color="#FF33A6" stop-opacity="0.2"/>
</linearGradient>
</defs>
</svg>
