<svg width="840" height="158" viewBox="0 0 840 158" fill="none" xmlns="http://www.w3.org/2000/svg">
<path d="M9.52717 11.12C9.02317 11.12 8.58317 11.06 8.20717 10.94C7.83117 10.812 7.51517 10.644 7.25917 10.436C7.00317 10.228 6.80717 10 6.67117 9.752C6.54317 9.504 6.47517 9.248 6.46717 8.984C6.46717 8.912 6.49117 8.856 6.53917 8.816C6.58717 8.776 6.64717 8.756 6.71917 8.756H7.30717C7.37917 8.756 7.44317 8.772 7.49917 8.804C7.55517 8.836 7.60317 8.904 7.64317 9.008C7.72317 9.296 7.85917 9.52 8.05117 9.68C8.25117 9.84 8.47917 9.952 8.73517 10.016C8.99917 10.072 9.26317 10.1 9.52717 10.1C10.0792 10.1 10.5272 9.968 10.8712 9.704C11.2152 9.44 11.3872 9.052 11.3872 8.54C11.3872 8.02 11.2312 7.648 10.9192 7.424C10.6072 7.2 10.1752 7.088 9.62317 7.088H8.48317C8.40317 7.088 8.33517 7.064 8.27917 7.016C8.23117 6.968 8.20717 6.9 8.20717 6.812V6.488C8.20717 6.416 8.21917 6.356 8.24317 6.308C8.27517 6.252 8.30717 6.204 8.33917 6.164L10.6672 3.62H7.12717C7.04717 3.62 6.97917 3.596 6.92317 3.548C6.87517 3.5 6.85117 3.432 6.85117 3.344V2.888C6.85117 2.8 6.87517 2.732 6.92317 2.684C6.97917 2.628 7.04717 2.6 7.12717 2.6H11.9152C12.0032 2.6 12.0712 2.628 12.1192 2.684C12.1752 2.732 12.2032 2.8 12.2032 2.888V3.32C12.2032 3.376 12.1872 3.428 12.1552 3.476C12.1312 3.516 12.1032 3.556 12.0712 3.596L9.75517 6.176L9.94717 6.188C10.4752 6.204 10.9352 6.3 11.3272 6.476C11.7272 6.652 12.0352 6.916 12.2512 7.268C12.4752 7.612 12.5872 8.048 12.5872 8.576C12.5872 9.112 12.4552 9.572 12.1912 9.956C11.9272 10.332 11.5632 10.62 11.0992 10.82C10.6352 11.02 10.1112 11.12 9.52717 11.12ZM16.9622 11.12C16.4102 11.12 15.9422 11.036 15.5582 10.868C15.1822 10.692 14.8742 10.452 14.6342 10.148C14.3942 9.844 14.2182 9.496 14.1062 9.104C14.0022 8.712 13.9422 8.296 13.9262 7.856C13.9182 7.64 13.9102 7.412 13.9022 7.172C13.9022 6.932 13.9022 6.692 13.9022 6.452C13.9102 6.204 13.9182 5.968 13.9262 5.744C13.9342 5.304 13.9942 4.888 14.1062 4.496C14.2262 4.096 14.4022 3.748 14.6342 3.452C14.8742 3.148 15.1862 2.912 15.5702 2.744C15.9542 2.568 16.4182 2.48 16.9622 2.48C17.5142 2.48 17.9782 2.568 18.3542 2.744C18.7382 2.912 19.0502 3.148 19.2902 3.452C19.5302 3.748 19.7062 4.096 19.8182 4.496C19.9382 4.888 20.0022 5.304 20.0102 5.744C20.0182 5.968 20.0222 6.204 20.0222 6.452C20.0302 6.692 20.0302 6.932 20.0222 7.172C20.0222 7.412 20.0182 7.64 20.0102 7.856C20.0022 8.296 19.9382 8.712 19.8182 9.104C19.7062 9.496 19.5302 9.844 19.2902 10.148C19.0582 10.452 18.7502 10.692 18.3662 10.868C17.9902 11.036 17.5222 11.12 16.9622 11.12ZM16.9622 10.1C17.5862 10.1 18.0462 9.896 18.3422 9.488C18.6462 9.072 18.8022 8.508 18.8102 7.796C18.8262 7.564 18.8342 7.34 18.8342 7.124C18.8342 6.9 18.8342 6.68 18.8342 6.464C18.8342 6.24 18.8262 6.02 18.8102 5.804C18.8022 5.108 18.6462 4.552 18.3422 4.136C18.0462 3.712 17.5862 3.5 16.9622 3.5C16.3462 3.5 15.8862 3.712 15.5822 4.136C15.2862 4.552 15.1302 5.108 15.1142 5.804C15.1142 6.02 15.1102 6.24 15.1022 6.464C15.1022 6.68 15.1022 6.9 15.1022 7.124C15.1102 7.34 15.1142 7.564 15.1142 7.796C15.1302 8.508 15.2902 9.072 15.5942 9.488C15.8982 9.896 16.3542 10.1 16.9622 10.1Z" fill="#F4F9FF" fill-opacity="0.3"/>
<path d="M6.97923 35C6.89923 35 6.83123 34.976 6.77523 34.928C6.72723 34.872 6.70323 34.804 6.70323 34.724V34.34C6.70323 34.268 6.72323 34.188 6.76323 34.1C6.80323 34.012 6.88323 33.916 7.00323 33.812L9.54723 31.268C9.95523 30.924 10.2752 30.632 10.5072 30.392C10.7472 30.144 10.9152 29.908 11.0112 29.684C11.1152 29.46 11.1672 29.228 11.1672 28.988C11.1672 28.532 11.0392 28.172 10.7832 27.908C10.5272 27.636 10.1472 27.5 9.64323 27.5C9.32323 27.5 9.04723 27.568 8.81523 27.704C8.58323 27.832 8.39923 28.012 8.26323 28.244C8.13523 28.468 8.05123 28.724 8.01123 29.012C7.99523 29.116 7.95123 29.188 7.87923 29.228C7.81523 29.268 7.75523 29.288 7.69923 29.288H7.07523C7.00323 29.288 6.94323 29.268 6.89523 29.228C6.84723 29.18 6.82323 29.124 6.82323 29.06C6.83123 28.756 6.89523 28.452 7.01523 28.148C7.13523 27.836 7.31123 27.556 7.54323 27.308C7.78323 27.06 8.07523 26.86 8.41923 26.708C8.77123 26.548 9.17923 26.468 9.64323 26.468C10.2752 26.468 10.7912 26.584 11.1912 26.816C11.5992 27.04 11.8992 27.34 12.0912 27.716C12.2832 28.092 12.3792 28.504 12.3792 28.952C12.3792 29.304 12.3192 29.628 12.1992 29.924C12.0792 30.212 11.9032 30.496 11.6712 30.776C11.4472 31.048 11.1672 31.328 10.8312 31.616L8.52723 33.956H12.2712C12.3592 33.956 12.4272 33.98 12.4752 34.028C12.5312 34.076 12.5592 34.144 12.5592 34.232V34.724C12.5592 34.804 12.5312 34.872 12.4752 34.928C12.4272 34.976 12.3592 35 12.2712 35H6.97923ZM16.9622 35.12C16.4102 35.12 15.9422 35.036 15.5582 34.868C15.1822 34.692 14.8742 34.452 14.6342 34.148C14.3942 33.844 14.2182 33.496 14.1062 33.104C14.0022 32.712 13.9422 32.296 13.9262 31.856C13.9182 31.64 13.9102 31.412 13.9022 31.172C13.9022 30.932 13.9022 30.692 13.9022 30.452C13.9102 30.204 13.9182 29.968 13.9262 29.744C13.9342 29.304 13.9942 28.888 14.1062 28.496C14.2262 28.096 14.4022 27.748 14.6342 27.452C14.8742 27.148 15.1862 26.912 15.5702 26.744C15.9542 26.568 16.4182 26.48 16.9622 26.48C17.5142 26.48 17.9782 26.568 18.3542 26.744C18.7382 26.912 19.0502 27.148 19.2902 27.452C19.5302 27.748 19.7062 28.096 19.8182 28.496C19.9382 28.888 20.0022 29.304 20.0102 29.744C20.0182 29.968 20.0222 30.204 20.0222 30.452C20.0302 30.692 20.0302 30.932 20.0222 31.172C20.0222 31.412 20.0182 31.64 20.0102 31.856C20.0022 32.296 19.9382 32.712 19.8182 33.104C19.7062 33.496 19.5302 33.844 19.2902 34.148C19.0582 34.452 18.7502 34.692 18.3662 34.868C17.9902 35.036 17.5222 35.12 16.9622 35.12ZM16.9622 34.1C17.5862 34.1 18.0462 33.896 18.3422 33.488C18.6462 33.072 18.8022 32.508 18.8102 31.796C18.8262 31.564 18.8342 31.34 18.8342 31.124C18.8342 30.9 18.8342 30.68 18.8342 30.464C18.8342 30.24 18.8262 30.02 18.8102 29.804C18.8022 29.108 18.6462 28.552 18.3422 28.136C18.0462 27.712 17.5862 27.5 16.9622 27.5C16.3462 27.5 15.8862 27.712 15.5822 28.136C15.2862 28.552 15.1302 29.108 15.1142 29.804C15.1142 30.02 15.1102 30.24 15.1022 30.464C15.1022 30.68 15.1022 30.9 15.1022 31.124C15.1102 31.34 15.1142 31.564 15.1142 31.796C15.1302 32.508 15.2902 33.072 15.5942 33.488C15.8982 33.896 16.3542 34.1 16.9622 34.1Z" fill="#F4F9FF" fill-opacity="0.3"/>
<path d="M11.3374 59C11.2574 59 11.1894 58.976 11.1334 58.928C11.0854 58.872 11.0614 58.804 11.0614 58.724V52.004L9.06939 53.54C9.00539 53.588 8.93739 53.608 8.86539 53.6C8.79339 53.592 8.73339 53.556 8.68539 53.492L8.37339 53.096C8.32539 53.024 8.30539 52.952 8.31339 52.88C8.32939 52.808 8.36939 52.748 8.43339 52.7L11.0494 50.684C11.1054 50.644 11.1574 50.62 11.2054 50.612C11.2534 50.604 11.3054 50.6 11.3614 50.6H11.9734C12.0534 50.6 12.1174 50.628 12.1654 50.684C12.2134 50.732 12.2374 50.796 12.2374 50.876V58.724C12.2374 58.804 12.2134 58.872 12.1654 58.928C12.1174 58.976 12.0534 59 11.9734 59H11.3374ZM16.9622 59.12C16.4102 59.12 15.9422 59.036 15.5582 58.868C15.1822 58.692 14.8742 58.452 14.6342 58.148C14.3942 57.844 14.2182 57.496 14.1062 57.104C14.0022 56.712 13.9422 56.296 13.9262 55.856C13.9182 55.64 13.9102 55.412 13.9022 55.172C13.9022 54.932 13.9022 54.692 13.9022 54.452C13.9102 54.204 13.9182 53.968 13.9262 53.744C13.9342 53.304 13.9942 52.888 14.1062 52.496C14.2262 52.096 14.4022 51.748 14.6342 51.452C14.8742 51.148 15.1862 50.912 15.5702 50.744C15.9542 50.568 16.4182 50.48 16.9622 50.48C17.5142 50.48 17.9782 50.568 18.3542 50.744C18.7382 50.912 19.0502 51.148 19.2902 51.452C19.5302 51.748 19.7062 52.096 19.8182 52.496C19.9382 52.888 20.0022 53.304 20.0102 53.744C20.0182 53.968 20.0222 54.204 20.0222 54.452C20.0302 54.692 20.0302 54.932 20.0222 55.172C20.0222 55.412 20.0182 55.64 20.0102 55.856C20.0022 56.296 19.9382 56.712 19.8182 57.104C19.7062 57.496 19.5302 57.844 19.2902 58.148C19.0582 58.452 18.7502 58.692 18.3662 58.868C17.9902 59.036 17.5222 59.12 16.9622 59.12ZM16.9622 58.1C17.5862 58.1 18.0462 57.896 18.3422 57.488C18.6462 57.072 18.8022 56.508 18.8102 55.796C18.8262 55.564 18.8342 55.34 18.8342 55.124C18.8342 54.9 18.8342 54.68 18.8342 54.464C18.8342 54.24 18.8262 54.02 18.8102 53.804C18.8022 53.108 18.6462 52.552 18.3422 52.136C18.0462 51.712 17.5862 51.5 16.9622 51.5C16.3462 51.5 15.8862 51.712 15.5822 52.136C15.2862 52.552 15.1302 53.108 15.1142 53.804C15.1142 54.02 15.1102 54.24 15.1022 54.464C15.1022 54.68 15.1022 54.9 15.1022 55.124C15.1102 55.34 15.1142 55.564 15.1142 55.796C15.1302 56.508 15.2902 57.072 15.5942 57.488C15.8982 57.896 16.3542 58.1 16.9622 58.1Z" fill="#F4F9FF" fill-opacity="0.3"/>
<path d="M16.9622 83.12C16.4102 83.12 15.9422 83.036 15.5582 82.868C15.1822 82.692 14.8742 82.452 14.6342 82.148C14.3942 81.844 14.2182 81.496 14.1062 81.104C14.0022 80.712 13.9422 80.296 13.9262 79.856C13.9182 79.64 13.9102 79.412 13.9022 79.172C13.9022 78.932 13.9022 78.692 13.9022 78.452C13.9102 78.204 13.9182 77.968 13.9262 77.744C13.9342 77.304 13.9942 76.888 14.1062 76.496C14.2262 76.096 14.4022 75.748 14.6342 75.452C14.8742 75.148 15.1862 74.912 15.5702 74.744C15.9542 74.568 16.4182 74.48 16.9622 74.48C17.5142 74.48 17.9782 74.568 18.3542 74.744C18.7382 74.912 19.0502 75.148 19.2902 75.452C19.5302 75.748 19.7062 76.096 19.8182 76.496C19.9382 76.888 20.0022 77.304 20.0102 77.744C20.0182 77.968 20.0222 78.204 20.0222 78.452C20.0302 78.692 20.0302 78.932 20.0222 79.172C20.0222 79.412 20.0182 79.64 20.0102 79.856C20.0022 80.296 19.9382 80.712 19.8182 81.104C19.7062 81.496 19.5302 81.844 19.2902 82.148C19.0582 82.452 18.7502 82.692 18.3662 82.868C17.9902 83.036 17.5222 83.12 16.9622 83.12ZM16.9622 82.1C17.5862 82.1 18.0462 81.896 18.3422 81.488C18.6462 81.072 18.8022 80.508 18.8102 79.796C18.8262 79.564 18.8342 79.34 18.8342 79.124C18.8342 78.9 18.8342 78.68 18.8342 78.464C18.8342 78.24 18.8262 78.02 18.8102 77.804C18.8022 77.108 18.6462 76.552 18.3422 76.136C18.0462 75.712 17.5862 75.5 16.9622 75.5C16.3462 75.5 15.8862 75.712 15.5822 76.136C15.2862 76.552 15.1302 77.108 15.1142 77.804C15.1142 78.02 15.1102 78.24 15.1022 78.464C15.1022 78.68 15.1022 78.9 15.1022 79.124C15.1102 79.34 15.1142 79.564 15.1142 79.796C15.1302 80.508 15.2902 81.072 15.5942 81.488C15.8982 81.896 16.3542 82.1 16.9622 82.1Z" fill="#F4F9FF" fill-opacity="0.3"/>
<path d="M3.7622 103.904C3.6822 103.904 3.6142 103.88 3.5582 103.832C3.5102 103.776 3.4862 103.708 3.4862 103.628V103.172C3.4862 103.092 3.5102 103.028 3.5582 102.98C3.6142 102.924 3.6822 102.896 3.7622 102.896H7.3622C7.4422 102.896 7.5062 102.924 7.5542 102.98C7.6102 103.028 7.6382 103.092 7.6382 103.172V103.628C7.6382 103.708 7.6102 103.776 7.5542 103.832C7.5062 103.88 7.4422 103.904 7.3622 103.904H3.7622ZM11.3374 107C11.2574 107 11.1894 106.976 11.1334 106.928C11.0854 106.872 11.0614 106.804 11.0614 106.724V100.004L9.06939 101.54C9.00539 101.588 8.93739 101.608 8.86539 101.6C8.79339 101.592 8.73339 101.556 8.68539 101.492L8.37339 101.096C8.32539 101.024 8.30539 100.952 8.31339 100.88C8.32939 100.808 8.36939 100.748 8.43339 100.7L11.0494 98.684C11.1054 98.644 11.1574 98.62 11.2054 98.612C11.2534 98.604 11.3054 98.6 11.3614 98.6H11.9734C12.0534 98.6 12.1174 98.628 12.1654 98.684C12.2134 98.732 12.2374 98.796 12.2374 98.876V106.724C12.2374 106.804 12.2134 106.872 12.1654 106.928C12.1174 106.976 12.0534 107 11.9734 107H11.3374ZM16.9622 107.12C16.4102 107.12 15.9422 107.036 15.5582 106.868C15.1822 106.692 14.8742 106.452 14.6342 106.148C14.3942 105.844 14.2182 105.496 14.1062 105.104C14.0022 104.712 13.9422 104.296 13.9262 103.856C13.9182 103.64 13.9102 103.412 13.9022 103.172C13.9022 102.932 13.9022 102.692 13.9022 102.452C13.9102 102.204 13.9182 101.968 13.9262 101.744C13.9342 101.304 13.9942 100.888 14.1062 100.496C14.2262 100.096 14.4022 99.748 14.6342 99.452C14.8742 99.148 15.1862 98.912 15.5702 98.744C15.9542 98.568 16.4182 98.48 16.9622 98.48C17.5142 98.48 17.9782 98.568 18.3542 98.744C18.7382 98.912 19.0502 99.148 19.2902 99.452C19.5302 99.748 19.7062 100.096 19.8182 100.496C19.9382 100.888 20.0022 101.304 20.0102 101.744C20.0182 101.968 20.0222 102.204 20.0222 102.452C20.0302 102.692 20.0302 102.932 20.0222 103.172C20.0222 103.412 20.0182 103.64 20.0102 103.856C20.0022 104.296 19.9382 104.712 19.8182 105.104C19.7062 105.496 19.5302 105.844 19.2902 106.148C19.0582 106.452 18.7502 106.692 18.3662 106.868C17.9902 107.036 17.5222 107.12 16.9622 107.12ZM16.9622 106.1C17.5862 106.1 18.0462 105.896 18.3422 105.488C18.6462 105.072 18.8022 104.508 18.8102 103.796C18.8262 103.564 18.8342 103.34 18.8342 103.124C18.8342 102.9 18.8342 102.68 18.8342 102.464C18.8342 102.24 18.8262 102.02 18.8102 101.804C18.8022 101.108 18.6462 100.552 18.3422 100.136C18.0462 99.712 17.5862 99.5 16.9622 99.5C16.3462 99.5 15.8862 99.712 15.5822 100.136C15.2862 100.552 15.1302 101.108 15.1142 101.804C15.1142 102.02 15.1102 102.24 15.1022 102.464C15.1022 102.68 15.1022 102.9 15.1022 103.124C15.1102 103.34 15.1142 103.564 15.1142 103.796C15.1302 104.508 15.2902 105.072 15.5942 105.488C15.8982 105.896 16.3542 106.1 16.9622 106.1Z" fill="#F4F9FF" fill-opacity="0.3"/>
<path d="M1.87548 127.904C1.79548 127.904 1.72748 127.88 1.67148 127.832C1.62348 127.776 1.59948 127.708 1.59948 127.628V127.172C1.59948 127.092 1.62348 127.028 1.67148 126.98C1.72748 126.924 1.79548 126.896 1.87548 126.896H5.47548C5.55548 126.896 5.61948 126.924 5.66748 126.98C5.72348 127.028 5.75148 127.092 5.75148 127.172V127.628C5.75148 127.708 5.72348 127.776 5.66748 127.832C5.61948 127.88 5.55548 127.904 5.47548 127.904H1.87548ZM6.97923 131C6.89923 131 6.83123 130.976 6.77523 130.928C6.72723 130.872 6.70323 130.804 6.70323 130.724V130.34C6.70323 130.268 6.72323 130.188 6.76323 130.1C6.80323 130.012 6.88323 129.916 7.00323 129.812L9.54723 127.268C9.95523 126.924 10.2752 126.632 10.5072 126.392C10.7472 126.144 10.9152 125.908 11.0112 125.684C11.1152 125.46 11.1672 125.228 11.1672 124.988C11.1672 124.532 11.0392 124.172 10.7832 123.908C10.5272 123.636 10.1472 123.5 9.64323 123.5C9.32323 123.5 9.04723 123.568 8.81523 123.704C8.58323 123.832 8.39923 124.012 8.26323 124.244C8.13523 124.468 8.05123 124.724 8.01123 125.012C7.99523 125.116 7.95123 125.188 7.87923 125.228C7.81523 125.268 7.75523 125.288 7.69923 125.288H7.07523C7.00323 125.288 6.94323 125.268 6.89523 125.228C6.84723 125.18 6.82323 125.124 6.82323 125.06C6.83123 124.756 6.89523 124.452 7.01523 124.148C7.13523 123.836 7.31123 123.556 7.54323 123.308C7.78323 123.06 8.07523 122.86 8.41923 122.708C8.77123 122.548 9.17923 122.468 9.64323 122.468C10.2752 122.468 10.7912 122.584 11.1912 122.816C11.5992 123.04 11.8992 123.34 12.0912 123.716C12.2832 124.092 12.3792 124.504 12.3792 124.952C12.3792 125.304 12.3192 125.628 12.1992 125.924C12.0792 126.212 11.9032 126.496 11.6712 126.776C11.4472 127.048 11.1672 127.328 10.8312 127.616L8.52723 129.956H12.2712C12.3592 129.956 12.4272 129.98 12.4752 130.028C12.5312 130.076 12.5592 130.144 12.5592 130.232V130.724C12.5592 130.804 12.5312 130.872 12.4752 130.928C12.4272 130.976 12.3592 131 12.2712 131H6.97923ZM16.9622 131.12C16.4102 131.12 15.9422 131.036 15.5582 130.868C15.1822 130.692 14.8742 130.452 14.6342 130.148C14.3942 129.844 14.2182 129.496 14.1062 129.104C14.0022 128.712 13.9422 128.296 13.9262 127.856C13.9182 127.64 13.9102 127.412 13.9022 127.172C13.9022 126.932 13.9022 126.692 13.9022 126.452C13.9102 126.204 13.9182 125.968 13.9262 125.744C13.9342 125.304 13.9942 124.888 14.1062 124.496C14.2262 124.096 14.4022 123.748 14.6342 123.452C14.8742 123.148 15.1862 122.912 15.5702 122.744C15.9542 122.568 16.4182 122.48 16.9622 122.48C17.5142 122.48 17.9782 122.568 18.3542 122.744C18.7382 122.912 19.0502 123.148 19.2902 123.452C19.5302 123.748 19.7062 124.096 19.8182 124.496C19.9382 124.888 20.0022 125.304 20.0102 125.744C20.0182 125.968 20.0222 126.204 20.0222 126.452C20.0302 126.692 20.0302 126.932 20.0222 127.172C20.0222 127.412 20.0182 127.64 20.0102 127.856C20.0022 128.296 19.9382 128.712 19.8182 129.104C19.7062 129.496 19.5302 129.844 19.2902 130.148C19.0582 130.452 18.7502 130.692 18.3662 130.868C17.9902 131.036 17.5222 131.12 16.9622 131.12ZM16.9622 130.1C17.5862 130.1 18.0462 129.896 18.3422 129.488C18.6462 129.072 18.8022 128.508 18.8102 127.796C18.8262 127.564 18.8342 127.34 18.8342 127.124C18.8342 126.9 18.8342 126.68 18.8342 126.464C18.8342 126.24 18.8262 126.02 18.8102 125.804C18.8022 125.108 18.6462 124.552 18.3422 124.136C18.0462 123.712 17.5862 123.5 16.9622 123.5C16.3462 123.5 15.8862 123.712 15.5822 124.136C15.2862 124.552 15.1302 125.108 15.1142 125.804C15.1142 126.02 15.1102 126.24 15.1022 126.464C15.1022 126.68 15.1022 126.9 15.1022 127.124C15.1102 127.34 15.1142 127.564 15.1142 127.796C15.1302 128.508 15.2902 129.072 15.5942 129.488C15.8982 129.896 16.3542 130.1 16.9622 130.1Z" fill="#F4F9FF" fill-opacity="0.3"/>
<path d="M34.208 154.62C33.8 154.62 33.412 154.572 33.044 154.476C32.684 154.372 32.36 154.216 32.072 154.008C31.792 153.792 31.568 153.524 31.4 153.204C31.232 152.884 31.14 152.508 31.124 152.076C31.124 152.004 31.148 151.944 31.196 151.896C31.244 151.84 31.308 151.812 31.388 151.812H32.036C32.124 151.812 32.192 151.84 32.24 151.896C32.296 151.944 32.332 152.008 32.348 152.088C32.38 152.448 32.484 152.74 32.66 152.964C32.836 153.18 33.06 153.34 33.332 153.444C33.604 153.548 33.904 153.6 34.232 153.6C34.84 153.6 35.304 153.4 35.624 153C35.944 152.6 36.104 152.068 36.104 151.404V147.144H31.844C31.764 147.144 31.696 147.12 31.64 147.072C31.592 147.016 31.568 146.948 31.568 146.868V146.376C31.568 146.296 31.592 146.232 31.64 146.184C31.696 146.128 31.764 146.1 31.844 146.1H37.016C37.104 146.1 37.172 146.128 37.22 146.184C37.276 146.232 37.304 146.3 37.304 146.388V151.428C37.304 152.076 37.18 152.64 36.932 153.12C36.684 153.6 36.332 153.972 35.876 154.236C35.42 154.492 34.864 154.62 34.208 154.62ZM40.8546 154.62C40.4546 154.62 40.0906 154.54 39.7626 154.38C39.4346 154.22 39.1706 154.004 38.9706 153.732C38.7706 153.46 38.6706 153.152 38.6706 152.808C38.6706 152.256 38.8946 151.816 39.3426 151.488C39.7906 151.16 40.3746 150.944 41.0946 150.84L42.8826 150.588V150.24C42.8826 149.856 42.7706 149.556 42.5466 149.34C42.3306 149.124 41.9746 149.016 41.4786 149.016C41.1186 149.016 40.8266 149.088 40.6026 149.232C40.3866 149.376 40.2346 149.56 40.1466 149.784C40.0986 149.904 40.0146 149.964 39.8946 149.964H39.3546C39.2666 149.964 39.1986 149.94 39.1506 149.892C39.1106 149.836 39.0906 149.772 39.0906 149.7C39.0906 149.58 39.1346 149.432 39.2226 149.256C39.3186 149.08 39.4626 148.908 39.6546 148.74C39.8466 148.572 40.0906 148.432 40.3866 148.32C40.6906 148.2 41.0586 148.14 41.4906 148.14C41.9706 148.14 42.3746 148.204 42.7026 148.332C43.0306 148.452 43.2866 148.616 43.4706 148.824C43.6626 149.032 43.7986 149.268 43.8786 149.532C43.9666 149.796 44.0106 150.064 44.0106 150.336V154.224C44.0106 154.304 43.9826 154.372 43.9266 154.428C43.8786 154.476 43.8146 154.5 43.7346 154.5H43.1826C43.0946 154.5 43.0266 154.476 42.9786 154.428C42.9306 154.372 42.9066 154.304 42.9066 154.224V153.708C42.8026 153.852 42.6626 153.996 42.4866 154.14C42.3106 154.276 42.0906 154.392 41.8266 154.488C41.5626 154.576 41.2386 154.62 40.8546 154.62ZM41.1066 153.72C41.4346 153.72 41.7346 153.652 42.0066 153.516C42.2786 153.372 42.4906 153.152 42.6426 152.856C42.8026 152.56 42.8826 152.188 42.8826 151.74V151.404L41.4906 151.608C40.9226 151.688 40.4946 151.824 40.2066 152.016C39.9186 152.2 39.7746 152.436 39.7746 152.724C39.7746 152.948 39.8386 153.136 39.9666 153.288C40.1026 153.432 40.2706 153.54 40.4706 153.612C40.6786 153.684 40.8906 153.72 41.1066 153.72ZM46.0117 154.5C45.9317 154.5 45.8637 154.476 45.8077 154.428C45.7597 154.372 45.7357 154.304 45.7357 154.224V148.536C45.7357 148.456 45.7597 148.392 45.8077 148.344C45.8637 148.288 45.9317 148.26 46.0117 148.26H46.5757C46.6557 148.26 46.7197 148.288 46.7677 148.344C46.8237 148.392 46.8517 148.456 46.8517 148.536V149.064C47.0597 148.792 47.3197 148.572 47.6317 148.404C47.9517 148.228 48.3597 148.14 48.8557 148.14C49.3757 148.14 49.8157 148.256 50.1757 148.488C50.5437 148.712 50.8197 149.028 51.0037 149.436C51.1877 149.836 51.2797 150.304 51.2797 150.84V154.224C51.2797 154.304 51.2557 154.372 51.2077 154.428C51.1597 154.476 51.0957 154.5 51.0157 154.5H50.4157C50.3357 154.5 50.2677 154.476 50.2117 154.428C50.1637 154.372 50.1397 154.304 50.1397 154.224V150.9C50.1397 150.34 50.0037 149.904 49.7317 149.592C49.4597 149.272 49.0597 149.112 48.5317 149.112C48.0357 149.112 47.6357 149.272 47.3317 149.592C47.0357 149.904 46.8877 150.34 46.8877 150.9V154.224C46.8877 154.304 46.8597 154.372 46.8037 154.428C46.7557 154.476 46.6917 154.5 46.6117 154.5H46.0117Z" fill="#F4F9FF" fill-opacity="0.3"/>
<path d="M103.202 154.5C103.114 154.5 103.046 154.476 102.998 154.428C102.95 154.372 102.926 154.304 102.926 154.224V146.388C102.926 146.3 102.95 146.232 102.998 146.184C103.046 146.128 103.114 146.1 103.202 146.1H108.098C108.186 146.1 108.254 146.128 108.302 146.184C108.35 146.232 108.374 146.3 108.374 146.388V146.868C108.374 146.956 108.35 147.024 108.302 147.072C108.254 147.12 108.186 147.144 108.098 147.144H104.09V149.94H107.858C107.946 149.94 108.014 149.968 108.062 150.024C108.11 150.072 108.134 150.14 108.134 150.228V150.708C108.134 150.788 108.11 150.856 108.062 150.912C108.014 150.96 107.946 150.984 107.858 150.984H104.09V154.224C104.09 154.304 104.062 154.372 104.006 154.428C103.958 154.476 103.89 154.5 103.802 154.5H103.202ZM112.133 154.62C111.309 154.62 110.653 154.368 110.165 153.864C109.677 153.352 109.409 152.656 109.361 151.776C109.353 151.672 109.349 151.54 109.349 151.38C109.349 151.212 109.353 151.076 109.361 150.972C109.393 150.404 109.525 149.908 109.757 149.484C109.989 149.052 110.305 148.72 110.705 148.488C111.113 148.256 111.589 148.14 112.133 148.14C112.741 148.14 113.249 148.268 113.657 148.524C114.073 148.78 114.389 149.144 114.605 149.616C114.821 150.088 114.929 150.64 114.929 151.272V151.476C114.929 151.564 114.901 151.632 114.845 151.68C114.797 151.728 114.733 151.752 114.653 151.752H110.501C110.501 151.76 110.501 151.776 110.501 151.8C110.501 151.824 110.501 151.844 110.501 151.86C110.517 152.188 110.589 152.496 110.717 152.784C110.845 153.064 111.029 153.292 111.269 153.468C111.509 153.644 111.797 153.732 112.133 153.732C112.421 153.732 112.661 153.688 112.853 153.6C113.045 153.512 113.201 153.416 113.321 153.312C113.441 153.2 113.521 153.116 113.561 153.06C113.633 152.956 113.689 152.896 113.729 152.88C113.769 152.856 113.833 152.844 113.921 152.844H114.497C114.577 152.844 114.641 152.868 114.689 152.916C114.745 152.956 114.769 153.016 114.761 153.096C114.753 153.216 114.689 153.364 114.569 153.54C114.449 153.708 114.277 153.876 114.053 154.044C113.829 154.212 113.557 154.352 113.237 154.464C112.917 154.568 112.549 154.62 112.133 154.62ZM110.501 150.924H113.789V150.888C113.789 150.528 113.721 150.208 113.585 149.928C113.457 149.648 113.269 149.428 113.021 149.268C112.773 149.1 112.477 149.016 112.133 149.016C111.789 149.016 111.493 149.1 111.245 149.268C111.005 149.428 110.821 149.648 110.693 149.928C110.565 150.208 110.501 150.528 110.501 150.888V150.924ZM119.448 154.62C118.968 154.62 118.568 154.536 118.248 154.368C117.928 154.192 117.672 153.976 117.48 153.72V154.224C117.48 154.304 117.452 154.372 117.396 154.428C117.348 154.476 117.284 154.5 117.204 154.5H116.652C116.572 154.5 116.504 154.476 116.448 154.428C116.4 154.372 116.376 154.304 116.376 154.224V146.256C116.376 146.176 116.4 146.112 116.448 146.064C116.504 146.008 116.572 145.98 116.652 145.98H117.228C117.316 145.98 117.384 146.008 117.432 146.064C117.48 146.112 117.504 146.176 117.504 146.256V149.016C117.704 148.768 117.96 148.56 118.272 148.392C118.592 148.224 118.984 148.14 119.448 148.14C119.896 148.14 120.276 148.22 120.588 148.38C120.908 148.532 121.168 148.744 121.368 149.016C121.576 149.288 121.732 149.596 121.836 149.94C121.94 150.284 121.996 150.644 122.004 151.02C122.012 151.148 122.016 151.268 122.016 151.38C122.016 151.492 122.012 151.612 122.004 151.74C121.996 152.124 121.94 152.488 121.836 152.832C121.732 153.176 121.576 153.484 121.368 153.756C121.168 154.02 120.908 154.232 120.588 154.392C120.276 154.544 119.896 154.62 119.448 154.62ZM119.196 153.648C119.612 153.648 119.936 153.56 120.168 153.384C120.408 153.2 120.58 152.964 120.684 152.676C120.788 152.38 120.848 152.064 120.864 151.728C120.872 151.496 120.872 151.264 120.864 151.032C120.848 150.696 120.788 150.384 120.684 150.096C120.58 149.8 120.408 149.564 120.168 149.388C119.936 149.204 119.612 149.112 119.196 149.112C118.82 149.112 118.508 149.2 118.26 149.376C118.012 149.552 117.824 149.776 117.696 150.048C117.576 150.32 117.512 150.596 117.504 150.876C117.496 151.004 117.492 151.16 117.492 151.344C117.492 151.52 117.496 151.672 117.504 151.8C117.52 152.096 117.584 152.388 117.696 152.676C117.816 152.956 117.996 153.188 118.236 153.372C118.484 153.556 118.804 153.648 119.196 153.648Z" fill="#F4F9FF" fill-opacity="0.3"/>
<path d="M173.416 154.5C173.336 154.5 173.268 154.476 173.212 154.428C173.164 154.372 173.14 154.304 173.14 154.224V146.388C173.14 146.3 173.164 146.232 173.212 146.184C173.268 146.128 173.336 146.1 173.416 146.1H174.016C174.112 146.1 174.184 146.124 174.232 146.172C174.28 146.22 174.308 146.26 174.316 146.292L176.86 151.14L179.416 146.292C179.432 146.26 179.46 146.22 179.5 146.172C179.548 146.124 179.62 146.1 179.716 146.1H180.304C180.392 146.1 180.46 146.128 180.508 146.184C180.564 146.232 180.592 146.3 180.592 146.388V154.224C180.592 154.304 180.564 154.372 180.508 154.428C180.46 154.476 180.392 154.5 180.304 154.5H179.716C179.636 154.5 179.568 154.476 179.512 154.428C179.464 154.372 179.44 154.304 179.44 154.224V148.32L177.436 152.232C177.404 152.312 177.356 152.376 177.292 152.424C177.228 152.464 177.148 152.484 177.052 152.484H176.68C176.576 152.484 176.492 152.464 176.428 152.424C176.372 152.376 176.324 152.312 176.284 152.232L174.28 148.32V154.224C174.28 154.304 174.252 154.372 174.196 154.428C174.148 154.476 174.084 154.5 174.004 154.5H173.416ZM184.251 154.62C183.851 154.62 183.487 154.54 183.159 154.38C182.831 154.22 182.567 154.004 182.367 153.732C182.167 153.46 182.067 153.152 182.067 152.808C182.067 152.256 182.291 151.816 182.739 151.488C183.187 151.16 183.771 150.944 184.491 150.84L186.279 150.588V150.24C186.279 149.856 186.167 149.556 185.943 149.34C185.727 149.124 185.371 149.016 184.875 149.016C184.515 149.016 184.223 149.088 183.999 149.232C183.783 149.376 183.631 149.56 183.543 149.784C183.495 149.904 183.411 149.964 183.291 149.964H182.751C182.663 149.964 182.595 149.94 182.547 149.892C182.507 149.836 182.487 149.772 182.487 149.7C182.487 149.58 182.531 149.432 182.619 149.256C182.715 149.08 182.859 148.908 183.051 148.74C183.243 148.572 183.487 148.432 183.783 148.32C184.087 148.2 184.455 148.14 184.887 148.14C185.367 148.14 185.771 148.204 186.099 148.332C186.427 148.452 186.683 148.616 186.867 148.824C187.059 149.032 187.195 149.268 187.275 149.532C187.363 149.796 187.407 150.064 187.407 150.336V154.224C187.407 154.304 187.379 154.372 187.323 154.428C187.275 154.476 187.211 154.5 187.131 154.5H186.579C186.491 154.5 186.423 154.476 186.375 154.428C186.327 154.372 186.303 154.304 186.303 154.224V153.708C186.199 153.852 186.059 153.996 185.883 154.14C185.707 154.276 185.487 154.392 185.223 154.488C184.959 154.576 184.635 154.62 184.251 154.62ZM184.503 153.72C184.831 153.72 185.131 153.652 185.403 153.516C185.675 153.372 185.887 153.152 186.039 152.856C186.199 152.56 186.279 152.188 186.279 151.74V151.404L184.887 151.608C184.319 151.688 183.891 151.824 183.603 152.016C183.315 152.2 183.171 152.436 183.171 152.724C183.171 152.948 183.235 153.136 183.363 153.288C183.499 153.432 183.667 153.54 183.867 153.612C184.075 153.684 184.287 153.72 184.503 153.72ZM189.408 154.5C189.328 154.5 189.26 154.476 189.204 154.428C189.156 154.372 189.132 154.304 189.132 154.224V148.548C189.132 148.468 189.156 148.4 189.204 148.344C189.26 148.288 189.328 148.26 189.408 148.26H189.96C190.04 148.26 190.108 148.288 190.164 148.344C190.22 148.4 190.248 148.468 190.248 148.548V149.076C190.408 148.804 190.628 148.6 190.908 148.464C191.188 148.328 191.524 148.26 191.916 148.26H192.396C192.476 148.26 192.54 148.288 192.588 148.344C192.636 148.392 192.66 148.456 192.66 148.536V149.028C192.66 149.108 192.636 149.172 192.588 149.22C192.54 149.268 192.476 149.292 192.396 149.292H191.676C191.244 149.292 190.904 149.42 190.656 149.676C190.408 149.924 190.284 150.264 190.284 150.696V154.224C190.284 154.304 190.256 154.372 190.2 154.428C190.144 154.476 190.076 154.5 189.996 154.5H189.408Z" fill="#F4F9FF" fill-opacity="0.3"/>
<path d="M242.791 154.5C242.727 154.5 242.671 154.476 242.623 154.428C242.575 154.38 242.551 154.324 242.551 154.26C242.551 154.22 242.555 154.176 242.563 154.128L245.539 146.364C245.571 146.284 245.615 146.22 245.671 146.172C245.727 146.124 245.811 146.1 245.923 146.1H246.739C246.843 146.1 246.923 146.124 246.979 146.172C247.043 146.22 247.091 146.284 247.123 146.364L250.087 154.128C250.103 154.176 250.111 154.22 250.111 154.26C250.111 154.324 250.087 154.38 250.039 154.428C249.991 154.476 249.935 154.5 249.871 154.5H249.259C249.163 154.5 249.091 154.476 249.043 154.428C249.003 154.38 248.975 154.336 248.959 154.296L248.299 152.592H244.363L243.703 154.296C243.695 154.336 243.667 154.38 243.619 154.428C243.571 154.476 243.499 154.5 243.403 154.5H242.791ZM244.711 151.56H247.951L246.331 147.3L244.711 151.56ZM251.526 156.78C251.446 156.78 251.378 156.752 251.322 156.696C251.274 156.648 251.25 156.584 251.25 156.504V148.536C251.25 148.456 251.274 148.392 251.322 148.344C251.378 148.288 251.446 148.26 251.526 148.26H252.078C252.158 148.26 252.222 148.288 252.27 148.344C252.326 148.392 252.354 148.456 252.354 148.536V149.064C252.546 148.8 252.802 148.58 253.122 148.404C253.442 148.228 253.842 148.14 254.322 148.14C254.77 148.14 255.15 148.216 255.462 148.368C255.782 148.52 256.042 148.728 256.242 148.992C256.45 149.256 256.606 149.556 256.71 149.892C256.814 150.228 256.87 150.588 256.878 150.972C256.886 151.1 256.89 151.236 256.89 151.38C256.89 151.524 256.886 151.66 256.878 151.788C256.87 152.164 256.814 152.524 256.71 152.868C256.606 153.204 256.45 153.504 256.242 153.768C256.042 154.024 255.782 154.232 255.462 154.392C255.15 154.544 254.77 154.62 254.322 154.62C253.858 154.62 253.466 154.536 253.146 154.368C252.834 154.192 252.578 153.976 252.378 153.72V156.504C252.378 156.584 252.354 156.648 252.306 156.696C252.258 156.752 252.19 156.78 252.102 156.78H251.526ZM254.07 153.648C254.486 153.648 254.81 153.56 255.042 153.384C255.282 153.2 255.454 152.964 255.558 152.676C255.662 152.38 255.722 152.064 255.738 151.728C255.746 151.496 255.746 151.264 255.738 151.032C255.722 150.696 255.662 150.384 255.558 150.096C255.454 149.8 255.282 149.564 255.042 149.388C254.81 149.204 254.486 149.112 254.07 149.112C253.678 149.112 253.358 149.204 253.11 149.388C252.87 149.572 252.69 149.808 252.57 150.096C252.458 150.376 252.394 150.664 252.378 150.96C252.37 151.088 252.366 151.24 252.366 151.416C252.366 151.592 252.37 151.748 252.378 151.884C252.386 152.164 252.45 152.44 252.57 152.712C252.698 152.984 252.886 153.208 253.134 153.384C253.382 153.56 253.694 153.648 254.07 153.648ZM258.662 154.5C258.582 154.5 258.514 154.476 258.458 154.428C258.41 154.372 258.386 154.304 258.386 154.224V148.548C258.386 148.468 258.41 148.4 258.458 148.344C258.514 148.288 258.582 148.26 258.662 148.26H259.214C259.294 148.26 259.362 148.288 259.418 148.344C259.474 148.4 259.502 148.468 259.502 148.548V149.076C259.662 148.804 259.882 148.6 260.162 148.464C260.442 148.328 260.778 148.26 261.17 148.26H261.65C261.73 148.26 261.794 148.288 261.842 148.344C261.89 148.392 261.914 148.456 261.914 148.536V149.028C261.914 149.108 261.89 149.172 261.842 149.22C261.794 149.268 261.73 149.292 261.65 149.292H260.93C260.498 149.292 260.158 149.42 259.91 149.676C259.662 149.924 259.538 150.264 259.538 150.696V154.224C259.538 154.304 259.51 154.372 259.454 154.428C259.398 154.476 259.33 154.5 259.25 154.5H258.662Z" fill="#F4F9FF" fill-opacity="0.3"/>
<path d="M312.844 154.5C312.764 154.5 312.696 154.476 312.64 154.428C312.592 154.372 312.568 154.304 312.568 154.224V146.388C312.568 146.3 312.592 146.232 312.64 146.184C312.696 146.128 312.764 146.1 312.844 146.1H313.444C313.54 146.1 313.612 146.124 313.66 146.172C313.708 146.22 313.736 146.26 313.744 146.292L316.288 151.14L318.844 146.292C318.86 146.26 318.888 146.22 318.928 146.172C318.976 146.124 319.048 146.1 319.144 146.1H319.732C319.82 146.1 319.888 146.128 319.936 146.184C319.992 146.232 320.02 146.3 320.02 146.388V154.224C320.02 154.304 319.992 154.372 319.936 154.428C319.888 154.476 319.82 154.5 319.732 154.5H319.144C319.064 154.5 318.996 154.476 318.94 154.428C318.892 154.372 318.868 154.304 318.868 154.224V148.32L316.864 152.232C316.832 152.312 316.784 152.376 316.72 152.424C316.656 152.464 316.576 152.484 316.48 152.484H316.108C316.004 152.484 315.92 152.464 315.856 152.424C315.8 152.376 315.752 152.312 315.712 152.232L313.708 148.32V154.224C313.708 154.304 313.68 154.372 313.624 154.428C313.576 154.476 313.512 154.5 313.432 154.5H312.844ZM323.68 154.62C323.28 154.62 322.916 154.54 322.588 154.38C322.26 154.22 321.996 154.004 321.796 153.732C321.596 153.46 321.496 153.152 321.496 152.808C321.496 152.256 321.72 151.816 322.168 151.488C322.616 151.16 323.2 150.944 323.92 150.84L325.708 150.588V150.24C325.708 149.856 325.596 149.556 325.372 149.34C325.156 149.124 324.8 149.016 324.304 149.016C323.944 149.016 323.652 149.088 323.428 149.232C323.212 149.376 323.06 149.56 322.972 149.784C322.924 149.904 322.84 149.964 322.72 149.964H322.18C322.092 149.964 322.024 149.94 321.976 149.892C321.936 149.836 321.916 149.772 321.916 149.7C321.916 149.58 321.96 149.432 322.048 149.256C322.144 149.08 322.288 148.908 322.48 148.74C322.672 148.572 322.916 148.432 323.212 148.32C323.516 148.2 323.884 148.14 324.316 148.14C324.796 148.14 325.2 148.204 325.528 148.332C325.856 148.452 326.112 148.616 326.296 148.824C326.488 149.032 326.624 149.268 326.704 149.532C326.792 149.796 326.836 150.064 326.836 150.336V154.224C326.836 154.304 326.808 154.372 326.752 154.428C326.704 154.476 326.64 154.5 326.56 154.5H326.008C325.92 154.5 325.852 154.476 325.804 154.428C325.756 154.372 325.732 154.304 325.732 154.224V153.708C325.628 153.852 325.488 153.996 325.312 154.14C325.136 154.276 324.916 154.392 324.652 154.488C324.388 154.576 324.064 154.62 323.68 154.62ZM323.932 153.72C324.26 153.72 324.56 153.652 324.832 153.516C325.104 153.372 325.316 153.152 325.468 152.856C325.628 152.56 325.708 152.188 325.708 151.74V151.404L324.316 151.608C323.748 151.688 323.32 151.824 323.032 152.016C322.744 152.2 322.6 152.436 322.6 152.724C322.6 152.948 322.664 153.136 322.792 153.288C322.928 153.432 323.096 153.54 323.296 153.612C323.504 153.684 323.716 153.72 323.932 153.72ZM329.524 156.78C329.46 156.78 329.404 156.756 329.356 156.708C329.308 156.66 329.284 156.604 329.284 156.54C329.284 156.508 329.288 156.476 329.296 156.444C329.304 156.412 329.32 156.372 329.344 156.324L330.268 154.128L327.976 148.716C327.936 148.62 327.916 148.552 327.916 148.512C327.916 148.44 327.94 148.38 327.988 148.332C328.036 148.284 328.096 148.26 328.168 148.26H328.756C328.836 148.26 328.9 148.28 328.948 148.32C328.996 148.36 329.028 148.408 329.044 148.464L330.868 152.832L332.74 148.464C332.764 148.408 332.796 148.36 332.836 148.32C332.884 148.28 332.952 148.26 333.04 148.26H333.604C333.676 148.26 333.736 148.284 333.784 148.332C333.832 148.38 333.856 148.436 333.856 148.5C333.856 148.54 333.836 148.612 333.796 148.716L330.388 156.576C330.364 156.632 330.328 156.68 330.28 156.72C330.24 156.76 330.176 156.78 330.088 156.78H329.524Z" fill="#F4F9FF" fill-opacity="0.3"/>
<path d="M387.278 154.62C386.87 154.62 386.482 154.572 386.114 154.476C385.754 154.372 385.43 154.216 385.142 154.008C384.862 153.792 384.638 153.524 384.47 153.204C384.302 152.884 384.21 152.508 384.194 152.076C384.194 152.004 384.218 151.944 384.266 151.896C384.314 151.84 384.378 151.812 384.458 151.812H385.106C385.194 151.812 385.262 151.84 385.31 151.896C385.366 151.944 385.402 152.008 385.418 152.088C385.45 152.448 385.554 152.74 385.73 152.964C385.906 153.18 386.13 153.34 386.402 153.444C386.674 153.548 386.974 153.6 387.302 153.6C387.91 153.6 388.374 153.4 388.694 153C389.014 152.6 389.174 152.068 389.174 151.404V147.144H384.914C384.834 147.144 384.766 147.12 384.71 147.072C384.662 147.016 384.638 146.948 384.638 146.868V146.376C384.638 146.296 384.662 146.232 384.71 146.184C384.766 146.128 384.834 146.1 384.914 146.1H390.086C390.174 146.1 390.242 146.128 390.29 146.184C390.346 146.232 390.374 146.3 390.374 146.388V151.428C390.374 152.076 390.25 152.64 390.002 153.12C389.754 153.6 389.402 153.972 388.946 154.236C388.49 154.492 387.934 154.62 387.278 154.62ZM394.513 154.62C394.001 154.62 393.565 154.508 393.205 154.284C392.853 154.052 392.585 153.732 392.401 153.324C392.217 152.916 392.125 152.448 392.125 151.92V148.536C392.125 148.456 392.149 148.392 392.197 148.344C392.253 148.288 392.321 148.26 392.401 148.26H393.001C393.081 148.26 393.145 148.288 393.193 148.344C393.249 148.392 393.277 148.456 393.277 148.536V151.86C393.277 153.052 393.797 153.648 394.837 153.648C395.333 153.648 395.729 153.492 396.025 153.18C396.329 152.86 396.481 152.42 396.481 151.86V148.536C396.481 148.456 396.505 148.392 396.553 148.344C396.609 148.288 396.677 148.26 396.757 148.26H397.345C397.433 148.26 397.501 148.288 397.549 148.344C397.597 148.392 397.621 148.456 397.621 148.536V154.224C397.621 154.304 397.597 154.372 397.549 154.428C397.501 154.476 397.433 154.5 397.345 154.5H396.793C396.713 154.5 396.645 154.476 396.589 154.428C396.541 154.372 396.517 154.304 396.517 154.224V153.696C396.301 153.976 396.037 154.2 395.725 154.368C395.421 154.536 395.017 154.62 394.513 154.62ZM399.68 154.5C399.6 154.5 399.532 154.476 399.476 154.428C399.428 154.372 399.404 154.304 399.404 154.224V148.536C399.404 148.456 399.428 148.392 399.476 148.344C399.532 148.288 399.6 148.26 399.68 148.26H400.244C400.324 148.26 400.388 148.288 400.436 148.344C400.492 148.392 400.52 148.456 400.52 148.536V149.064C400.728 148.792 400.988 148.572 401.3 148.404C401.62 148.228 402.028 148.14 402.524 148.14C403.044 148.14 403.484 148.256 403.844 148.488C404.212 148.712 404.488 149.028 404.672 149.436C404.856 149.836 404.948 150.304 404.948 150.84V154.224C404.948 154.304 404.924 154.372 404.876 154.428C404.828 154.476 404.764 154.5 404.684 154.5H404.084C404.004 154.5 403.936 154.476 403.88 154.428C403.832 154.372 403.808 154.304 403.808 154.224V150.9C403.808 150.34 403.672 149.904 403.4 149.592C403.128 149.272 402.728 149.112 402.2 149.112C401.704 149.112 401.304 149.272 401 149.592C400.704 149.904 400.556 150.34 400.556 150.9V154.224C400.556 154.304 400.528 154.372 400.472 154.428C400.424 154.476 400.36 154.5 400.28 154.5H399.68Z" fill="#F4F9FF" fill-opacity="0.3"/>
<path d="M459.492 154.62C459.084 154.62 458.696 154.572 458.328 154.476C457.968 154.372 457.644 154.216 457.356 154.008C457.076 153.792 456.852 153.524 456.684 153.204C456.516 152.884 456.424 152.508 456.408 152.076C456.408 152.004 456.432 151.944 456.48 151.896C456.528 151.84 456.592 151.812 456.672 151.812H457.32C457.408 151.812 457.476 151.84 457.524 151.896C457.58 151.944 457.616 152.008 457.632 152.088C457.664 152.448 457.768 152.74 457.944 152.964C458.12 153.18 458.344 153.34 458.616 153.444C458.888 153.548 459.188 153.6 459.516 153.6C460.124 153.6 460.588 153.4 460.908 153C461.228 152.6 461.388 152.068 461.388 151.404V147.144H457.128C457.048 147.144 456.98 147.12 456.924 147.072C456.876 147.016 456.852 146.948 456.852 146.868V146.376C456.852 146.296 456.876 146.232 456.924 146.184C456.98 146.128 457.048 146.1 457.128 146.1H462.3C462.388 146.1 462.456 146.128 462.504 146.184C462.56 146.232 462.588 146.3 462.588 146.388V151.428C462.588 152.076 462.464 152.64 462.216 153.12C461.968 153.6 461.616 153.972 461.16 154.236C460.704 154.492 460.148 154.62 459.492 154.62ZM466.727 154.62C466.215 154.62 465.779 154.508 465.419 154.284C465.067 154.052 464.799 153.732 464.615 153.324C464.431 152.916 464.339 152.448 464.339 151.92V148.536C464.339 148.456 464.363 148.392 464.411 148.344C464.467 148.288 464.535 148.26 464.615 148.26H465.215C465.295 148.26 465.359 148.288 465.407 148.344C465.463 148.392 465.491 148.456 465.491 148.536V151.86C465.491 153.052 466.011 153.648 467.051 153.648C467.547 153.648 467.943 153.492 468.239 153.18C468.543 152.86 468.695 152.42 468.695 151.86V148.536C468.695 148.456 468.719 148.392 468.767 148.344C468.823 148.288 468.891 148.26 468.971 148.26H469.559C469.647 148.26 469.715 148.288 469.763 148.344C469.811 148.392 469.835 148.456 469.835 148.536V154.224C469.835 154.304 469.811 154.372 469.763 154.428C469.715 154.476 469.647 154.5 469.559 154.5H469.007C468.927 154.5 468.859 154.476 468.803 154.428C468.755 154.372 468.731 154.304 468.731 154.224V153.696C468.515 153.976 468.251 154.2 467.939 154.368C467.635 154.536 467.231 154.62 466.727 154.62ZM471.905 154.5C471.825 154.5 471.757 154.476 471.701 154.428C471.653 154.372 471.629 154.304 471.629 154.224V146.256C471.629 146.176 471.653 146.112 471.701 146.064C471.757 146.008 471.825 145.98 471.905 145.98H472.469C472.557 145.98 472.625 146.008 472.673 146.064C472.721 146.112 472.745 146.176 472.745 146.256V154.224C472.745 154.304 472.721 154.372 472.673 154.428C472.625 154.476 472.557 154.5 472.469 154.5H471.905Z" fill="#F4F9FF" fill-opacity="0.3"/>
<path d="M523.646 154.5C523.582 154.5 523.526 154.476 523.478 154.428C523.43 154.38 523.406 154.324 523.406 154.26C523.406 154.22 523.41 154.176 523.418 154.128L526.394 146.364C526.426 146.284 526.47 146.22 526.526 146.172C526.582 146.124 526.666 146.1 526.778 146.1H527.594C527.698 146.1 527.778 146.124 527.834 146.172C527.898 146.22 527.946 146.284 527.978 146.364L530.942 154.128C530.958 154.176 530.966 154.22 530.966 154.26C530.966 154.324 530.942 154.38 530.894 154.428C530.846 154.476 530.79 154.5 530.726 154.5H530.114C530.018 154.5 529.946 154.476 529.898 154.428C529.858 154.38 529.83 154.336 529.814 154.296L529.154 152.592H525.218L524.558 154.296C524.55 154.336 524.522 154.38 524.474 154.428C524.426 154.476 524.354 154.5 524.258 154.5H523.646ZM525.566 151.56H528.806L527.186 147.3L525.566 151.56ZM534.339 154.62C533.827 154.62 533.391 154.508 533.031 154.284C532.679 154.052 532.411 153.732 532.227 153.324C532.043 152.916 531.951 152.448 531.951 151.92V148.536C531.951 148.456 531.975 148.392 532.023 148.344C532.079 148.288 532.147 148.26 532.227 148.26H532.827C532.907 148.26 532.971 148.288 533.019 148.344C533.075 148.392 533.103 148.456 533.103 148.536V151.86C533.103 153.052 533.623 153.648 534.663 153.648C535.159 153.648 535.555 153.492 535.851 153.18C536.155 152.86 536.307 152.42 536.307 151.86V148.536C536.307 148.456 536.331 148.392 536.379 148.344C536.435 148.288 536.503 148.26 536.583 148.26H537.171C537.259 148.26 537.327 148.288 537.375 148.344C537.423 148.392 537.447 148.456 537.447 148.536V154.224C537.447 154.304 537.423 154.372 537.375 154.428C537.327 154.476 537.259 154.5 537.171 154.5H536.619C536.539 154.5 536.471 154.476 536.415 154.428C536.367 154.372 536.343 154.304 536.343 154.224V153.696C536.127 153.976 535.863 154.2 535.551 154.368C535.247 154.536 534.843 154.62 534.339 154.62ZM541.786 157.14C541.242 157.14 540.794 157.068 540.442 156.924C540.098 156.78 539.826 156.604 539.626 156.396C539.434 156.196 539.294 155.992 539.206 155.784C539.126 155.584 539.082 155.424 539.074 155.304C539.066 155.224 539.09 155.156 539.146 155.1C539.21 155.044 539.278 155.016 539.35 155.016H539.926C539.998 155.016 540.058 155.032 540.106 155.064C540.154 155.096 540.194 155.164 540.226 155.268C540.274 155.388 540.346 155.52 540.442 155.664C540.538 155.816 540.686 155.944 540.886 156.048C541.086 156.16 541.366 156.216 541.726 156.216C542.102 156.216 542.418 156.164 542.674 156.06C542.93 155.964 543.122 155.788 543.25 155.532C543.386 155.284 543.454 154.94 543.454 154.5V153.684C543.262 153.932 543.01 154.14 542.698 154.308C542.386 154.468 541.994 154.548 541.522 154.548C541.074 154.548 540.69 154.472 540.37 154.32C540.05 154.16 539.786 153.948 539.578 153.684C539.378 153.412 539.226 153.104 539.122 152.76C539.026 152.416 538.97 152.056 538.954 151.68C538.946 151.456 538.946 151.236 538.954 151.02C538.97 150.644 539.026 150.284 539.122 149.94C539.226 149.596 539.378 149.288 539.578 149.016C539.786 148.744 540.05 148.532 540.37 148.38C540.69 148.22 541.074 148.14 541.522 148.14C542.002 148.14 542.398 148.232 542.71 148.416C543.03 148.592 543.29 148.808 543.49 149.064V148.548C543.49 148.468 543.514 148.4 543.562 148.344C543.618 148.288 543.686 148.26 543.766 148.26H544.318C544.398 148.26 544.466 148.288 544.522 148.344C544.578 148.4 544.606 148.468 544.606 148.548V154.368C544.606 154.904 544.514 155.38 544.33 155.796C544.154 156.212 543.858 156.54 543.442 156.78C543.034 157.02 542.482 157.14 541.786 157.14ZM541.762 153.588C542.162 153.588 542.482 153.496 542.722 153.312C542.97 153.128 543.15 152.896 543.262 152.616C543.382 152.336 543.446 152.052 543.454 151.764C543.462 151.652 543.466 151.516 543.466 151.356C543.466 151.188 543.462 151.048 543.454 150.936C543.446 150.648 543.382 150.364 543.262 150.084C543.15 149.804 542.97 149.572 542.722 149.388C542.482 149.204 542.162 149.112 541.762 149.112C541.362 149.112 541.042 149.204 540.802 149.388C540.562 149.564 540.39 149.8 540.286 150.096C540.182 150.384 540.122 150.696 540.106 151.032C540.098 151.24 540.098 151.452 540.106 151.668C540.122 152.004 540.182 152.32 540.286 152.616C540.39 152.904 540.562 153.14 540.802 153.324C541.042 153.5 541.362 153.588 541.762 153.588Z" fill="#F4F9FF" fill-opacity="0.3"/>
<path d="M599.124 154.62C598.428 154.62 597.844 154.516 597.372 154.308C596.9 154.092 596.536 153.816 596.28 153.48C596.032 153.136 595.9 152.772 595.884 152.388C595.884 152.324 595.908 152.268 595.956 152.22C596.012 152.164 596.076 152.136 596.148 152.136H596.76C596.856 152.136 596.928 152.16 596.976 152.208C597.024 152.256 597.056 152.312 597.072 152.376C597.112 152.568 597.208 152.76 597.36 152.952C597.52 153.136 597.74 153.292 598.02 153.42C598.308 153.54 598.676 153.6 599.124 153.6C599.812 153.6 600.316 153.48 600.636 153.24C600.964 152.992 601.128 152.664 601.128 152.256C601.128 151.976 601.04 151.752 600.864 151.584C600.696 151.408 600.436 151.252 600.084 151.116C599.732 150.98 599.276 150.832 598.716 150.672C598.132 150.504 597.648 150.32 597.264 150.12C596.88 149.92 596.592 149.672 596.4 149.376C596.216 149.08 596.124 148.704 596.124 148.248C596.124 147.816 596.24 147.432 596.472 147.096C596.704 146.752 597.036 146.48 597.468 146.28C597.908 146.08 598.44 145.98 599.064 145.98C599.56 145.98 599.992 146.048 600.36 146.184C600.736 146.312 601.048 146.488 601.296 146.712C601.544 146.928 601.732 147.164 601.86 147.42C601.988 147.668 602.056 147.912 602.064 148.152C602.064 148.208 602.044 148.264 602.004 148.32C601.964 148.368 601.9 148.392 601.812 148.392H601.176C601.12 148.392 601.06 148.376 600.996 148.344C600.94 148.312 600.896 148.252 600.864 148.164C600.816 147.836 600.632 147.56 600.312 147.336C599.992 147.112 599.576 147 599.064 147C598.544 147 598.12 147.1 597.792 147.3C597.472 147.5 597.312 147.812 597.312 148.236C597.312 148.508 597.388 148.736 597.54 148.92C597.692 149.096 597.932 149.252 598.26 149.388C598.588 149.524 599.016 149.668 599.544 149.82C600.184 149.996 600.708 150.184 601.116 150.384C601.524 150.576 601.824 150.82 602.016 151.116C602.216 151.404 602.316 151.776 602.316 152.232C602.316 152.736 602.184 153.168 601.92 153.528C601.656 153.88 601.284 154.152 600.804 154.344C600.332 154.528 599.772 154.62 599.124 154.62ZM606.217 154.62C605.393 154.62 604.737 154.368 604.249 153.864C603.761 153.352 603.493 152.656 603.445 151.776C603.437 151.672 603.433 151.54 603.433 151.38C603.433 151.212 603.437 151.076 603.445 150.972C603.477 150.404 603.609 149.908 603.841 149.484C604.073 149.052 604.389 148.72 604.789 148.488C605.197 148.256 605.673 148.14 606.217 148.14C606.825 148.14 607.333 148.268 607.741 148.524C608.157 148.78 608.473 149.144 608.689 149.616C608.905 150.088 609.013 150.64 609.013 151.272V151.476C609.013 151.564 608.985 151.632 608.929 151.68C608.881 151.728 608.817 151.752 608.737 151.752H604.585C604.585 151.76 604.585 151.776 604.585 151.8C604.585 151.824 604.585 151.844 604.585 151.86C604.601 152.188 604.673 152.496 604.801 152.784C604.929 153.064 605.113 153.292 605.353 153.468C605.593 153.644 605.881 153.732 606.217 153.732C606.505 153.732 606.745 153.688 606.937 153.6C607.129 153.512 607.285 153.416 607.405 153.312C607.525 153.2 607.605 153.116 607.645 153.06C607.717 152.956 607.773 152.896 607.813 152.88C607.853 152.856 607.917 152.844 608.005 152.844H608.581C608.661 152.844 608.725 152.868 608.773 152.916C608.829 152.956 608.853 153.016 608.845 153.096C608.837 153.216 608.773 153.364 608.653 153.54C608.533 153.708 608.361 153.876 608.137 154.044C607.913 154.212 607.641 154.352 607.321 154.464C607.001 154.568 606.633 154.62 606.217 154.62ZM604.585 150.924H607.873V150.888C607.873 150.528 607.805 150.208 607.669 149.928C607.541 149.648 607.353 149.428 607.105 149.268C606.857 149.1 606.561 149.016 606.217 149.016C605.873 149.016 605.577 149.1 605.329 149.268C605.089 149.428 604.905 149.648 604.777 149.928C604.649 150.208 604.585 150.528 604.585 150.888V150.924ZM610.736 156.78C610.656 156.78 610.588 156.752 610.532 156.696C610.484 156.648 610.46 156.584 610.46 156.504V148.536C610.46 148.456 610.484 148.392 610.532 148.344C610.588 148.288 610.656 148.26 610.736 148.26H611.288C611.368 148.26 611.432 148.288 611.48 148.344C611.536 148.392 611.564 148.456 611.564 148.536V149.064C611.756 148.8 612.012 148.58 612.332 148.404C612.652 148.228 613.052 148.14 613.532 148.14C613.98 148.14 614.36 148.216 614.672 148.368C614.992 148.52 615.252 148.728 615.452 148.992C615.66 149.256 615.816 149.556 615.92 149.892C616.024 150.228 616.08 150.588 616.088 150.972C616.096 151.1 616.1 151.236 616.1 151.38C616.1 151.524 616.096 151.66 616.088 151.788C616.08 152.164 616.024 152.524 615.92 152.868C615.816 153.204 615.66 153.504 615.452 153.768C615.252 154.024 614.992 154.232 614.672 154.392C614.36 154.544 613.98 154.62 613.532 154.62C613.068 154.62 612.676 154.536 612.356 154.368C612.044 154.192 611.788 153.976 611.588 153.72V156.504C611.588 156.584 611.564 156.648 611.516 156.696C611.468 156.752 611.4 156.78 611.312 156.78H610.736ZM613.28 153.648C613.696 153.648 614.02 153.56 614.252 153.384C614.492 153.2 614.664 152.964 614.768 152.676C614.872 152.38 614.932 152.064 614.948 151.728C614.956 151.496 614.956 151.264 614.948 151.032C614.932 150.696 614.872 150.384 614.768 150.096C614.664 149.8 614.492 149.564 614.252 149.388C614.02 149.204 613.696 149.112 613.28 149.112C612.888 149.112 612.568 149.204 612.32 149.388C612.08 149.572 611.9 149.808 611.78 150.096C611.668 150.376 611.604 150.664 611.588 150.96C611.58 151.088 611.576 151.24 611.576 151.416C611.576 151.592 611.58 151.748 611.588 151.884C611.596 152.164 611.66 152.44 611.78 152.712C611.908 152.984 612.096 153.208 612.344 153.384C612.592 153.56 612.904 153.648 613.28 153.648Z" fill="#F4F9FF" fill-opacity="0.3"/>
<path d="M670.651 154.62C669.971 154.62 669.387 154.504 668.899 154.272C668.411 154.032 668.035 153.668 667.771 153.18C667.507 152.684 667.359 152.064 667.327 151.32C667.319 150.968 667.315 150.632 667.315 150.312C667.315 149.984 667.319 149.644 667.327 149.292C667.359 148.556 667.511 147.944 667.783 147.456C668.063 146.96 668.447 146.592 668.935 146.352C669.431 146.104 670.003 145.98 670.651 145.98C671.307 145.98 671.879 146.104 672.367 146.352C672.863 146.592 673.251 146.96 673.531 147.456C673.811 147.944 673.963 148.556 673.987 149.292C674.003 149.644 674.011 149.984 674.011 150.312C674.011 150.632 674.003 150.968 673.987 151.32C673.963 152.064 673.815 152.684 673.543 153.18C673.279 153.668 672.903 154.032 672.415 154.272C671.927 154.504 671.339 154.62 670.651 154.62ZM670.651 153.6C671.267 153.6 671.767 153.416 672.151 153.048C672.543 152.68 672.755 152.084 672.787 151.26C672.803 150.9 672.811 150.58 672.811 150.3C672.811 150.012 672.803 149.692 672.787 149.34C672.771 148.788 672.667 148.34 672.475 147.996C672.291 147.652 672.043 147.4 671.731 147.24C671.419 147.08 671.059 147 670.651 147C670.259 147 669.907 147.08 669.595 147.24C669.283 147.4 669.031 147.652 668.839 147.996C668.655 148.34 668.551 148.788 668.527 149.34C668.519 149.692 668.515 150.012 668.515 150.3C668.515 150.58 668.519 150.9 668.527 151.26C668.559 152.084 668.771 152.68 669.163 153.048C669.555 153.416 670.051 153.6 670.651 153.6ZM678.124 154.62C677.556 154.62 677.064 154.512 676.648 154.296C676.24 154.072 675.924 153.756 675.7 153.348C675.476 152.932 675.356 152.436 675.34 151.86C675.332 151.74 675.328 151.58 675.328 151.38C675.328 151.18 675.332 151.02 675.34 150.9C675.356 150.324 675.476 149.832 675.7 149.424C675.924 149.008 676.24 148.692 676.648 148.476C677.064 148.252 677.556 148.14 678.124 148.14C678.588 148.14 678.984 148.204 679.312 148.332C679.648 148.46 679.924 148.624 680.14 148.824C680.356 149.024 680.516 149.24 680.62 149.472C680.732 149.704 680.792 149.924 680.8 150.132C680.808 150.212 680.784 150.276 680.728 150.324C680.672 150.372 680.604 150.396 680.524 150.396H679.948C679.868 150.396 679.808 150.38 679.768 150.348C679.728 150.308 679.688 150.244 679.648 150.156C679.504 149.764 679.308 149.488 679.06 149.328C678.812 149.168 678.504 149.088 678.136 149.088C677.656 149.088 677.264 149.236 676.96 149.532C676.664 149.828 676.504 150.304 676.48 150.96C676.472 151.248 676.472 151.528 676.48 151.8C676.504 152.464 676.664 152.944 676.96 153.24C677.264 153.528 677.656 153.672 678.136 153.672C678.504 153.672 678.812 153.592 679.06 153.432C679.308 153.272 679.504 152.996 679.648 152.604C679.688 152.516 679.728 152.456 679.768 152.424C679.808 152.384 679.868 152.364 679.948 152.364H680.524C680.604 152.364 680.672 152.388 680.728 152.436C680.784 152.484 680.808 152.548 680.8 152.628C680.792 152.796 680.756 152.968 680.692 153.144C680.628 153.32 680.524 153.5 680.38 153.684C680.244 153.86 680.072 154.02 679.864 154.164C679.656 154.3 679.404 154.412 679.108 154.5C678.82 154.58 678.492 154.62 678.124 154.62ZM684.661 154.5C684.213 154.5 683.849 154.416 683.569 154.248C683.289 154.072 683.085 153.828 682.957 153.516C682.829 153.196 682.765 152.82 682.765 152.388V149.22H681.829C681.749 149.22 681.681 149.196 681.625 149.148C681.577 149.092 681.553 149.024 681.553 148.944V148.536C681.553 148.456 681.577 148.392 681.625 148.344C681.681 148.288 681.749 148.26 681.829 148.26H682.765V146.256C682.765 146.176 682.789 146.112 682.837 146.064C682.893 146.008 682.961 145.98 683.041 145.98H683.605C683.685 145.98 683.749 146.008 683.797 146.064C683.853 146.112 683.881 146.176 683.881 146.256V148.26H685.369C685.449 148.26 685.513 148.288 685.561 148.344C685.617 148.392 685.645 148.456 685.645 148.536V148.944C685.645 149.024 685.617 149.092 685.561 149.148C685.513 149.196 685.449 149.22 685.369 149.22H683.881V152.304C683.881 152.68 683.945 152.976 684.073 153.192C684.201 153.408 684.429 153.516 684.757 153.516H685.489C685.569 153.516 685.633 153.544 685.681 153.6C685.737 153.648 685.765 153.712 685.765 153.792V154.224C685.765 154.304 685.737 154.372 685.681 154.428C685.633 154.476 685.569 154.5 685.489 154.5H684.661Z" fill="#F4F9FF" fill-opacity="0.3"/>
<path d="M737.129 154.5C737.041 154.5 736.973 154.476 736.925 154.428C736.877 154.372 736.853 154.304 736.853 154.224V146.388C736.853 146.3 736.877 146.232 736.925 146.184C736.973 146.128 737.041 146.1 737.129 146.1H737.681C737.777 146.1 737.849 146.124 737.897 146.172C737.945 146.212 737.973 146.244 737.981 146.268L741.965 152.388V146.388C741.965 146.3 741.989 146.232 742.037 146.184C742.085 146.128 742.153 146.1 742.241 146.1H742.817C742.905 146.1 742.973 146.128 743.021 146.184C743.077 146.232 743.105 146.3 743.105 146.388V154.212C743.105 154.292 743.077 154.36 743.021 154.416C742.973 154.472 742.909 154.5 742.829 154.5H742.253C742.165 154.5 742.097 154.476 742.049 154.428C742.009 154.38 741.981 154.348 741.965 154.332L737.993 148.272V154.224C737.993 154.304 737.965 154.372 737.909 154.428C737.861 154.476 737.793 154.5 737.705 154.5H737.129ZM747.585 154.62C746.977 154.62 746.469 154.504 746.061 154.272C745.653 154.04 745.341 153.72 745.125 153.312C744.909 152.896 744.789 152.424 744.765 151.896C744.757 151.76 744.753 151.588 744.753 151.38C744.753 151.164 744.757 150.992 744.765 150.864C744.789 150.328 744.909 149.856 745.125 149.448C745.349 149.04 745.665 148.72 746.073 148.488C746.481 148.256 746.985 148.14 747.585 148.14C748.185 148.14 748.689 148.256 749.097 148.488C749.505 148.72 749.817 149.04 750.033 149.448C750.257 149.856 750.381 150.328 750.405 150.864C750.413 150.992 750.417 151.164 750.417 151.38C750.417 151.588 750.413 151.76 750.405 151.896C750.381 152.424 750.261 152.896 750.045 153.312C749.829 153.72 749.517 154.04 749.109 154.272C748.701 154.504 748.193 154.62 747.585 154.62ZM747.585 153.696C748.081 153.696 748.477 153.54 748.773 153.228C749.069 152.908 749.229 152.444 749.253 151.836C749.261 151.716 749.265 151.564 749.265 151.38C749.265 151.196 749.261 151.044 749.253 150.924C749.229 150.316 749.069 149.856 748.773 149.544C748.477 149.224 748.081 149.064 747.585 149.064C747.089 149.064 746.689 149.224 746.385 149.544C746.089 149.856 745.933 150.316 745.917 150.924C745.909 151.044 745.905 151.196 745.905 151.38C745.905 151.564 745.909 151.716 745.917 151.836C745.933 152.444 746.089 152.908 746.385 153.228C746.689 153.54 747.089 153.696 747.585 153.696ZM753.869 154.5C753.749 154.5 753.653 154.472 753.581 154.416C753.517 154.36 753.465 154.288 753.425 154.2L751.205 148.632C751.189 148.592 751.181 148.552 751.181 148.512C751.181 148.44 751.205 148.38 751.253 148.332C751.301 148.284 751.361 148.26 751.433 148.26H752.009C752.097 148.26 752.165 148.284 752.213 148.332C752.261 148.38 752.289 148.424 752.297 148.464L754.133 153.192L755.957 148.464C755.973 148.424 756.001 148.38 756.041 148.332C756.089 148.284 756.157 148.26 756.245 148.26H756.833C756.897 148.26 756.953 148.284 757.001 148.332C757.057 148.38 757.085 148.44 757.085 148.512C757.085 148.552 757.077 148.592 757.061 148.632L754.829 154.2C754.797 154.288 754.745 154.36 754.673 154.416C754.609 154.472 754.513 154.5 754.385 154.5H753.869Z" fill="#F4F9FF" fill-opacity="0.3"/>
<path d="M808.342 154.5C808.254 154.5 808.186 154.476 808.138 154.428C808.09 154.372 808.066 154.304 808.066 154.224V146.388C808.066 146.3 808.09 146.232 808.138 146.184C808.186 146.128 808.254 146.1 808.342 146.1H811.066C811.89 146.1 812.554 146.224 813.058 146.472C813.562 146.72 813.93 147.088 814.162 147.576C814.394 148.056 814.514 148.648 814.522 149.352C814.53 149.712 814.534 150.028 814.534 150.3C814.534 150.572 814.53 150.884 814.522 151.236C814.506 151.972 814.382 152.584 814.15 153.072C813.926 153.552 813.566 153.912 813.07 154.152C812.582 154.384 811.934 154.5 811.126 154.5H808.342ZM809.242 153.48H811.066C811.618 153.48 812.058 153.404 812.386 153.252C812.714 153.1 812.95 152.856 813.094 152.52C813.246 152.184 813.326 151.74 813.334 151.188C813.35 150.948 813.358 150.74 813.358 150.564C813.358 150.38 813.358 150.2 813.358 150.024C813.358 149.84 813.35 149.632 813.334 149.4C813.318 148.624 813.134 148.052 812.782 147.684C812.43 147.308 811.838 147.12 811.006 147.12H809.242V153.48ZM818.668 154.62C817.844 154.62 817.188 154.368 816.7 153.864C816.212 153.352 815.944 152.656 815.896 151.776C815.888 151.672 815.884 151.54 815.884 151.38C815.884 151.212 815.888 151.076 815.896 150.972C815.928 150.404 816.06 149.908 816.292 149.484C816.524 149.052 816.84 148.72 817.24 148.488C817.648 148.256 818.124 148.14 818.668 148.14C819.276 148.14 819.784 148.268 820.192 148.524C820.608 148.78 820.924 149.144 821.14 149.616C821.356 150.088 821.464 150.64 821.464 151.272V151.476C821.464 151.564 821.436 151.632 821.38 151.68C821.332 151.728 821.268 151.752 821.188 151.752H817.036C817.036 151.76 817.036 151.776 817.036 151.8C817.036 151.824 817.036 151.844 817.036 151.86C817.052 152.188 817.124 152.496 817.252 152.784C817.38 153.064 817.564 153.292 817.804 153.468C818.044 153.644 818.332 153.732 818.668 153.732C818.956 153.732 819.196 153.688 819.388 153.6C819.58 153.512 819.736 153.416 819.856 153.312C819.976 153.2 820.056 153.116 820.096 153.06C820.168 152.956 820.224 152.896 820.264 152.88C820.304 152.856 820.368 152.844 820.456 152.844H821.032C821.112 152.844 821.176 152.868 821.224 152.916C821.28 152.956 821.304 153.016 821.296 153.096C821.288 153.216 821.224 153.364 821.104 153.54C820.984 153.708 820.812 153.876 820.588 154.044C820.364 154.212 820.092 154.352 819.772 154.464C819.452 154.568 819.084 154.62 818.668 154.62ZM817.036 150.924H820.324V150.888C820.324 150.528 820.256 150.208 820.12 149.928C819.992 149.648 819.804 149.428 819.556 149.268C819.308 149.1 819.012 149.016 818.668 149.016C818.324 149.016 818.028 149.1 817.78 149.268C817.54 149.428 817.356 149.648 817.228 149.928C817.1 150.208 817.036 150.528 817.036 150.888V150.924ZM825.419 154.62C824.851 154.62 824.359 154.512 823.943 154.296C823.535 154.072 823.219 153.756 822.995 153.348C822.771 152.932 822.651 152.436 822.635 151.86C822.627 151.74 822.623 151.58 822.623 151.38C822.623 151.18 822.627 151.02 822.635 150.9C822.651 150.324 822.771 149.832 822.995 149.424C823.219 149.008 823.535 148.692 823.943 148.476C824.359 148.252 824.851 148.14 825.419 148.14C825.883 148.14 826.279 148.204 826.607 148.332C826.943 148.46 827.219 148.624 827.435 148.824C827.651 149.024 827.811 149.24 827.915 149.472C828.027 149.704 828.087 149.924 828.095 150.132C828.103 150.212 828.079 150.276 828.023 150.324C827.967 150.372 827.899 150.396 827.819 150.396H827.243C827.163 150.396 827.103 150.38 827.063 150.348C827.023 150.308 826.983 150.244 826.943 150.156C826.799 149.764 826.603 149.488 826.355 149.328C826.107 149.168 825.799 149.088 825.431 149.088C824.951 149.088 824.559 149.236 824.255 149.532C823.959 149.828 823.799 150.304 823.775 150.96C823.767 151.248 823.767 151.528 823.775 151.8C823.799 152.464 823.959 152.944 824.255 153.24C824.559 153.528 824.951 153.672 825.431 153.672C825.799 153.672 826.107 153.592 826.355 153.432C826.603 153.272 826.799 152.996 826.943 152.604C826.983 152.516 827.023 152.456 827.063 152.424C827.103 152.384 827.163 152.364 827.243 152.364H827.819C827.899 152.364 827.967 152.388 828.023 152.436C828.079 152.484 828.103 152.548 828.095 152.628C828.087 152.796 828.051 152.968 827.987 153.144C827.923 153.32 827.819 153.5 827.675 153.684C827.539 153.86 827.367 154.02 827.159 154.164C826.951 154.3 826.699 154.412 826.403 154.5C826.115 154.58 825.787 154.62 825.419 154.62Z" fill="#F4F9FF" fill-opacity="0.3"/>
<path d="M81.6128 87.5L30.668 98.5V134H828.804V68.5H743.896L692.951 76.5L591.061 92L541.815 82L489.172 76.5L438.227 118L387.282 109.5L338.035 98.5H285.392L234.447 80H132.558L81.6128 87.5Z" fill="url(#paint0_linear_238_16122)"/>
<path d="M30.668 98.5L81.6128 87.5L132.558 80H183.503H234.447L285.392 98.5H338.035L387.282 109.5L438.227 118L489.172 76.5L541.815 82L591.061 92L692.951 76.5L743.896 68.5H794.841H828.804" stroke="#3B57FF" stroke-width="2" stroke-miterlimit="1.58611" stroke-linecap="round" stroke-linejoin="round"/>
<circle cx="827.501" cy="68.4985" r="2.49854" fill="#0F0F10" stroke="#3B57FF" stroke-width="2"/>
<defs>
<linearGradient id="paint0_linear_238_16122" x1="502.757" y1="134" x2="502.462" y2="77.9837" gradientUnits="userSpaceOnUse">
<stop stop-color="#3B57FF" stop-opacity="0"/>
<stop offset="1" stop-color="#3B57FF" stop-opacity="0.2"/>
</linearGradient>
</defs>
</svg>
