<svg width="18" height="17" viewBox="0 0 18 17" fill="none" xmlns="http://www.w3.org/2000/svg">
<path d="M5.625 14.9965V13.75C5.625 13.3522 5.78304 12.9706 6.06434 12.6893C6.34564 12.408 6.72718 12.25 7.125 12.25H11.625C12.0228 12.25 12.4044 12.408 12.6857 12.6893C12.967 12.9706 13.125 13.3522 13.125 13.75V14.9965M16.875 8.5C16.875 12.6421 13.5171 16 9.375 16C5.23286 16 1.875 12.6421 1.875 8.5C1.875 4.35786 5.23286 1 9.375 1C13.5171 1 16.875 4.35786 16.875 8.5ZM11.625 7C11.625 8.24264 10.6176 9.25 9.375 9.25C8.13236 9.25 7.125 8.24264 7.125 7C7.125 5.75736 8.13236 4.75 9.375 4.75C10.6176 4.75 11.625 5.75736 11.625 7Z" stroke="currentColor" stroke-width="1.5" stroke-linecap="round" stroke-linejoin="round"/>
</svg>
