<svg width="14" height="14" viewBox="0 0 14 14" fill="none" xmlns="http://www.w3.org/2000/svg">
<path d="M8.625 12.8747V7.87467C8.625 7.70891 8.55915 7.54994 8.44194 7.43273C8.32473 7.31552 8.16576 7.24967 8 7.24967H5.5C5.33424 7.24967 5.17527 7.31552 5.05806 7.43273C4.94085 7.54994 4.875 7.70891 4.875 7.87467V12.8747M1.125 5.99967C1.12496 5.81784 1.16458 5.63819 1.24112 5.47325C1.31765 5.30831 1.42925 5.16205 1.56813 5.04467L5.94312 1.2953C6.16874 1.10462 6.4546 1 6.75 1C7.0454 1 7.33126 1.10462 7.55688 1.2953L11.9319 5.04467C12.0708 5.16205 12.1823 5.30831 12.2589 5.47325C12.3354 5.63819 12.375 5.81784 12.375 5.99967V11.6247C12.375 11.9562 12.2433 12.2741 12.0089 12.5086C11.7745 12.743 11.4565 12.8747 11.125 12.8747H2.375C2.04348 12.8747 1.72554 12.743 1.49112 12.5086C1.2567 12.2741 1.125 11.9562 1.125 11.6247V5.99967Z" stroke="currentColor" stroke-width="1.5" stroke-linecap="round" stroke-linejoin="round"/>
</svg>
