<svg width="15" height="15" viewBox="0 0 15 15" fill="none" xmlns="http://www.w3.org/2000/svg">
<path d="M9.5 11H6.375M11.375 8.5H6.375M2.625 13.5H12.625C12.9565 13.5 13.2745 13.3683 13.5089 13.1339C13.7433 12.8995 13.875 12.5815 13.875 12.25V2.25C13.875 1.91848 13.7433 1.60054 13.5089 1.36612C13.2745 1.1317 12.9565 1 12.625 1H5.125C4.79348 1 4.47554 1.1317 4.24112 1.36612C4.0067 1.60054 3.875 1.91848 3.875 2.25V12.25C3.875 12.5815 3.7433 12.8995 3.50888 13.1339C3.27446 13.3683 2.95652 13.5 2.625 13.5ZM2.625 13.5C2.29348 13.5 1.97554 13.3683 1.74112 13.1339C1.5067 12.8995 1.375 12.5815 1.375 12.25V6.625C1.375 6.29348 1.5067 5.97554 1.74112 5.74112C1.97554 5.5067 2.29348 5.375 2.625 5.375H3.875M7 3.5H10.75C11.0952 3.5 11.375 3.77982 11.375 4.125V5.375C11.375 5.72018 11.0952 6 10.75 6H7C6.65482 6 6.375 5.72018 6.375 5.375V4.125C6.375 3.77982 6.65482 3.5 7 3.5Z" stroke="currentColor" stroke-width="1.5" stroke-linecap="round" stroke-linejoin="round"/>
</svg>
