<svg width="15" height="15" viewBox="0 0 15 15" fill="none" xmlns="http://www.w3.org/2000/svg">
<path d="M10.125 13.125V11.875C10.125 11.212 9.86161 10.5761 9.39277 10.1072C8.92393 9.63839 8.28804 9.375 7.625 9.375H3.875C3.21196 9.375 2.57607 9.63839 2.10723 10.1072C1.63839 10.5761 1.375 11.212 1.375 11.875V13.125M13.875 13.125V11.875C13.8746 11.3211 13.6902 10.783 13.3509 10.3452C13.0115 9.90741 12.5363 9.59473 12 9.45625M10.125 1.95625C10.6628 2.09394 11.1394 2.40669 11.4798 2.84519C11.8202 3.2837 12.0049 3.82302 12.0049 4.37813C12.0049 4.93323 11.8202 5.47255 11.4798 5.91106C11.1394 6.34956 10.6628 6.66231 10.125 6.8M8.25 4.375C8.25 5.75571 7.13071 6.875 5.75 6.875C4.36929 6.875 3.25 5.75571 3.25 4.375C3.25 2.99429 4.36929 1.875 5.75 1.875C7.13071 1.875 8.25 2.99429 8.25 4.375Z" stroke="currentColor" stroke-width="1.5" stroke-linecap="round" stroke-linejoin="round"/>
</svg>
