<svg width="16" height="14" viewBox="0 0 16 14" fill="none" xmlns="http://www.w3.org/2000/svg">
<path d="M8.125 9.125V12.25M10.625 7.875V12.25M13.125 5.375V12.25M14.375 1L8.97125 6.40375C8.94222 6.43285 8.90774 6.45594 8.86977 6.47169C8.83181 6.48745 8.7911 6.49556 8.75 6.49556C8.7089 6.49556 8.66819 6.48745 8.63023 6.47169C8.59226 6.45594 8.55778 6.43285 8.52875 6.40375L6.47125 4.34625C6.41265 4.28767 6.33318 4.25475 6.25031 4.25475C6.16745 4.25475 6.08798 4.28767 6.02938 4.34625L1.875 8.5M3.125 10.375V12.25M5.625 7.875V12.25" stroke="currentColor" stroke-width="1.5" stroke-linecap="round" stroke-linejoin="round"/>
</svg>
